<?xml version="1.0" encoding="utf-8"?>
<!-- Generator: Adobe Illustrator 19.1.0, SVG Export Plug-In . SVG Version: 6.00 Build 0)  -->
<svg version="1.1" id="Layer_1" xmlns="http://www.w3.org/2000/svg" xmlns:xlink="http://www.w3.org/1999/xlink" x="0px" y="0px"
	 viewBox="0 0 167.7 47" style="enable-background:new 0 0 167.7 47;" xml:space="preserve">
<style type="text/css">
	.st0{fill:#5DBFDD;}
	.st1{fill:#FFFFFF;stroke:#000000;stroke-miterlimit:10;}
	.st2{fill:#010101;}
	.st3{fill:none;stroke:#000000;stroke-width:4;stroke-miterlimit:10;}
	.st4{fill:none;stroke:#000000;stroke-miterlimit:10;}
	.st5{fill:#FFFFFF;}
	.st6{fill:none;stroke:#FFFFFF;stroke-width:2;stroke-miterlimit:10;}
	.st7{clip-path:url(#SVGID_4_);fill:url(#SVGID_5_);}
	.st8{clip-path:url(#SVGID_7_);}
	.st9{clip-path:url(#SVGID_9_);}
	.st10{clip-path:url(#SVGID_11_);fill:url(#SVGID_12_);}
	.st11{clip-path:url(#SVGID_14_);fill:url(#SVGID_15_);}
	.st12{clip-path:url(#SVGID_17_);fill:url(#SVGID_18_);}
	.st13{clip-path:url(#SVGID_20_);fill:url(#SVGID_21_);}
	.st14{clip-path:url(#SVGID_23_);fill:url(#SVGID_24_);}
	.st15{clip-path:url(#SVGID_26_);fill:url(#SVGID_27_);}
	.st16{clip-path:url(#SVGID_29_);fill:url(#SVGID_30_);}
	.st17{clip-path:url(#SVGID_32_);}
	.st18{clip-path:url(#SVGID_34_);}
	.st19{clip-path:url(#SVGID_36_);fill:url(#SVGID_37_);}
	.st20{clip-path:url(#SVGID_39_);fill:url(#SVGID_40_);}
	.st21{clip-path:url(#SVGID_42_);fill:url(#SVGID_43_);}
	.st22{clip-path:url(#SVGID_45_);fill:url(#SVGID_46_);}
	.st23{clip-path:url(#SVGID_48_);fill:url(#SVGID_49_);}
	.st24{clip-path:url(#SVGID_51_);fill:url(#SVGID_52_);}
	.st25{clip-path:url(#SVGID_54_);fill:url(#SVGID_55_);}
	.st26{clip-path:url(#SVGID_57_);fill:#5DBFDD;}
	.st27{clip-path:url(#SVGID_57_);}
	.st28{clip-path:url(#SVGID_59_);fill:#FFFFFF;}
	.st29{clip-path:url(#SVGID_59_);fill:#65CAD9;}
	.st30{clip-path:url(#SVGID_61_);fill:url(#SVGID_62_);}
	.st31{clip-path:url(#SVGID_64_);fill:url(#SVGID_65_);}
	.st32{clip-path:url(#SVGID_67_);fill:url(#SVGID_68_);}
	.st33{clip-path:url(#SVGID_70_);fill:url(#SVGID_71_);}
	.st34{clip-path:url(#SVGID_73_);}
	.st35{clip-path:url(#SVGID_75_);}
	.st36{clip-path:url(#SVGID_77_);fill:url(#SVGID_78_);}
	.st37{clip-path:url(#SVGID_73_);fill:#4081B7;}
	.st38{clip-path:url(#SVGID_80_);fill:url(#SVGID_81_);}
	.st39{clip-path:url(#SVGID_83_);fill:url(#SVGID_84_);}
	.st40{clip-path:url(#SVGID_86_);fill:url(#SVGID_87_);}
	.st41{clip-path:url(#SVGID_89_);fill:#FFFFFF;}
	.st42{clip-path:url(#SVGID_91_);fill:url(#SVGID_92_);}
	.st43{clip-path:url(#SVGID_94_);fill:url(#SVGID_95_);}
	.st44{clip-path:url(#SVGID_97_);fill:url(#SVGID_98_);}
	.st45{clip-path:url(#SVGID_100_);fill:url(#SVGID_101_);}
	.st46{clip-path:url(#SVGID_103_);fill:url(#SVGID_104_);}
	.st47{clip-path:url(#SVGID_106_);fill:url(#SVGID_107_);}
	.st48{clip-path:url(#SVGID_109_);fill:url(#SVGID_110_);}
	.st49{clip-path:url(#SVGID_112_);}
	.st50{clip-path:url(#SVGID_114_);}
	.st51{clip-path:url(#SVGID_116_);fill:url(#SVGID_117_);}
	.st52{clip-path:url(#SVGID_119_);fill:url(#SVGID_120_);}
	.st53{clip-path:url(#SVGID_122_);fill:url(#SVGID_123_);}
	.st54{clip-path:url(#SVGID_125_);fill:url(#SVGID_126_);}
	.st55{clip-path:url(#SVGID_128_);fill:url(#SVGID_129_);}
	.st56{clip-path:url(#SVGID_131_);fill:url(#SVGID_132_);}
	.st57{clip-path:url(#SVGID_134_);fill:url(#SVGID_135_);}
	.st58{clip-path:url(#SVGID_137_);}
	.st59{clip-path:url(#SVGID_139_);}
	.st60{clip-path:url(#SVGID_141_);fill:url(#SVGID_142_);}
	.st61{clip-path:url(#SVGID_144_);fill:url(#SVGID_145_);}
	.st62{clip-path:url(#SVGID_147_);fill:url(#SVGID_148_);}
	.st63{clip-path:url(#SVGID_150_);fill:url(#SVGID_151_);}
	.st64{clip-path:url(#SVGID_153_);fill:url(#SVGID_154_);}
	.st65{clip-path:url(#SVGID_156_);fill:url(#SVGID_157_);}
	.st66{clip-path:url(#SVGID_159_);fill:url(#SVGID_160_);}
	.st67{clip-path:url(#SVGID_162_);}
	.st68{clip-path:url(#SVGID_164_);}
	.st69{clip-path:url(#SVGID_166_);fill:url(#SVGID_167_);}
	.st70{clip-path:url(#SVGID_169_);fill:url(#SVGID_170_);}
	.st71{clip-path:url(#SVGID_172_);}
	.st72{clip-path:url(#SVGID_174_);}
	.st73{clip-path:url(#SVGID_176_);fill:url(#SVGID_177_);}
	.st74{clip-path:url(#SVGID_179_);fill:url(#SVGID_180_);}
	.st75{clip-path:url(#SVGID_182_);fill:#4081B7;}
	.st76{clip-path:url(#SVGID_182_);}
	.st77{clip-path:url(#SVGID_184_);}
	.st78{clip-path:url(#SVGID_186_);fill:url(#SVGID_187_);}
	.st79{clip-path:url(#SVGID_182_);fill:#2B3C90;}
	.st80{clip-path:url(#SVGID_189_);fill:url(#SVGID_190_);}
	.st81{clip-path:url(#SVGID_192_);}
	.st82{clip-path:url(#SVGID_194_);}
	.st83{clip-path:url(#SVGID_196_);fill:url(#SVGID_197_);}
	.st84{clip-path:url(#SVGID_192_);fill:#D3D4D3;}
	.st85{clip-path:url(#SVGID_192_);fill:#ABAAAA;}
	.st86{clip-path:url(#SVGID_192_);fill:#2B3C90;}
	.st87{clip-path:url(#SVGID_192_);fill:#FFFFFF;}
	.st88{clip-path:url(#SVGID_199_);fill:url(#SVGID_200_);}
	.st89{clip-path:url(#SVGID_202_);fill:url(#SVGID_203_);}
	.st90{clip-path:url(#SVGID_205_);fill:url(#SVGID_206_);}
	.st91{clip-path:url(#SVGID_208_);fill:url(#SVGID_209_);}
	.st92{clip-path:url(#SVGID_211_);fill:url(#SVGID_212_);}
	.st93{clip-path:url(#SVGID_214_);fill:url(#SVGID_215_);}
	.st94{clip-path:url(#SVGID_217_);fill:url(#SVGID_218_);}
	.st95{fill:#2B3C90;}
	.st96{fill:#3FACB7;}
	.st97{clip-path:url(#SVGID_222_);}
	.st98{clip-path:url(#SVGID_226_);}
	.st99{clip-path:url(#SVGID_230_);}
	.st100{clip-path:url(#SVGID_234_);}
	.st101{clip-path:url(#SVGID_238_);}
	.st102{clip-path:url(#SVGID_242_);}
	.st103{clip-path:url(#SVGID_246_);fill:#5DBFDD;}
	.st104{clip-path:url(#SVGID_246_);fill:#FFFFFF;}
	.st105{clip-path:url(#SVGID_246_);fill:#F7A800;}
	.st106{clip-path:url(#SVGID_246_);fill:#B26D01;}
	.st107{clip-path:url(#SVGID_246_);fill:#005CB9;}
	.st108{clip-path:url(#SVGID_246_);fill:#8A8C8C;}
	.st109{clip-path:url(#SVGID_248_);fill:url(#SVGID_249_);}
	.st110{clip-path:url(#SVGID_251_);fill-rule:evenodd;clip-rule:evenodd;fill:#FFFFFF;}
	.st111{clip-path:url(#SVGID_251_);fill-rule:evenodd;clip-rule:evenodd;fill:#F7A800;}
	.st112{clip-path:url(#SVGID_253_);fill:url(#SVGID_254_);}
	.st113{clip-path:url(#SVGID_256_);}
	.st114{clip-path:url(#SVGID_258_);fill:#FCEE23;}
	.st115{clip-path:url(#SVGID_260_);fill:#FCEE23;}
	.st116{clip-path:url(#SVGID_262_);}
	.st117{clip-path:url(#SVGID_264_);fill:url(#SVGID_265_);}
	.st118{opacity:0.1;fill:#FFFFFF;}
	.st119{fill:url(#SVGID_266_);}
	.st120{fill-rule:evenodd;clip-rule:evenodd;fill:#FFFFFF;}
	.st121{fill-rule:evenodd;clip-rule:evenodd;fill:#F7A800;}
	.st122{fill:#F7A800;}
	.st123{fill:#B26D01;}
	.st124{fill:#005CB9;}
	.st125{fill:#8A8C8C;}
	.st126{clip-path:url(#SVGID_268_);fill:url(#SVGID_269_);}
	.st127{clip-path:url(#SVGID_271_);fill:url(#SVGID_272_);}
</style>
<g>
	<path class="st120" d="M74.7,34.5c-0.9,0.2-1.9,0.5-2.8,0.6c-0.9,0.2-1.7,0.3-2.4,0.3c-0.9,0-1.6-0.1-2-0.4
		c-0.4-0.3-0.7-0.8-0.9-1.5l-0.2-0.9L64,34.1c-0.6,0.4-1.2,0.7-1.7,1c-0.6,0.3-1.1,0.4-1.5,0.4c-1.5,0-2.6-0.2-3.5-0.7
		c-0.8-0.5-1.5-1-1.9-1.7c-0.4-0.7-0.7-1.4-0.8-2.2c-0.1-0.8-0.2-1.4-0.2-2.1c0-1.5,0.3-2.7,1-3.7c0.7-1,1.6-1.7,2.7-2.3
		c1.1-0.6,2.4-1,3.8-1.2c1.4-0.2,2.8-0.4,4.1-0.5v-0.9c0-1-0.3-1.7-0.8-2.2c-0.5-0.5-1.3-0.7-2.5-0.7c-0.9,0-1.8,0.1-2.8,0.2
		s-1.9,0.3-2.8,0.6l-1.1-4.2c1.4-0.6,2.8-1.1,4.2-1.3c1.4-0.3,2.6-0.4,3.5-0.4c2.8,0,5,0.6,6.5,1.7c1.5,1.2,2.3,3.1,2.3,6v10.4h2
		V34.5z M66,24.8L66,24.8c-0.5,0-1,0.1-1.6,0.2c-0.6,0.1-1.2,0.3-1.7,0.5c-0.5,0.2-1,0.6-1.3,1c-0.4,0.4-0.5,1-0.5,1.7
		c0,0.8,0.1,1.4,0.4,1.8c0.3,0.5,0.8,0.7,1.5,0.7c0.5,0,1-0.1,1.6-0.4c0.6-0.3,1.2-0.6,1.6-0.9V24.8z"/>
	<path class="st120" d="M83.6,44.8c-1.8,0-3.3-0.1-4.4-0.4c-1.2-0.3-2.1-0.7-2.7-1.1c-0.7-0.5-1.1-1-1.4-1.6
		c-0.3-0.6-0.4-1.2-0.4-1.9c0-0.5,0.1-1.1,0.4-1.8c0.3-0.6,0.6-1.2,1.1-1.7l1.8-2.2l-2.3-0.9c-0.2-0.2-0.3-0.5-0.3-0.9
		c-0.1-0.4-0.1-0.7-0.1-0.9c0-0.5,0.1-0.9,0.3-1.5c0.2-0.5,0.5-1,0.8-1.5c0.3-0.5,0.7-1,1.1-1.4c0.4-0.4,0.8-0.8,1.3-1.1
		c-0.9-0.5-1.6-1.3-2.2-2.2c-0.6-0.9-0.9-2.1-0.9-3.6c0-1.3,0.3-2.5,0.8-3.5c0.6-1,1.3-1.8,2.2-2.5c0.9-0.7,1.9-1.1,3.1-1.5
		c1.2-0.3,2.4-0.5,3.6-0.5c0.9,0,1.7,0.1,2.4,0.2c0.7,0.1,1.3,0.3,1.9,0.4h7.7v2.6L94,16.2c0.3,0.5,0.5,1.1,0.7,1.8
		c0.2,0.7,0.3,1.3,0.3,1.8c0,1.3-0.3,2.4-0.8,3.3c-0.5,0.9-1.2,1.7-2.1,2.4c-0.9,0.6-1.9,1.1-3.1,1.4c-1.2,0.3-2.5,0.5-3.8,0.5
		c-0.5,0-1,0-1.5-0.1c-0.5,0-0.9-0.1-1.4-0.2c-0.6,0.6-1,1.1-1,1.6c0,0.7,0.4,1,1.3,1h6.1c2.5,0,4.5,0.5,6,1.6
		c1.5,1.1,2.2,2.7,2.2,4.8c0,1.3-0.3,2.5-1,3.5c-0.7,1.1-1.6,2-2.8,2.7c-1.2,0.7-2.6,1.3-4.2,1.8C87.2,44.6,85.5,44.8,83.6,44.8
		 M90.6,36.6L90.6,36.6c0-0.6-0.3-1-0.8-1.2c-0.5-0.2-1.2-0.3-1.9-0.3h-6.1c-0.4,0.5-0.8,0.9-1.1,1.3c-0.3,0.4-0.4,0.8-0.4,1.2
		c0,0.8,0.5,1.4,1.3,1.7c0.9,0.3,2,0.5,3.2,0.5c0.8,0,1.5-0.1,2.2-0.2c0.7-0.2,1.3-0.4,1.8-0.6c0.5-0.3,0.9-0.6,1.2-1
		C90.4,37.5,90.6,37,90.6,36.6 M88.2,19.8L88.2,19.8c0-0.4,0-0.9-0.1-1.3c-0.1-0.4-0.3-0.8-0.5-1.2c-0.2-0.4-0.5-0.6-0.9-0.8
		c-0.4-0.2-0.9-0.3-1.4-0.3c-0.6,0-1.1,0.1-1.5,0.4c-0.4,0.2-0.7,0.5-0.9,0.9c-0.2,0.4-0.3,0.8-0.4,1.2c-0.1,0.4-0.1,0.8-0.1,1.2
		c0,0.5,0,0.9,0.1,1.4c0.1,0.4,0.2,0.8,0.5,1.2c0.2,0.4,0.5,0.6,0.9,0.8c0.4,0.2,0.9,0.3,1.4,0.3c1.1,0,1.9-0.4,2.3-1.1
		C88,21.7,88.2,20.8,88.2,19.8"/>
	<path class="st120" d="M103.9,25.6c0,0.7,0.1,1.4,0.3,1.9c0.1,0.6,0.4,1.1,0.7,1.5c0.3,0.4,0.8,0.8,1.3,1c0.5,0.2,1.3,0.4,2.2,0.4
		c0.7,0,1.5-0.1,2.4-0.2c0.9-0.1,2.1-0.4,3.4-0.9l1.2,4.3c-1.3,0.6-2.5,1.1-3.8,1.4c-1.3,0.3-2.6,0.4-4,0.4c-2.2,0-3.9-0.3-5.3-1
		c-1.4-0.6-2.5-1.5-3.2-2.6c-0.8-1.1-1.3-2.3-1.6-3.7c-0.3-1.4-0.4-2.8-0.4-4.3c0-0.6,0-1.4,0.1-2.2c0.1-0.8,0.2-1.7,0.5-2.6
		c0.2-0.9,0.6-1.7,1-2.6c0.4-0.8,1-1.6,1.8-2.2c0.7-0.7,1.6-1.2,2.7-1.6c1.1-0.4,2.3-0.6,3.8-0.6c2.3,0,4,0.4,5.3,1.3
		c1.3,0.8,2.2,1.9,2.8,3.2c0.6,1.3,1,2.7,1.1,4.3c0.1,1.6,0.2,3.2,0.2,4.6H103.9z M109.6,22.2L109.6,22.2c0-0.7,0-1.4-0.1-2
		c-0.1-0.7-0.2-1.2-0.4-1.7c-0.2-0.5-0.5-0.9-0.9-1.2c-0.4-0.3-0.9-0.4-1.5-0.4c-0.6,0-1,0.1-1.4,0.4c-0.4,0.3-0.6,0.7-0.9,1.1
		c-0.2,0.5-0.4,1-0.5,1.7c-0.1,0.7-0.2,1.4-0.2,2.1H109.6z"/>
	<path class="st120" d="M127.4,28.5c0-0.8-0.3-1.4-0.8-1.7c-0.5-0.3-1.2-0.6-2.1-0.8c-1.2-0.2-2.3-0.5-3.2-0.8
		c-0.9-0.3-1.7-0.7-2.3-1.2c-0.6-0.5-1.1-1.1-1.4-1.9c-0.3-0.8-0.5-1.7-0.5-2.8c0-1.3,0.3-2.4,0.8-3.3c0.5-0.9,1.2-1.6,2-2.2
		c0.8-0.5,1.8-0.9,2.8-1.2c1-0.2,2.1-0.4,3.2-0.4c1.2,0,2.5,0.1,3.8,0.4c1.3,0.3,2.5,0.6,3.5,1.2l-1.1,4.2c-0.4-0.1-0.9-0.2-1.4-0.3
		c-0.5-0.1-1-0.2-1.5-0.3c-0.5-0.1-1-0.1-1.4-0.2c-0.5,0-0.8,0-1.1,0c-1.8,0-2.7,0.6-2.7,1.9c0,0.6,0.2,1,0.7,1.2
		c0.5,0.2,1.1,0.4,1.9,0.6c1.1,0.2,2.1,0.5,3.1,0.8c1,0.3,1.8,0.7,2.5,1.3c0.7,0.5,1.3,1.2,1.7,2.1c0.4,0.9,0.6,2,0.6,3.3
		c0,1.3-0.3,2.5-0.8,3.4c-0.6,0.9-1.3,1.6-2.2,2.2c-0.9,0.6-2,1-3.1,1.2c-1.2,0.2-2.4,0.4-3.6,0.4c-1.1,0-2.4-0.1-3.8-0.4
		c-1.4-0.3-2.7-0.7-3.8-1.2l1.2-4.3c0.5,0.2,1,0.3,1.6,0.4c0.6,0.1,1.2,0.3,1.7,0.4c0.6,0.1,1.1,0.2,1.6,0.3c0.5,0.1,1,0.1,1.3,0.1
		c1,0,1.7-0.2,2.2-0.5C127.1,29.9,127.4,29.3,127.4,28.5"/>
	<path class="st120" d="M137,17l-2.5-0.6v-3.7h9.2v22.1H137V17z M140.1,9.3L140.1,9.3c-1,0-1.9-0.3-2.6-1.1
		c-0.7-0.7-1.1-1.6-1.1-2.7c0-1,0.4-1.9,1.1-2.7c0.7-0.7,1.6-1.1,2.6-1.1c1,0,1.9,0.4,2.6,1.1c0.7,0.8,1.1,1.6,1.1,2.7
		c0,1-0.4,1.9-1.1,2.6C142,9,141.2,9.3,140.1,9.3"/>
	<path class="st120" d="M157.1,30.4c0.9,0,1.8-0.1,2.6-0.3c0.9-0.2,1.8-0.4,2.9-0.8l1.2,4.3c-1.2,0.6-2.3,1.1-3.4,1.3
		c-1.1,0.3-2.5,0.4-4,0.4c-1.7,0-3.3-0.3-4.5-0.8c-1.3-0.6-2.4-1.4-3.2-2.4c-0.8-1-1.5-2.2-1.9-3.6c-0.4-1.4-0.6-2.9-0.6-4.6
		c0-1.7,0.2-3.3,0.6-4.8c0.4-1.4,1-2.7,1.9-3.8c0.8-1.1,1.9-1.9,3.2-2.5c1.3-0.6,2.8-0.9,4.6-0.9c1.6,0,2.9,0.2,4.1,0.5
		c1.2,0.3,2.2,0.7,3.1,1.1l-1.1,4.3c-0.7-0.2-1.5-0.4-2.5-0.6c-1-0.2-1.9-0.3-2.7-0.3c-1.4,0-2.5,0.5-3.2,1.5c-0.7,1-1,2.7-1,5.1
		c0,1,0.1,1.9,0.2,2.7c0.1,0.8,0.3,1.5,0.6,2.1c0.3,0.6,0.7,1,1.2,1.3C155.7,30.2,156.3,30.4,157.1,30.4"/>
	<path class="st121" d="M41.6,10C34,5,27,4.6,18.2,5.4c0.2-1.5,0.4-2.2,0.7-3.6C26.3,0,34,2.1,39.5,7.5C40.4,8.4,40.8,8.9,41.6,10"
		/>
	<path class="st121" d="M45.2,17.7C36,16,26.5,15.6,17.1,16.1c0.1-1.8,0.2-2.6,0.3-4.3c9.3-0.2,17.7-0.2,26.7,2.7
		C44.7,15.7,44.9,16.4,45.2,17.7"/>
	<path class="st121" d="M45.4,26.6c-9.4,1.3-18.9,1.7-28.4,1.3C17,26,17,25.1,17,23.3c9.6,0,19.2,0,28.8-0.1
		C45.7,24.5,45.7,25.2,45.4,26.6"/>
	<path class="st121" d="M42.2,34.5c-8,4.6-14.4,5-24.2,4.2c-0.2-1.6-0.3-2.4-0.5-4c13.1,0.6,17.4,0.3,26.3-3
		C43.3,32.8,42.9,33.4,42.2,34.5"/>
	<path class="st120" d="M30.9,10.7c-13.1-0.6-17.4-0.3-26.3,3c0.6-1.2,0.9-1.8,1.6-2.9c8-4.6,16-5.1,24.2-4.2
		C30.7,8.2,30.8,9,30.9,10.7"/>
	<path class="st120" d="M31.5,22.1c-9.6,0-19.2,0-28.8,0.1c0-1.4,0.1-2.1,0.3-3.5c9.4-1.3,18.9-1.7,28.4-1.3
		C31.5,19.3,31.5,20.2,31.5,22.1"/>
	<path class="st120" d="M31,33.6c-9.3,0.2-17.7,0.2-26.7-2.7c-0.5-1.2-0.7-1.9-1-3.2c9.2,1.7,18.7,2.1,28.1,1.6
		C31.3,31.1,31.2,31.9,31,33.6"/>
	<path class="st120" d="M29.6,43.5c-7.4,1.8-15.1-0.3-20.6-5.6c-0.9-0.9-1.4-1.4-2.1-2.5c7.7,5,14.7,5.1,23.4,4.5
		C30,41.4,29.9,42.1,29.6,43.5"/>
</g>
</svg>
