<?xml version="1.0" encoding="utf-8"?>
<!-- Generator: Adobe Illustrator 19.1.0, SVG Export Plug-In . SVG Version: 6.00 Build 0)  -->
<svg version="1.1" id="Capa_1" xmlns="http://www.w3.org/2000/svg" xmlns:xlink="http://www.w3.org/1999/xlink" x="0px" y="0px"
	 viewBox="0 0 137.5 39.3" style="enable-background:new 0 0 137.5 39.3;" xml:space="preserve">
<style type="text/css">
	.st0{fill-rule:evenodd;clip-rule:evenodd;fill:#35449C;}
	.st1{fill-rule:evenodd;clip-rule:evenodd;fill:#F7A800;}
</style>
<path class="st0" d="M60.8,28.7c-0.8,0.2-1.6,0.4-2.3,0.5c-0.8,0.1-1.4,0.2-2,0.2c-0.7,0-1.3-0.1-1.6-0.4c-0.4-0.2-0.6-0.6-0.7-1.2
	L54,27.1l-2,1.2c-0.5,0.3-1,0.6-1.4,0.8c-0.5,0.2-0.9,0.3-1.2,0.3c-1.2,0-2.2-0.2-2.9-0.6c-0.7-0.4-1.2-0.9-1.6-1.4
	c-0.4-0.6-0.6-1.2-0.7-1.8C44.1,25.1,44,24.5,44,24c0-1.2,0.3-2.2,0.9-3c0.6-0.8,1.3-1.4,2.2-1.9c0.9-0.5,2-0.8,3.1-1
	c1.1-0.2,2.3-0.3,3.4-0.4v-0.8c0-0.8-0.2-1.4-0.6-1.8c-0.4-0.4-1.1-0.6-2.1-0.6c-0.7,0-1.5,0.1-2.3,0.2c-0.8,0.1-1.6,0.3-2.3,0.5
	l-0.9-3.4c1.2-0.5,2.3-0.9,3.5-1.1c1.1-0.2,2.1-0.3,2.9-0.3c2.3,0,4.1,0.5,5.4,1.4c1.3,1,1.9,2.6,1.9,4.9v8.6h1.7V28.7z M53.7,20.7
	L53.7,20.7c-0.4,0-0.8,0.1-1.3,0.2c-0.5,0.1-1,0.2-1.4,0.4c-0.4,0.2-0.8,0.5-1.1,0.8c-0.3,0.4-0.4,0.8-0.4,1.4
	c0,0.6,0.1,1.1,0.3,1.5c0.2,0.4,0.6,0.6,1.2,0.6c0.4,0,0.8-0.1,1.3-0.4c0.5-0.2,1-0.5,1.3-0.7V20.7z"/>
<path class="st0" d="M68.1,37.3c-1.5,0-2.7-0.1-3.7-0.4c-1-0.2-1.7-0.6-2.2-0.9c-0.5-0.4-0.9-0.8-1.1-1.3c-0.2-0.5-0.3-1-0.3-1.5
	c0-0.5,0.1-0.9,0.3-1.5c0.2-0.5,0.5-1,0.9-1.4l1.5-1.9l-1.9-0.7c-0.1-0.2-0.2-0.4-0.3-0.7c-0.1-0.3-0.1-0.5-0.1-0.8
	c0-0.4,0.1-0.8,0.2-1.2c0.2-0.4,0.4-0.9,0.7-1.3c0.3-0.4,0.6-0.8,0.9-1.2c0.3-0.4,0.7-0.7,1-0.9c-0.7-0.5-1.3-1.1-1.8-1.8
	c-0.5-0.8-0.7-1.8-0.7-3c0-1.1,0.2-2,0.7-2.9c0.5-0.8,1-1.5,1.8-2c0.7-0.5,1.6-0.9,2.5-1.2c1-0.3,2-0.4,3-0.4c0.7,0,1.4,0.1,2,0.2
	c0.6,0.1,1.1,0.2,1.5,0.3h6.3v2.2l-2.7,0.7c0.2,0.4,0.4,0.9,0.6,1.5c0.2,0.6,0.2,1.1,0.2,1.5c0,1-0.2,1.9-0.6,2.7
	c-0.4,0.8-1,1.4-1.7,1.9c-0.7,0.5-1.6,0.9-2.6,1.2c-1,0.3-2,0.4-3.1,0.4c-0.4,0-0.8,0-1.2-0.1c-0.4,0-0.8-0.1-1.1-0.1
	c-0.5,0.5-0.8,0.9-0.8,1.3c0,0.6,0.4,0.8,1.1,0.8h5.1c2.1,0,3.7,0.4,4.9,1.3c1.2,0.9,1.8,2.2,1.8,4c0,1.1-0.3,2-0.8,2.9
	c-0.6,0.9-1.3,1.6-2.3,2.2c-1,0.6-2.1,1.1-3.5,1.5C71.2,37.1,69.7,37.3,68.1,37.3 M73.9,30.4L73.9,30.4c0-0.5-0.2-0.8-0.7-1
	c-0.5-0.2-1-0.3-1.5-0.3h-5c-0.4,0.4-0.6,0.7-0.9,1.1c-0.2,0.3-0.4,0.7-0.4,1c0,0.7,0.4,1.1,1.1,1.4c0.7,0.3,1.6,0.4,2.6,0.4
	c0.7,0,1.3-0.1,1.9-0.2c0.6-0.1,1.1-0.3,1.5-0.5c0.4-0.2,0.8-0.5,1-0.8C73.8,31.2,73.9,30.8,73.9,30.4 M72,16.6L72,16.6
	c0-0.4,0-0.7-0.1-1.1c-0.1-0.4-0.2-0.7-0.4-1c-0.2-0.3-0.4-0.5-0.8-0.7c-0.3-0.2-0.7-0.3-1.2-0.3c-0.5,0-0.9,0.1-1.2,0.3
	c-0.3,0.2-0.6,0.5-0.7,0.8c-0.2,0.3-0.3,0.6-0.3,1c-0.1,0.3-0.1,0.7-0.1,1c0,0.4,0,0.8,0.1,1.1c0.1,0.4,0.2,0.7,0.4,1
	c0.2,0.3,0.4,0.5,0.7,0.7c0.3,0.2,0.7,0.3,1.2,0.3c0.9,0,1.5-0.3,1.9-0.9C71.8,18.1,72,17.4,72,16.6"/>
<path class="st0" d="M84.9,21.4c0,0.6,0.1,1.1,0.2,1.6c0.1,0.5,0.3,0.9,0.6,1.3c0.3,0.4,0.6,0.6,1.1,0.8c0.5,0.2,1,0.3,1.8,0.3
	c0.6,0,1.2,0,2-0.1c0.8-0.1,1.7-0.3,2.8-0.7l1,3.5c-1,0.5-2.1,0.9-3.2,1.1c-1.1,0.2-2.2,0.4-3.3,0.4c-1.8,0-3.3-0.3-4.4-0.8
	c-1.1-0.5-2-1.2-2.7-2.1c-0.6-0.9-1.1-1.9-1.3-3c-0.2-1.1-0.4-2.3-0.4-3.5c0-0.5,0-1.1,0.1-1.8c0.1-0.7,0.2-1.4,0.4-2.1
	c0.2-0.7,0.5-1.4,0.8-2.1c0.4-0.7,0.9-1.3,1.5-1.9c0.6-0.5,1.3-1,2.2-1.3c0.9-0.3,1.9-0.5,3.1-0.5c1.9,0,3.3,0.3,4.3,1
	c1,0.7,1.8,1.6,2.3,2.6c0.5,1.1,0.8,2.3,0.9,3.6c0.1,1.3,0.2,2.6,0.2,3.8H84.9z M89.6,18.5L89.6,18.5c0-0.6,0-1.1-0.1-1.7
	c0-0.5-0.2-1-0.3-1.4c-0.2-0.4-0.4-0.7-0.7-1c-0.3-0.2-0.7-0.4-1.2-0.4c-0.5,0-0.8,0.1-1.1,0.4c-0.3,0.2-0.5,0.6-0.7,0.9
	c-0.2,0.4-0.3,0.9-0.4,1.4c-0.1,0.5-0.1,1.1-0.2,1.7H89.6z"/>
<path class="st0" d="M104.3,23.8c0-0.7-0.2-1.2-0.6-1.4c-0.4-0.3-1-0.5-1.7-0.7c-1-0.2-1.9-0.4-2.6-0.7c-0.8-0.3-1.4-0.6-1.9-1
	c-0.5-0.4-0.9-0.9-1.2-1.6c-0.3-0.6-0.4-1.4-0.4-2.3c0-1.1,0.2-2,0.6-2.7c0.4-0.7,1-1.3,1.6-1.8c0.7-0.5,1.4-0.8,2.3-1
	c0.9-0.2,1.7-0.3,2.6-0.3c1,0,2,0.1,3.1,0.3c1.1,0.2,2,0.5,2.9,1l-0.9,3.5c-0.4-0.1-0.7-0.2-1.2-0.3c-0.4-0.1-0.8-0.2-1.2-0.2
	c-0.4-0.1-0.8-0.1-1.2-0.1c-0.4,0-0.7,0-0.9,0c-1.5,0-2.3,0.5-2.3,1.5c0,0.5,0.2,0.8,0.6,1c0.4,0.2,0.9,0.3,1.6,0.5
	c0.9,0.2,1.8,0.4,2.6,0.7c0.8,0.3,1.5,0.6,2.1,1c0.6,0.4,1.1,1,1.4,1.7c0.3,0.7,0.5,1.6,0.5,2.7c0,1.1-0.2,2-0.7,2.8
	c-0.5,0.7-1.1,1.4-1.8,1.8c-0.8,0.5-1.6,0.8-2.6,1c-1,0.2-2,0.3-3,0.3c-0.9,0-1.9-0.1-3.1-0.3c-1.2-0.2-2.2-0.5-3.1-1l1-3.6
	c0.4,0.1,0.8,0.2,1.3,0.4c0.5,0.1,1,0.2,1.4,0.3c0.5,0.1,0.9,0.2,1.3,0.2c0.4,0.1,0.8,0.1,1.1,0.1c0.8,0,1.4-0.1,1.9-0.4
	C104.1,24.9,104.3,24.4,104.3,23.8"/>
<path class="st0" d="M112.3,14.3l-2-0.5v-3.1h7.6V29h-5.5V14.3z M114.8,8L114.8,8c-0.9,0-1.6-0.3-2.2-0.9c-0.6-0.6-0.9-1.3-0.9-2.2
	c0-0.9,0.3-1.6,0.9-2.2c0.6-0.6,1.3-0.9,2.2-0.9c0.9,0,1.6,0.3,2.2,0.9c0.6,0.6,0.9,1.4,0.9,2.2c0,0.8-0.3,1.5-0.9,2.2
	C116.4,7.7,115.7,8,114.8,8"/>
<path class="st0" d="M128.8,25.3c0.7,0,1.5-0.1,2.2-0.2c0.7-0.1,1.5-0.3,2.4-0.6l1,3.6c-1,0.5-1.9,0.9-2.8,1.1
	c-0.9,0.2-2,0.3-3.3,0.3c-1.4,0-2.7-0.2-3.8-0.7c-1.1-0.5-1.9-1.1-2.6-1.9c-0.7-0.8-1.2-1.8-1.6-3c-0.4-1.1-0.5-2.4-0.5-3.8
	c0-1.4,0.2-2.8,0.5-4c0.3-1.2,0.8-2.2,1.5-3.1c0.7-0.9,1.6-1.6,2.6-2.1c1.1-0.5,2.3-0.7,3.8-0.7c1.3,0,2.4,0.1,3.4,0.4
	c1,0.3,1.8,0.6,2.5,0.9l-0.9,3.6c-0.6-0.2-1.3-0.4-2.1-0.5c-0.8-0.1-1.5-0.2-2.2-0.2c-1.2,0-2.1,0.4-2.6,1.2
	c-0.6,0.8-0.8,2.2-0.8,4.2c0,0.8,0.1,1.6,0.2,2.2c0.1,0.7,0.3,1.2,0.5,1.7c0.3,0.5,0.6,0.8,1,1.1C127.6,25.2,128.2,25.3,128.8,25.3"
	/>
<path class="st1" d="M33.5,8.5C27.2,4.4,21.5,4,14.2,4.8c0.2-1.2,0.3-1.8,0.5-3c6.1-1.5,12.5,0.2,17,4.7C32.5,7.2,32.9,7.6,33.5,8.5
	"/>
<path class="st1" d="M36.5,14.9c-7.6-1.4-15.4-1.8-23.2-1.3c0.1-1.5,0.1-2.2,0.3-3.6c7.7-0.2,14.6-0.2,22,2.3
	C36,13.2,36.2,13.8,36.5,14.9"/>
<path class="st1" d="M36.6,22.2c-7.7,1.1-15.6,1.4-23.4,1c-0.1-1.5-0.1-2.2-0.1-3.8c7.9,0,15.9,0,23.8-0.1
	C36.9,20.5,36.8,21.1,36.6,22.2"/>
<path class="st1" d="M34,28.8c-6.6,3.8-11.9,4.1-19.9,3.4c-0.2-1.3-0.3-1.9-0.4-3.3c10.8,0.5,14.4,0.2,21.7-2.5
	C34.9,27.4,34.6,27.8,34,28.8"/>
<path class="st0" d="M24.7,9.1C13.9,8.6,10.3,8.9,3,11.6c0.5-1,0.7-1.5,1.3-2.4C11,5.4,17.6,5,24.3,5.8C24.5,7.1,24.6,7.7,24.7,9.1"
	/>
<path class="st0" d="M25.2,18.5c-7.9,0-15.9,0-23.8,0.1c0-1.2,0.1-1.7,0.3-2.9c7.7-1.1,15.6-1.4,23.4-1C25.2,16.2,25.2,17,25.2,18.5
	"/>
<path class="st0" d="M24.8,28c-7.7,0.2-14.6,0.2-22-2.3c-0.4-1-0.6-1.6-0.9-2.6c7.6,1.4,15.4,1.8,23.2,1.3
	C25,25.9,24.9,26.6,24.8,28"/>
<path class="st0" d="M23.6,36.2c-6.1,1.5-12.5-0.2-17-4.7c-0.8-0.8-1.1-1.2-1.8-2.1c6.3,4.1,12.1,4.2,19.3,3.7
	C23.9,34.4,23.8,35,23.6,36.2"/>
</svg>
