<?xml version="1.0" encoding="utf-8"?>
<!-- Generator: Adobe Illustrator 19.1.0, SVG Export Plug-In . SVG Version: 6.00 Build 0)  -->
<svg version="1.1" id="Layer_1" xmlns="http://www.w3.org/2000/svg" xmlns:xlink="http://www.w3.org/1999/xlink" x="0px" y="0px"
	 viewBox="0 0 382 232" style="enable-background:new 0 0 382 232;" xml:space="preserve">
<style type="text/css">
	.st0{clip-path:url(#SVGID_2_);}
	.st1{fill:#3F7FB5;}
	.st2{fill:url(#SVGID_3_);}
	.st3{fill:#2B3990;}
	.st4{fill:url(#SVGID_4_);}
	.st5{fill:#FFF200;}
	.st6{fill:url(#SVGID_5_);}
	.st7{fill:url(#SVGID_6_);}
	.st8{fill:url(#SVGID_7_);}
	.st9{fill:url(#SVGID_8_);}
	.st10{fill:url(#SVGID_9_);}
	.st11{fill:url(#SVGID_10_);}
	.st12{fill:url(#SVGID_11_);}
	.st13{fill:url(#SVGID_12_);}
	.st14{fill:#AAA9A9;}
	.st15{fill:url(#SVGID_13_);}
	.st16{fill:url(#SVGID_14_);}
	.st17{fill:url(#SVGID_15_);}
	.st18{clip-path:url(#SVGID_17_);}
	.st19{fill:url(#SVGID_18_);}
	.st20{fill:url(#SVGID_19_);}
	.st21{fill:url(#SVGID_20_);}
	.st22{fill:url(#SVGID_21_);}
	.st23{fill:url(#SVGID_22_);}
	.st24{fill:url(#SVGID_23_);}
	.st25{fill:url(#SVGID_24_);}
	.st26{fill:#FFFFFF;}
</style>
<g>
	<g>
		<defs>
			<path id="SVGID_1_" d="M369.4,10.7c0-1.9-0.6-2.4-2.6-2.4c-12.7,0.1-132.2,0-147.9,0c-0.7,0-1.5-0.2-2.1,0.4l-0.5,107.5
				c0.2,0-0.6,0-0.4,0.1c3,0,25,0,51.3,0c0,0.1-0.1,0.1-0.1,0.2c0,3.4,0.1,6.8,0.1,10.2c0,14.4,0.1,28.9,0.1,43.3
				c8.1-8.5,16.3-17,24.4-25.6c8.8-9.2,17.6-18.4,26.4-27.6c0.1-0.2,0.2-0.4,0.3-0.6c24.9,0,43.7,0,48.4,0c1.8,0,2.2-0.4,2.2-2.2
				C369.1,79.6,369.3,45.2,369.4,10.7z"/>
		</defs>
		<use xlink:href="#SVGID_1_"  style="overflow:visible;fill:#5CBFDD;"/>
		<clipPath id="SVGID_2_">
			<use xlink:href="#SVGID_1_"  style="overflow:visible;"/>
		</clipPath>
		<g class="st0">
			<path class="st1" d="M267.6,62.2L267.6,62.2c0.8,0,1.6,0,2.4,0c16.3,0,32.6,0,48.9,0c0,0.1-0.1,0.2,0,0.3
				c-16.6,17.5-33.3,35-49.9,52.4c-0.5,0.5-1,1.1-1.5,1.6c-2.9,0-5.9-0.1-8.8,0c-1,0-1.4-0.3-1.4-1.3c0-17.2,0-34.5,0-51.7
				c0-1,0.3-1.4,1.4-1.4C261.6,62.3,264.6,62.2,267.6,62.2z"/>
			<path class="st1" d="M226.2,116.5c-2.9,0-5.9,0-8.8,0c-1.1,0-1.5-0.2-1.5-1.4c0-17.2,0-34.4,0-51.6c0-1,0.3-1.4,1.3-1.4
				c3,0.1,6,0.1,9,0.1C226.2,80.4,226.2,98.4,226.2,116.5z"/>
			<linearGradient id="SVGID_3_" gradientUnits="userSpaceOnUse" x1="236.5474" y1="89.4005" x2="246.8228" y2="89.4005">
				<stop  offset="0" style="stop-color:#3F7FB5"/>
				<stop  offset="9.961557e-02" style="stop-color:#3B75B0"/>
				<stop  offset="0.393" style="stop-color:#325CA1"/>
				<stop  offset="0.6514" style="stop-color:#2D4997"/>
				<stop  offset="0.8625" style="stop-color:#2B3D92"/>
				<stop  offset="1" style="stop-color:#2B3990"/>
			</linearGradient>
			<path class="st2" d="M246.8,116.6c-3.4,0-6.8,0-10.2,0c0-18.1,0-36.2,0-54.3c3.4,0,6.9,0,10.3,0
				C246.8,80.3,246.8,98.5,246.8,116.6z"/>
			<path class="st3" d="M267.3,62.3c0,18.1,0,36.2,0,54.3c-3.5,0-6.9,0-10.4,0c0-18.1,0-36.2,0-54.3
				C260.5,62.3,263.9,62.3,267.3,62.3z"/>
			<linearGradient id="SVGID_4_" gradientUnits="userSpaceOnUse" x1="216.2519" y1="89.3976" x2="267.413" y2="89.3976">
				<stop  offset="0" style="stop-color:#2B3990"/>
				<stop  offset="1" style="stop-color:#1C2169"/>
			</linearGradient>
			<polygon class="st4" points="267.4,62.3 216.3,116.5 216.4,62.3 			"/>
			<path class="st5" d="M236.5,62.3c0,18.1,0,36.2,0,54.3c-3.5,0-6.9,0-10.4,0c0-18.1,0-36.2,0-54.3
				C229.7,62.3,233.1,62.3,236.5,62.3z"/>
			<path class="st5" d="M246.8,116.6c0-18.1,0-36.2,0-54.3c2.9,0,5.8,0,8.6,0c1.2,0,1.7,0.3,1.7,1.6c0,17.1,0,34.2,0,51.3
				c0,1.3-0.5,1.6-1.7,1.6C252.6,116.5,249.7,116.6,246.8,116.6z"/>
			<linearGradient id="SVGID_5_" gradientUnits="userSpaceOnUse" x1="267.4022" y1="170.8232" x2="370.5866" y2="170.8232">
				<stop  offset="2.543049e-02" style="stop-color:#FFF200"/>
				<stop  offset="1" style="stop-color:#FFC709"/>
			</linearGradient>
			<path class="st6" d="M370.6,170.7c-0.7,0.1-1.5,0.2-2.2,0.2c-15.8,0-31.5,0-47.3,0c-0.7,0-1.5-0.3-2.1,0.3
				c-0.3,0.3-0.7,0.6-1,0.9c-8.3,8.7-16.5,17.4-24.8,26.1c-8.5,8.9-16.9,17.7-25.4,26.6c-0.5-0.6-0.3-1.4-0.3-2.1
				c0-17.2,0-34.5,0-51.7c0.5-0.5,1-1,1.5-1.6c16.6-17.5,33.3-35,49.9-52.4l0.2,0l0.2-0.1c0.2,0.2,0.4,0.3,0.6,0.5
				C336.8,135.2,353.7,152.9,370.6,170.7z"/>
			<linearGradient id="SVGID_6_" gradientUnits="userSpaceOnUse" x1="345.0253" y1="116.1606" x2="345.0253" y2="8.056">
				<stop  offset="0" style="stop-color:#3F7FB5"/>
				<stop  offset="0.2137" style="stop-color:#3E7EB4"/>
				<stop  offset="0.3858" style="stop-color:#3C78B1"/>
				<stop  offset="0.5435" style="stop-color:#396FAC"/>
				<stop  offset="0.6924" style="stop-color:#3463A5"/>
				<stop  offset="0.8354" style="stop-color:#2F529C"/>
				<stop  offset="0.972" style="stop-color:#2B3E92"/>
				<stop  offset="1" style="stop-color:#2B3990"/>
			</linearGradient>
			<path class="st7" d="M319.3,8.1l51.2,0c0,0-16.2,17.6-24.4,26.1c-1.1,1.1-0.8,1.6,0.1,2.5c4.6,4.7,9.1,9.5,13.6,14.2
				c3.6,3.8,7.2,7.5,10.9,11.2c0,0.1,0.1,0.2,0.2,0.2c-0.1,0.1-0.1,0.3-0.2,0.4c-0.5,0.5-1,0.9-1.4,1.4
				c-12.9,13.5-25.8,27.1-38.8,40.6c-3.7,3.9-7.2,7.9-11.2,11.5l0,0c0-0.8-0.1-1.6-0.1-2.4c0-17.1,0-34.3-0.1-51.4
				c8.3-8.6,16.5-17.3,24.8-25.9c0.8-0.8,0.8-1.3,0-2.1C335.7,25.8,319.3,8.1,319.3,8.1z"/>
			<linearGradient id="SVGID_7_" gradientUnits="userSpaceOnUse" x1="267.4402" y1="89.3658" x2="370.8904" y2="89.3658">
				<stop  offset="0" style="stop-color:#3F7FB5"/>
				<stop  offset="9.961557e-02" style="stop-color:#3B75B0"/>
				<stop  offset="0.393" style="stop-color:#325CA1"/>
				<stop  offset="0.6514" style="stop-color:#2D4997"/>
				<stop  offset="0.8625" style="stop-color:#2B3D92"/>
				<stop  offset="1" style="stop-color:#2B3990"/>
			</linearGradient>
			<path class="st8" d="M267.4,116.1c0-10.5,0-21,0.1-31.5c0-7.4,0-14.9,0.1-22.3c8,0,15.9-0.1,23.9-0.1c9.2,0,18.5,0,27.7,0
				c0,0,51.8,0,51.8,0l-51.5,53.9c0,0-16.9-17.2-24.8-25.6c-0.7-0.7-1.1-1.3-2.2-0.2c-8.2,8.7-16.5,17.4-24.7,26.1l0,0
				C267.6,116.4,267.5,116.3,267.4,116.1z"/>
			<path class="st1" d="M267.6,116.5L267.6,116.5c0.8,0,1.6,0,2.4,0c16.3,0,32.6,0,48.9,0c0,0.1-0.1,0.2,0,0.3
				c-16.6,17.5-33.3,35-49.9,52.4c-0.5,0.5-1,1.1-1.5,1.6c-2.9,0-5.9-0.1-8.8,0c-1,0-1.4-0.3-1.4-1.3c0-17.2,0-34.5,0-51.7
				c0-1,0.3-1.4,1.4-1.4C261.6,116.6,264.6,116.5,267.6,116.5z"/>
			<linearGradient id="SVGID_8_" gradientUnits="userSpaceOnUse" x1="370.8444" y1="89.235" x2="422.3464" y2="89.235">
				<stop  offset="0" style="stop-color:#FFC709"/>
				<stop  offset="0.9746" style="stop-color:#FFF200"/>
			</linearGradient>
			<path class="st9" d="M370.9,62.1c17.2,0,51.5,0.1,51.5,0.1s-43.3,45.6-51.5,54.2C370.9,101.8,370.8,62.3,370.9,62.1z"/>
			<linearGradient id="SVGID_9_" gradientUnits="userSpaceOnUse" x1="319.3829" y1="143.4424" x2="370.8849" y2="143.4424">
				<stop  offset="0" style="stop-color:#FFC709"/>
				<stop  offset="0.9746" style="stop-color:#FFF200"/>
			</linearGradient>
			<path class="st10" d="M319.4,116.3c17.2,0,51.5,0.1,51.5,0.1s-43.3,45.6-51.5,54.2C319.4,156,319.4,116.5,319.4,116.3z"/>
			<path class="st1" d="M226.2,170.8c-2.9,0-5.9,0-8.8,0c-1.1,0-1.5-0.2-1.5-1.4c0-17.2,0-34.4,0-51.6c0-1,0.3-1.4,1.3-1.4
				c3,0.1,6,0.1,9,0.1C226.2,134.7,226.2,152.8,226.2,170.8z"/>
			<linearGradient id="SVGID_10_" gradientUnits="userSpaceOnUse" x1="236.5474" y1="143.7118" x2="246.8228" y2="143.7118">
				<stop  offset="0" style="stop-color:#3F7FB5"/>
				<stop  offset="9.961557e-02" style="stop-color:#3B75B0"/>
				<stop  offset="0.393" style="stop-color:#325CA1"/>
				<stop  offset="0.6514" style="stop-color:#2D4997"/>
				<stop  offset="0.8625" style="stop-color:#2B3D92"/>
				<stop  offset="1" style="stop-color:#2B3990"/>
			</linearGradient>
			<path class="st11" d="M246.8,170.9c-3.4,0-6.8,0-10.2,0c0-18.1,0-36.2,0-54.3c3.4,0,6.9,0,10.3,0
				C246.8,134.7,246.8,152.8,246.8,170.9z"/>
			<path class="st3" d="M267.3,116.6c0,18.1,0,36.2,0,54.3c-3.5,0-6.9,0-10.4,0c0-18.1,0-36.2,0-54.3
				C260.5,116.6,263.9,116.6,267.3,116.6z"/>
			<linearGradient id="SVGID_11_" gradientUnits="userSpaceOnUse" x1="216.2519" y1="143.7089" x2="267.413" y2="143.7089">
				<stop  offset="0" style="stop-color:#2B3990"/>
				<stop  offset="1" style="stop-color:#1C2169"/>
			</linearGradient>
			<polygon class="st12" points="267.4,116.6 216.3,170.8 216.4,116.6 			"/>
			<linearGradient id="SVGID_12_" gradientUnits="userSpaceOnUse" x1="319.2952" y1="143.5891" x2="370.9725" y2="143.5891">
				<stop  offset="0" style="stop-color:#3F7FB5"/>
				<stop  offset="9.961557e-02" style="stop-color:#3B75B0"/>
				<stop  offset="0.393" style="stop-color:#325CA1"/>
				<stop  offset="0.6514" style="stop-color:#2D4997"/>
				<stop  offset="0.8625" style="stop-color:#2B3D92"/>
				<stop  offset="1" style="stop-color:#2B3990"/>
			</linearGradient>
			<path class="st13" d="M370.9,129.3c0,1.6,0,3.2,0,4.8c0,1.5,0,2.9,0,4.4c0,1.6,0,3.3,0,4.9c0,0.2,0,0.5,0,0.7c0,1.6,0,3.3,0,4.9
				c0,1.5,0,2.9,0,4.4c0,1.6,0,3.2,0,4.9c0,0.2,0,0.5,0,0.7c0,1.6,0,3.2,0,4.8c0,1.5,0,2.9,0,4.4c0,0.8,0,1.6,0,2.4
				c-0.1,0-0.2,0.1-0.3,0.1c-16.9-17.8-33.8-35.5-50.7-53.3c-0.2-0.2-0.4-0.4-0.6-0.5c0.1-0.1,0.1-0.2,0.2-0.4c17.2,0,34.3,0,51.5,0
				c0,0.9,0,1.8,0,2.7c0,1.5,0,3,0,4.4c0,1.6,0,3.2,0,4.8C370.9,128.8,370.9,129,370.9,129.3z"/>
			<path class="st14" d="M319.5,116.5c-0.1,0.1-0.1,0.2-0.2,0.4c0,0-0.2,0.1-0.2,0.1l-0.2,0c0-0.1,0-0.2,0-0.3
				c-0.1-0.1,0-0.2,0.1-0.3c0.1-0.1,0.2-0.1,0.3-0.1l0,0C319.4,116.3,319.4,116.4,319.5,116.5z"/>
			<path class="st3" d="M319.3,116.5c-0.1-0.1-0.1-0.2-0.1-0.3c4-3.6,7.5-7.7,11.2-11.5c13-13.6,25.9-27.2,38.9-40.8
				c0.5-0.5,1.1-1.2,1.6-1.6c0,3.4-0.1,7.1-0.1,10.5c0,14.6,0.1,29.1,0.1,43.7l0,0.1C353.7,116.5,336.5,116.5,319.3,116.5z"/>
			<linearGradient id="SVGID_13_" gradientUnits="userSpaceOnUse" x1="267.6645" y1="103.1739" x2="319.0335" y2="103.1739">
				<stop  offset="2.543049e-02" style="stop-color:#FFF200"/>
				<stop  offset="1" style="stop-color:#FFC709"/>
			</linearGradient>
			<path class="st15" d="M319,116.3c-0.1,0.1-0.2,0.2-0.1,0.3c-16.3,0-32.6,0-48.9,0c-0.8,0-1.6,0-2.4-0.1
				c8.2-8.7,16.5-17.4,24.7-26.1c1-1.1,1.5-0.5,2.2,0.2c7.9,8.3,15.9,16.7,23.8,25C318.5,115.8,318.8,116,319,116.3z"/>
			<linearGradient id="SVGID_14_" gradientUnits="userSpaceOnUse" x1="215.809" y1="35.1883" x2="267.5612" y2="35.1883">
				<stop  offset="0" style="stop-color:#3F7FB5"/>
				<stop  offset="9.961557e-02" style="stop-color:#3B75B0"/>
				<stop  offset="0.393" style="stop-color:#325CA1"/>
				<stop  offset="0.6514" style="stop-color:#2D4997"/>
				<stop  offset="0.8625" style="stop-color:#2B3D92"/>
				<stop  offset="1" style="stop-color:#2B3990"/>
			</linearGradient>
			<rect x="215.8" y="7.8" class="st16" width="51.8" height="54.8"/>
			<path class="st5" d="M236.5,116.6c0,18.1,0,36.2,0,54.3c-3.5,0-6.9,0-10.4,0c0-18.1,0-36.2,0-54.3
				C229.7,116.6,233.1,116.6,236.5,116.6z"/>
			<path class="st5" d="M246.8,170.9c0-18.1,0-36.2,0-54.3c2.9,0,5.8,0,8.6,0c1.2,0,1.7,0.3,1.7,1.6c0,17.1,0,34.2,0,51.3
				c0,1.3-0.5,1.6-1.7,1.6C252.6,170.8,249.7,170.9,246.8,170.9z"/>
			<linearGradient id="SVGID_15_" gradientUnits="userSpaceOnUse" x1="345.4632" y1="35.1409" x2="370.922" y2="35.1409">
				<stop  offset="0" style="stop-color:#FFC709"/>
				<stop  offset="0.9746" style="stop-color:#FFF200"/>
			</linearGradient>
			<path class="st17" d="M370.9,62.2c0,0-7.5-7.8-11.1-11.6c-4.5-4.8-9-9.6-13.6-14.3c-0.9-0.9-1.2-1.4-0.1-2.5
				c8.2-8.5,16.3-17.1,24.4-25.7c0.1,0,0.2,0,0.2-0.1"/>
			<g>
				<defs>
					<path id="SVGID_16_" d="M267.3,7.9c0.1-0.1,0.1-0.3,0.2-0.4c17.2,0,34.3,0,51.5,0.1c-0.1,0.3-0.2,0.5-0.4,0.8
						c-8.8,9.2-17.7,18.5-26.5,27.7c-8.2,8.6-16.4,17.1-24.6,25.7c0-14.5,0-29.1-0.1-43.6C267.4,14.7,267.3,11.3,267.3,7.9z"/>
				</defs>
				<clipPath id="SVGID_17_">
					<use xlink:href="#SVGID_16_"  style="overflow:visible;"/>
				</clipPath>
				<g class="st18">
					<linearGradient id="SVGID_18_" gradientUnits="userSpaceOnUse" x1="267.3735" y1="10.1432" x2="319.2275" y2="10.1432">
						<stop  offset="0" style="stop-color:#3F7FB5"/>
						<stop  offset="9.961557e-02" style="stop-color:#3B75B0"/>
						<stop  offset="0.393" style="stop-color:#325CA1"/>
						<stop  offset="0.6514" style="stop-color:#2D4997"/>
						<stop  offset="0.8625" style="stop-color:#2B3D92"/>
						<stop  offset="1" style="stop-color:#2B3990"/>
					</linearGradient>
					<path class="st19" d="M315.8,12.2c-11.4,0-22.8-0.1-34.2-0.1c-4.7,0-9.4,0-14.2,0c-0.2-1.3-0.2-2.7,0-4c16.5,0,33,0,49.5,0
						c0.7,0,1.6-0.4,2.2,0.5C318.1,9.8,317,11,315.8,12.2z"/>
					<linearGradient id="SVGID_19_" gradientUnits="userSpaceOnUse" x1="267.3557" y1="18.4606" x2="311.8288" y2="18.4606">
						<stop  offset="0" style="stop-color:#3F7FB5"/>
						<stop  offset="9.961557e-02" style="stop-color:#3B75B0"/>
						<stop  offset="0.393" style="stop-color:#325CA1"/>
						<stop  offset="0.6514" style="stop-color:#2D4997"/>
						<stop  offset="0.8625" style="stop-color:#2B3D92"/>
						<stop  offset="1" style="stop-color:#2B3990"/>
					</linearGradient>
					<path class="st20" d="M308.4,20.5c-13.6,0-27.2-0.1-40.9-0.1c-0.2-1.4-0.2-2.7,0-4.1c14.1,0,28.1,0,42.2,0
						c0.7,0,1.4,0.1,2.2,0.2C310.7,17.9,309.5,19.2,308.4,20.5z"/>
					<linearGradient id="SVGID_20_" gradientUnits="userSpaceOnUse" x1="267.3557" y1="26.7062" x2="304.3507" y2="26.7062">
						<stop  offset="0" style="stop-color:#3F7FB5"/>
						<stop  offset="9.961557e-02" style="stop-color:#3B75B0"/>
						<stop  offset="0.393" style="stop-color:#325CA1"/>
						<stop  offset="0.6514" style="stop-color:#2D4997"/>
						<stop  offset="0.8625" style="stop-color:#2B3D92"/>
						<stop  offset="1" style="stop-color:#2B3990"/>
					</linearGradient>
					<path class="st21" d="M300.7,28.8c-11.1,0-22.1,0-33.2-0.1c-0.2-1.4-0.2-2.7,0-4.1c12.1,0,24.2,0,36.3-0.1
						c0.2,0,0.4,0.2,0.6,0.2C303.2,26.3,302.1,27.7,300.7,28.8z"/>
					<linearGradient id="SVGID_21_" gradientUnits="userSpaceOnUse" x1="267.3734" y1="34.9428" x2="296.9477" y2="34.9428">
						<stop  offset="0" style="stop-color:#3F7FB5"/>
						<stop  offset="9.961557e-02" style="stop-color:#3B75B0"/>
						<stop  offset="0.393" style="stop-color:#325CA1"/>
						<stop  offset="0.6514" style="stop-color:#2D4997"/>
						<stop  offset="0.8625" style="stop-color:#2B3D92"/>
						<stop  offset="1" style="stop-color:#2B3990"/>
					</linearGradient>
					<path class="st22" d="M267.5,32.8c9.1,0,18.1,0,27.2,0c0.8,0,1.6-0.3,2.3,0.3c-1.2,1.3-2.5,2.7-3.7,4
						c-8.6-0.1-17.1-0.1-25.7-0.2C267.3,35.6,267.3,34.2,267.5,32.8z"/>
					<linearGradient id="SVGID_22_" gradientUnits="userSpaceOnUse" x1="267.3538" y1="43.227" x2="289.4519" y2="43.227">
						<stop  offset="0" style="stop-color:#3F7FB5"/>
						<stop  offset="9.961557e-02" style="stop-color:#3B75B0"/>
						<stop  offset="0.393" style="stop-color:#325CA1"/>
						<stop  offset="0.6514" style="stop-color:#2D4997"/>
						<stop  offset="0.8625" style="stop-color:#2B3D92"/>
						<stop  offset="1" style="stop-color:#2B3990"/>
					</linearGradient>
					<path class="st23" d="M267.5,41.1c6.6,0,13.1,0,19.7,0c0.8,0,1.6-0.3,2.3,0.3c-1.2,1.3-2.5,2.7-3.7,4
						c-6.1-0.1-12.2-0.1-18.3-0.2C267.3,43.8,267.3,42.5,267.5,41.1z"/>
					<linearGradient id="SVGID_23_" gradientUnits="userSpaceOnUse" x1="267.3735" y1="51.4603" x2="281.9633" y2="51.4603">
						<stop  offset="0" style="stop-color:#3F7FB5"/>
						<stop  offset="9.961557e-02" style="stop-color:#3B75B0"/>
						<stop  offset="0.393" style="stop-color:#325CA1"/>
						<stop  offset="0.6514" style="stop-color:#2D4997"/>
						<stop  offset="0.8625" style="stop-color:#2B3D92"/>
						<stop  offset="1" style="stop-color:#2B3990"/>
					</linearGradient>
					<path class="st24" d="M267.5,49.4c4.1,0,8.3,0,12.4,0c0.7,0,1.4-0.3,2.1,0.3c-1.2,1.3-2.4,2.6-3.6,3.9c-3.6,0-7.2,0-10.9-0.1
						C267.3,52.1,267.3,50.8,267.5,49.4z"/>
					<linearGradient id="SVGID_24_" gradientUnits="userSpaceOnUse" x1="267.5011" y1="59.7373" x2="274.6241" y2="59.7373">
						<stop  offset="0" style="stop-color:#3F7FB5"/>
						<stop  offset="9.961557e-02" style="stop-color:#3B75B0"/>
						<stop  offset="0.393" style="stop-color:#325CA1"/>
						<stop  offset="0.6514" style="stop-color:#2D4997"/>
						<stop  offset="0.8625" style="stop-color:#2B3D92"/>
						<stop  offset="1" style="stop-color:#2B3990"/>
					</linearGradient>
					<path class="st25" d="M267.5,57.6c2.4,0.1,4.8-0.3,7.1,0.2c-1.2,1.3-2.4,2.7-3.7,4c-1.1,0-2.3,0-3.4,0
						C267.5,60.5,267.5,59,267.5,57.6z"/>
				</g>
			</g>
		</g>
	</g>
	<g>
		<path class="st26" d="M15.8,131.7h10.1v2.1h-7.7v3.6H25v2.1h-6.9v3.7H26v2.1H15.8V131.7z"/>
		<path class="st26" d="M28.8,131.7h2.2l7.3,9.4v-9.4h2.4v13.7h-2l-7.5-9.7v9.7h-2.4V131.7z"/>
		<path class="st26" d="M43.7,138.5L43.7,138.5c0-3.9,2.9-7.1,7-7.1c2.5,0,4,0.9,5.3,2.1l-1.5,1.8c-1.1-1-2.3-1.7-3.8-1.7
			c-2.6,0-4.5,2.1-4.5,4.8v0c0,2.7,1.9,4.9,4.5,4.9c1.7,0,2.8-0.7,3.9-1.8l1.5,1.6c-1.4,1.5-3,2.4-5.5,2.4
			C46.6,145.6,43.7,142.5,43.7,138.5z"/>
		<path class="st26" d="M58.5,139.5v-7.9h2.4v7.8c0,2.5,1.3,3.9,3.5,3.9c2.1,0,3.4-1.3,3.4-3.8v-7.9h2.4v7.8c0,4.1-2.3,6.1-5.9,6.1
			C60.7,145.5,58.5,143.5,58.5,139.5z"/>
		<path class="st26" d="M73.5,131.7h10.1v2.1h-7.7v3.6h6.9v2.1h-6.9v3.7h7.8v2.1H73.5V131.7z"/>
		<path class="st26" d="M86.5,131.7h2.2l7.3,9.4v-9.4h2.4v13.7h-2l-7.5-9.7v9.7h-2.4V131.7z"/>
		<path class="st26" d="M105.3,133.9H101v-2.2h11.1v2.2h-4.3v11.4h-2.4V133.9z"/>
		<path class="st26" d="M114.6,131.7h6.1c1.7,0,3.1,0.5,3.9,1.4c0.7,0.7,1.1,1.8,1.1,2.9v0c0,2.2-1.3,3.6-3.3,4.1l3.7,5.2h-2.8
			l-3.4-4.8h0h-3v4.8h-2.4V131.7z M120.5,138.4c1.7,0,2.8-0.9,2.8-2.3v0c0-1.5-1.1-2.3-2.8-2.3H117v4.6H120.5z"/>
		<path class="st26" d="M128.1,138.5L128.1,138.5c0-3.9,3-7.1,7.2-7.1c4.2,0,7.1,3.2,7.1,7v0c0,3.8-3,7.1-7.2,7.1
			C131.1,145.6,128.1,142.4,128.1,138.5z M139.9,138.5L139.9,138.5c0-2.7-1.9-4.9-4.6-4.9c-2.7,0-4.6,2.2-4.6,4.8v0
			c0,2.7,1.9,4.9,4.6,4.9C138,143.4,139.9,141.2,139.9,138.5z"/>
		<path class="st26" d="M151.2,131.7h6.1c1.7,0,3.1,0.5,3.9,1.4c0.7,0.7,1.1,1.8,1.1,2.9v0c0,2.2-1.3,3.6-3.3,4.1l3.7,5.2H160
			l-3.4-4.8h0h-3v4.8h-2.4V131.7z M157.1,138.4c1.7,0,2.8-0.9,2.8-2.3v0c0-1.5-1.1-2.3-2.8-2.3h-3.5v4.6H157.1z"/>
		<path class="st26" d="M165.3,131.7h10.1v2.1h-7.7v3.6h6.9v2.1h-6.9v3.7h7.8v2.1h-10.2V131.7z"/>
		<path class="st26" d="M177.8,138.5L177.8,138.5c0-3.9,2.9-7.1,7-7.1c2.4,0,3.8,0.7,5.3,1.9l-1.5,1.8c-1.1-0.9-2.1-1.5-3.8-1.5
			c-2.5,0-4.4,2.2-4.4,4.8v0c0,2.8,1.9,4.9,4.6,4.9c1.3,0,2.5-0.4,3.3-1v-2.6h-3.5v-2.1h5.8v5.7c-1.3,1.2-3.3,2.1-5.7,2.1
			C180.6,145.6,177.8,142.5,177.8,138.5z"/>
		<path class="st26" d="M193.8,131.7h2.4v13.7h-2.4V131.7z"/>
		<path class="st26" d="M199.3,138.5L199.3,138.5c0-3.9,3-7.1,7.2-7.1c4.2,0,7.1,3.2,7.1,7v0c0,3.8-3,7.1-7.2,7.1
			C202.2,145.6,199.3,142.4,199.3,138.5z M211.1,138.5L211.1,138.5c0-2.7-1.9-4.9-4.6-4.9c-2.7,0-4.6,2.2-4.6,4.8v0
			c0,2.7,1.9,4.9,4.6,4.9C209.2,143.4,211.1,141.2,211.1,138.5z"/>
		<path class="st26" d="M216.5,131.7h2.2l7.3,9.4v-9.4h2.4v13.7h-2l-7.5-9.7v9.7h-2.4V131.7z"/>
		<path class="st26" d="M236.8,131.6h2.2l6,13.8h-2.5l-1.4-3.3h-6.5l-1.4,3.3h-2.5L236.8,131.6z M240.2,139.9l-2.4-5.5l-2.3,5.5
			H240.2z"/>
		<path class="st26" d="M247.4,131.7h2.4v11.5h7.2v2.2h-9.6V131.7z"/>
		<path class="st26" d="M71.7,153h5.1c4.3,0,7.3,2.9,7.3,6.8v0c0,3.8-3,6.8-7.3,6.8h-5.1V153z M76.8,164.4c2.9,0,4.7-1.9,4.7-4.6v0
			c0-2.7-1.9-4.6-4.7-4.6h-2.7v9.3H76.8z"/>
		<path class="st26" d="M87,153h10.1v2.1h-7.7v3.6h6.9v2.1h-6.9v3.7h7.8v2.1H87V153z"/>
		<path class="st26" d="M105.9,153h2.4v11.5h7.2v2.2h-9.6V153z"/>
		<path class="st26" d="M122.8,152.9h2.2l6,13.8h-2.5l-1.4-3.3h-6.5l-1.4,3.3h-2.5L122.8,152.9z M126.3,161.2l-2.4-5.5l-2.3,5.5
			H126.3z"/>
		<path class="st26" d="M132.3,164.6l1.4-1.7c1.3,1.1,2.6,1.8,4.3,1.8c1.5,0,2.4-0.7,2.4-1.7v0c0-1-0.5-1.5-3.1-2.1
			c-2.9-0.7-4.5-1.6-4.5-4.1v0c0-2.3,2-4,4.7-4c2,0,3.6,0.6,5,1.7l-1.3,1.8c-1.2-0.9-2.5-1.4-3.7-1.4c-1.4,0-2.2,0.7-2.2,1.6v0
			c0,1.1,0.6,1.5,3.2,2.1c2.9,0.7,4.4,1.7,4.4,4v0c0,2.6-2,4.1-4.9,4.1C135.9,166.8,133.9,166.1,132.3,164.6z"/>
		<path class="st26" d="M156.4,152.9h2.2l6,13.8h-2.5l-1.4-3.3h-6.5l-1.4,3.3h-2.5L156.4,152.9z M159.8,161.2l-2.4-5.5l-2.3,5.5
			H159.8z"/>
		<path class="st26" d="M167,153h2.6l4.2,6.5l4.2-6.5h2.6v13.7H178v-9.8l-4.3,6.4h-0.1l-4.3-6.4v9.8H167V153z"/>
		<path class="st26" d="M183.9,153h10.1v2.1h-7.7v3.6h6.9v2.1h-6.9v3.7h7.8v2.1h-10.2V153z M189.6,148.6l2.1,1l-2.4,2.2h-1.8
			L189.6,148.6z"/>
		<path class="st26" d="M197,153h6.1c1.7,0,3.1,0.5,3.9,1.4c0.7,0.7,1.1,1.8,1.1,2.9v0c0,2.2-1.3,3.6-3.3,4.1l3.7,5.2h-2.8l-3.4-4.8
			h0h-3v4.8H197V153z M202.9,159.7c1.7,0,2.8-0.9,2.8-2.3v0c0-1.5-1.1-2.3-2.8-2.3h-3.5v4.6H202.9z"/>
		<path class="st26" d="M211.3,153h2.4v13.7h-2.4V153z"/>
		<path class="st26" d="M216.7,159.8L216.7,159.8c0-3.9,2.9-7.1,7-7.1c2.5,0,4,0.9,5.3,2.1l-1.5,1.8c-1.1-1-2.3-1.7-3.8-1.7
			c-2.6,0-4.5,2.1-4.5,4.8v0c0,2.7,1.9,4.9,4.5,4.9c1.7,0,2.8-0.7,3.9-1.8l1.5,1.6c-1.4,1.5-3,2.4-5.5,2.4
			C219.7,166.9,216.7,163.8,216.7,159.8z"/>
		<path class="st26" d="M236.6,152.9h2.2l6,13.8h-2.5l-1.4-3.3h-6.5l-1.4,3.3h-2.5L236.6,152.9z M240,161.2l-2.4-5.5l-2.3,5.5H240z"
			/>
		<path class="st26" d="M246,164.6l1.4-1.7c1.3,1.1,2.6,1.8,4.3,1.8c1.5,0,2.4-0.7,2.4-1.7v0c0-1-0.5-1.5-3.1-2.1
			c-2.9-0.7-4.5-1.6-4.5-4.1v0c0-2.3,2-4,4.7-4c2,0,3.6,0.6,5,1.7l-1.3,1.8c-1.2-0.9-2.5-1.4-3.7-1.4c-1.4,0-2.2,0.7-2.2,1.6v0
			c0,1.1,0.6,1.5,3.2,2.1c2.9,0.7,4.4,1.7,4.4,4v0c0,2.6-2,4.1-4.9,4.1C249.6,166.8,247.7,166.1,246,164.6z"/>
		<path class="st26" d="M4.6,174.3h5.1c4.3,0,7.3,2.9,7.3,6.8v0c0,3.8-3,6.8-7.3,6.8H4.6V174.3z M9.7,185.7c2.9,0,4.7-1.9,4.7-4.6v0
			c0-2.7-1.9-4.6-4.7-4.6H7v9.3H9.7z"/>
		<path class="st26" d="M19.9,174.3H30v2.1h-7.7v3.6h6.9v2.1h-6.9v3.7h7.8v2.1H19.9V174.3z"/>
		<path class="st26" d="M38.8,174.3h2.4v11.5h7.2v2.2h-9.6V174.3z"/>
		<path class="st26" d="M55.8,174.2H58l6,13.8h-2.5l-1.4-3.3h-6.5l-1.4,3.3h-2.5L55.8,174.2z M59.2,182.5l-2.4-5.5l-2.3,5.5H59.2z"
			/>
		<path class="st26" d="M77.1,174.2h2.2l6,13.8h-2.5l-1.4-3.3h-6.5l-1.4,3.3H71L77.1,174.2z M80.5,182.5l-2.4-5.5l-2.3,5.5H80.5z"/>
		<path class="st26" d="M87.6,174.3H90v11.5h7.2v2.2h-9.6V174.3z"/>
		<path class="st26" d="M99.9,174.3h2.4v13.7h-2.4V174.3z"/>
		<path class="st26" d="M110.8,174.2h2.2l6,13.8h-2.5l-1.4-3.3h-6.5l-1.4,3.3h-2.5L110.8,174.2z M114.2,182.5l-2.4-5.5l-2.3,5.5
			H114.2z"/>
		<path class="st26" d="M121.3,174.3h2.2l7.3,9.4v-9.4h2.4v13.7h-2l-7.5-9.7v9.7h-2.4V174.3z"/>
		<path class="st26" d="M136.3,186.2l8.1-9.8h-7.8v-2.1h10.9v1.8l-8.1,9.8h8.1v2.1h-11.2V186.2z"/>
		<path class="st26" d="M155.3,174.2h2.2l6,13.8H161l-1.4-3.3h-6.5l-1.4,3.3h-2.5L155.3,174.2z M158.8,182.5l-2.4-5.5l-2.3,5.5
			H158.8z"/>
		<path class="st26" d="M171.8,174.3h5.4c3.2,0,5.2,1.8,5.2,4.6v0c0,3.1-2.5,4.7-5.5,4.7h-2.7v4.4h-2.4V174.3z M177,181.4
			c1.8,0,2.9-1,2.9-2.4v0c0-1.6-1.2-2.4-2.9-2.4h-2.8v4.9H177z"/>
		<path class="st26" d="M188.3,174.2h2.2l6,13.8H194l-1.4-3.3h-6.5l-1.4,3.3h-2.5L188.3,174.2z M191.7,182.5l-2.4-5.5l-2.3,5.5
			H191.7z"/>
		<path class="st26" d="M198.9,174.3h6.1c1.7,0,3.1,0.5,3.9,1.4c0.7,0.7,1.1,1.8,1.1,2.9v0c0,2.2-1.3,3.6-3.3,4.1l3.7,5.2h-2.8
			l-3.4-4.8h0h-3v4.8h-2.4V174.3z M204.8,181c1.7,0,2.8-0.9,2.8-2.3v0c0-1.5-1.1-2.3-2.8-2.3h-3.5v4.6H204.8z"/>
		<path class="st26" d="M217.8,174.2h2.2l6,13.8h-2.5l-1.4-3.3h-6.5l-1.4,3.3h-2.5L217.8,174.2z M221.3,182.5l-2.4-5.5l-2.3,5.5
			H221.3z"/>
		<path class="st26" d="M234.3,174.3h10.1v2.1h-7.7v3.6h6.9v2.1h-6.9v3.7h7.8v2.1h-10.2V174.3z"/>
		<path class="st26" d="M247.4,174.3h2.4v11.5h7.2v2.2h-9.6V174.3z"/>
		<path class="st26" d="M50.2,202.4L50.2,202.4c0-3.9,2.9-7.1,7-7.1c2.4,0,3.8,0.7,5.3,1.9L61,199c-1.1-0.9-2.1-1.5-3.8-1.5
			c-2.5,0-4.4,2.2-4.4,4.8v0c0,2.8,1.9,4.9,4.6,4.9c1.3,0,2.5-0.4,3.3-1v-2.6h-3.5v-2.1H63v5.7c-1.3,1.2-3.3,2.1-5.7,2.1
			C53,209.5,50.2,206.4,50.2,202.4z"/>
		<path class="st26" d="M65.5,202.4L65.5,202.4c0-3.9,3-7.1,7.2-7.1c4.2,0,7.1,3.2,7.1,7v0c0,3.8-3,7.1-7.2,7.1
			C68.4,209.5,65.5,206.3,65.5,202.4z M77.3,202.4L77.3,202.4c0-2.7-1.9-4.9-4.6-4.9c-2.7,0-4.6,2.2-4.6,4.8v0
			c0,2.7,1.9,4.9,4.6,4.9C75.4,207.3,77.3,205.1,77.3,202.4z"/>
		<path class="st26" d="M82.7,195.6h6.1c1.6,0,2.8,0.4,3.6,1.2c0.6,0.6,0.9,1.3,0.9,2.3v0c0,1.6-0.9,2.5-2,3
			c1.6,0.5,2.7,1.5,2.7,3.3v0c0,2.4-2,3.7-5.1,3.7h-6.3V195.6z M88.3,201.3c1.5,0,2.6-0.6,2.6-1.9v0c0-1.1-0.9-1.7-2.4-1.7h-3.5v3.6
			H88.3z M89,207.1c1.6,0,2.6-0.6,2.6-1.9v0c0-1.2-0.9-1.8-2.8-1.8h-3.8v3.7H89z"/>
		<path class="st26" d="M96.9,195.6h2.4v13.7h-2.4V195.6z"/>
		<path class="st26" d="M103,195.6h10.1v2.1h-7.7v3.6h6.9v2.1h-6.9v3.7h7.8v2.1H103V195.6z"/>
		<path class="st26" d="M116.1,195.6h6.1c1.7,0,3.1,0.5,3.9,1.4c0.7,0.7,1.1,1.8,1.1,2.9v0c0,2.2-1.3,3.6-3.3,4.1l3.7,5.2h-2.8
			l-3.4-4.8h0h-3v4.8h-2.4V195.6z M122,202.3c1.7,0,2.8-0.9,2.8-2.3v0c0-1.5-1.1-2.3-2.8-2.3h-3.5v4.6H122z"/>
		<path class="st26" d="M130.2,195.6h2.2l7.3,9.4v-9.4h2.4v13.7h-2l-7.5-9.7v9.7h-2.4V195.6z"/>
		<path class="st26" d="M145,202.4L145,202.4c0-3.9,3-7.1,7.2-7.1c4.2,0,7.1,3.2,7.1,7v0c0,3.8-3,7.1-7.2,7.1
			C147.9,209.5,145,206.3,145,202.4z M156.8,202.4L156.8,202.4c0-2.7-1.9-4.9-4.6-4.9c-2.7,0-4.6,2.2-4.6,4.8v0
			c0,2.7,1.9,4.9,4.6,4.9C154.9,207.3,156.8,205.1,156.8,202.4z"/>
		<path class="st26" d="M172.9,195.5h2.2l6,13.8h-2.5l-1.4-3.3h-6.5l-1.4,3.3h-2.5L172.9,195.5z M176.4,203.8l-2.4-5.5l-2.3,5.5
			H176.4z"/>
		<path class="st26" d="M183.5,195.6h6.1c1.6,0,2.8,0.4,3.6,1.2c0.6,0.6,0.9,1.3,0.9,2.3v0c0,1.6-0.9,2.5-2,3
			c1.6,0.5,2.7,1.5,2.7,3.3v0c0,2.4-2,3.7-5.1,3.7h-6.3V195.6z M189.1,201.3c1.5,0,2.6-0.6,2.6-1.9v0c0-1.1-0.9-1.7-2.4-1.7h-3.5
			v3.6H189.1z M189.8,207.1c1.6,0,2.6-0.6,2.6-1.9v0c0-1.2-0.9-1.8-2.8-1.8h-3.8v3.7H189.8z"/>
		<path class="st26" d="M197.7,195.6h2.4v13.7h-2.4V195.6z"/>
		<path class="st26" d="M203.8,195.6h10.1v2.1h-7.7v3.6h6.9v2.1h-6.9v3.7h7.8v2.1h-10.2V195.6z"/>
		<path class="st26" d="M216.9,195.6h6.1c1.7,0,3.1,0.5,3.9,1.4c0.7,0.7,1.1,1.8,1.1,2.9v0c0,2.2-1.3,3.6-3.3,4.1l3.7,5.2h-2.8
			l-3.4-4.8h0h-3v4.8h-2.4V195.6z M222.8,202.3c1.7,0,2.8-0.9,2.8-2.3v0c0-1.5-1.1-2.3-2.8-2.3h-3.5v4.6H222.8z"/>
		<path class="st26" d="M234.3,197.8H230v-2.2H241v2.2h-4.3v11.4h-2.4V197.8z"/>
		<path class="st26" d="M242.2,202.4L242.2,202.4c0-3.9,3-7.1,7.2-7.1c4.2,0,7.1,3.2,7.1,7v0c0,3.8-3,7.1-7.2,7.1
			C245.2,209.5,242.2,206.3,242.2,202.4z M254,202.4L254,202.4c0-2.7-1.9-4.9-4.6-4.9c-2.7,0-4.6,2.2-4.6,4.8v0
			c0,2.7,1.9,4.9,4.6,4.9C252.1,207.3,254,205.1,254,202.4z"/>
	</g>
</g>
</svg>
