<?xml version="1.0" encoding="utf-8"?>
<!-- Generator: Adobe Illustrator 19.1.0, SVG Export Plug-In . SVG Version: 6.00 Build 0)  -->
<svg version="1.1" id="Capa_1" xmlns="http://www.w3.org/2000/svg" xmlns:xlink="http://www.w3.org/1999/xlink" x="0px" y="0px"
	 viewBox="0 0 176.6 249.5" style="enable-background:new 0 0 176.6 249.5;" xml:space="preserve">
<style type="text/css">
	.st0{clip-path:url(#SVGID_2_);}
	.st1{fill:#3F7FB5;}
	.st2{fill:url(#SVGID_3_);}
	.st3{fill:#2B3990;}
	.st4{fill:url(#SVGID_4_);}
	.st5{fill:#FFF200;}
	.st6{fill:url(#SVGID_5_);}
	.st7{fill:url(#SVGID_6_);}
	.st8{fill:url(#SVGID_7_);}
	.st9{fill:url(#SVGID_8_);}
	.st10{fill:url(#SVGID_9_);}
	.st11{fill:url(#SVGID_10_);}
	.st12{fill:url(#SVGID_11_);}
	.st13{fill:url(#SVGID_12_);}
	.st14{fill:#AAA9A9;}
	.st15{fill:url(#SVGID_13_);}
	.st16{fill:url(#SVGID_14_);}
	.st17{fill:url(#SVGID_15_);}
	.st18{clip-path:url(#SVGID_17_);}
	.st19{fill:url(#SVGID_18_);}
	.st20{fill:url(#SVGID_19_);}
	.st21{fill:url(#SVGID_20_);}
	.st22{fill:url(#SVGID_21_);}
	.st23{fill:url(#SVGID_22_);}
	.st24{fill:url(#SVGID_23_);}
	.st25{fill:url(#SVGID_24_);}
	.st26{fill:#5DBFDD;}
</style>
<g>
	<g>
		<defs>
			<path id="SVGID_1_" d="M174.2,62.6c0-2.1-0.7-2.7-2.9-2.7c-14.4,0.1-149.8,0-167.6,0c-0.8,0-1.7-0.3-2.4,0.5L0.8,182.2
				c0.2,0-0.6,0-0.4,0.1c3.4,0,28.3,0,58.2,0c0,0.1-0.1,0.2-0.1,0.3c0,3.8,0.1,7.7,0.1,11.5c0,16.4,0.1,32.7,0.1,49.1
				c9.2-9.7,18.5-19.3,27.7-29c10-10.4,19.9-20.8,29.9-31.2c0.1-0.2,0.2-0.5,0.3-0.7c28.2,0,49.5,0,54.9,0.1c2,0,2.5-0.5,2.5-2.5
				C173.9,140.7,174.1,101.7,174.2,62.6z"/>
		</defs>
		<use xlink:href="#SVGID_1_"  style="overflow:visible;fill:#5CBFDD;"/>
		<clipPath id="SVGID_2_">
			<use xlink:href="#SVGID_1_"  style="overflow:visible;"/>
		</clipPath>
		<g class="st0">
			<path class="st1" d="M59,121L59,121c0.9,0,1.9,0,2.8,0c18.5,0,36.9,0,55.4,0c0,0.1-0.1,0.2,0,0.4c-18.9,19.8-37.7,39.6-56.6,59.4
				c-0.6,0.6-1.2,1.2-1.8,1.8c-3.3,0-6.7-0.1-10,0c-1.2,0-1.6-0.3-1.6-1.5c0-19.5,0-39,0-58.6c0-1.2,0.3-1.6,1.5-1.5
				C52.1,121,55.6,121,59,121z"/>
			<path class="st1" d="M12,182.5c-3.3,0-6.7,0-10,0.1c-1.2,0-1.7-0.2-1.7-1.6c0-19.5,0-39,0-58.5c0-1.2,0.3-1.6,1.5-1.6
				c3.4,0.1,6.8,0.1,10.2,0.1C12.1,141.5,12,162,12,182.5z"/>
			<linearGradient id="SVGID_3_" gradientUnits="userSpaceOnUse" x1="23.7481" y1="151.7907" x2="35.3896" y2="151.7907">
				<stop  offset="0" style="stop-color:#3F7FB5"/>
				<stop  offset="9.961557e-02" style="stop-color:#3B75B0"/>
				<stop  offset="0.393" style="stop-color:#325CA1"/>
				<stop  offset="0.6514" style="stop-color:#2D4997"/>
				<stop  offset="0.8625" style="stop-color:#2B3D92"/>
				<stop  offset="1" style="stop-color:#2B3990"/>
			</linearGradient>
			<path class="st2" d="M35.4,182.6c-3.9,0-7.7,0-11.6,0c0-20.5,0-41,0-61.5c3.9,0,7.8,0,11.6,0C35.4,141.5,35.4,162,35.4,182.6z"/>
			<path class="st3" d="M58.6,121c0,20.5,0,41,0,61.5c-3.9,0-7.8,0-11.7,0c0-20.5,0-41,0-61.5C50.9,121,54.7,121,58.6,121z"/>
			<linearGradient id="SVGID_4_" gradientUnits="userSpaceOnUse" x1="0.7547" y1="151.7874" x2="58.7169" y2="151.7874">
				<stop  offset="0" style="stop-color:#2B3990"/>
				<stop  offset="1" style="stop-color:#1C2169"/>
			</linearGradient>
			<polygon class="st4" points="58.7,121 0.8,182.5 0.9,121 			"/>
			<path class="st5" d="M23.7,121c0,20.5,0,41,0,61.5c-3.9,0-7.8,0-11.7,0c0-20.5,0-41,0-61.5C16,121,19.9,121,23.7,121z"/>
			<path class="st5" d="M35.4,182.6c0-20.5,0-41,0-61.5c3.3,0,6.5,0,9.8-0.1c1.4,0,1.9,0.4,1.9,1.8c0,19.4,0,38.7,0,58.1
				c0,1.5-0.6,1.8-1.9,1.8C41.9,182.5,38.6,182.6,35.4,182.6z"/>
			<linearGradient id="SVGID_5_" gradientUnits="userSpaceOnUse" x1="58.7046" y1="244.0374" x2="175.606" y2="244.0374">
				<stop  offset="2.543049e-02" style="stop-color:#FFF200"/>
				<stop  offset="1" style="stop-color:#FFC709"/>
			</linearGradient>
			<path class="st6" d="M175.6,243.9c-0.8,0.1-1.6,0.2-2.5,0.2c-17.9,0-35.7,0-53.6,0c-0.8,0-1.7-0.3-2.4,0.4
				c-0.4,0.4-0.8,0.7-1.2,1.1c-9.4,9.8-18.7,19.7-28.1,29.5c-9.6,10.1-19.2,20.1-28.8,30.1c-0.6-0.7-0.3-1.6-0.3-2.4
				c0-19.5,0-39.1,0-58.6c0.6-0.6,1.2-1.2,1.8-1.8c18.9-19.8,37.7-39.6,56.6-59.4l0.2,0l0.2-0.1c0.2,0.2,0.5,0.4,0.7,0.6
				C137.3,203.6,156.5,223.8,175.6,243.9z"/>
			<linearGradient id="SVGID_6_" gradientUnits="userSpaceOnUse" x1="146.6466" y1="182.1082" x2="146.6466" y2="59.6327">
				<stop  offset="0" style="stop-color:#3F7FB5"/>
				<stop  offset="0.2137" style="stop-color:#3E7EB4"/>
				<stop  offset="0.3858" style="stop-color:#3C78B1"/>
				<stop  offset="0.5435" style="stop-color:#396FAC"/>
				<stop  offset="0.6924" style="stop-color:#3463A5"/>
				<stop  offset="0.8354" style="stop-color:#2F529C"/>
				<stop  offset="0.972" style="stop-color:#2B3E92"/>
				<stop  offset="1" style="stop-color:#2B3990"/>
			</linearGradient>
			<path class="st7" d="M117.5,59.6l58,0c0,0-18.4,20-27.6,29.6c-1.2,1.2-0.9,1.8,0.1,2.8c5.2,5.3,10.3,10.7,15.4,16.1
				c4.1,4.3,8.2,8.5,12.3,12.7c0,0.1,0.1,0.2,0.2,0.2c-0.1,0.2-0.1,0.3-0.2,0.5c-0.5,0.5-1.1,1-1.6,1.6
				c-14.6,15.3-29.2,30.7-43.9,46c-4.2,4.4-8.2,8.9-12.6,13l0,0c-0.1-0.9-0.2-1.8-0.2-2.7c0-19.4,0-38.8-0.1-58.2
				c9.4-9.8,18.7-19.6,28.1-29.4c0.9-0.9,0.9-1.4,0-2.4C136.1,79.7,117.5,59.6,117.5,59.6z"/>
			<linearGradient id="SVGID_7_" gradientUnits="userSpaceOnUse" x1="58.7477" y1="151.7513" x2="175.9501" y2="151.7513">
				<stop  offset="0" style="stop-color:#3F7FB5"/>
				<stop  offset="9.961557e-02" style="stop-color:#3B75B0"/>
				<stop  offset="0.393" style="stop-color:#325CA1"/>
				<stop  offset="0.6514" style="stop-color:#2D4997"/>
				<stop  offset="0.8625" style="stop-color:#2B3D92"/>
				<stop  offset="1" style="stop-color:#2B3990"/>
			</linearGradient>
			<path class="st8" d="M58.7,182.1c0-11.9,0.1-23.8,0.1-35.7c0-8.4,0-16.8,0.1-25.3c9,0,18-0.1,27-0.1c10.5,0,20.9,0,31.4,0
				c0,0,58.6,0,58.6,0l-58.4,61.1c0,0-19.2-19.5-28.1-29c-0.8-0.8-1.3-1.4-2.4-0.2c-9.3,9.9-18.6,19.7-28,29.6l0,0
				C58.9,182.4,58.8,182.2,58.7,182.1z"/>
			<path class="st1" d="M59,182.5L59,182.5c0.9,0,1.9,0,2.8,0c18.5,0,36.9,0,55.4,0c0,0.1-0.1,0.2,0,0.4
				c-18.9,19.8-37.7,39.6-56.6,59.4c-0.6,0.6-1.2,1.2-1.8,1.8c-3.3,0-6.7-0.1-10,0c-1.2,0-1.6-0.3-1.6-1.5c0-19.5,0-39,0-58.6
				c0-1.2,0.3-1.6,1.5-1.5C52.1,182.6,55.6,182.5,59,182.5z"/>
			<linearGradient id="SVGID_8_" gradientUnits="userSpaceOnUse" x1="175.8979" y1="151.6032" x2="234.2464" y2="151.6032">
				<stop  offset="0" style="stop-color:#FFC709"/>
				<stop  offset="0.9746" style="stop-color:#FFF200"/>
			</linearGradient>
			<path class="st9" d="M175.9,120.9c19.4,0,58.3,0.1,58.3,0.1s-49,51.7-58.3,61.4C175.9,165.9,175.9,121,175.9,120.9z"/>
			<linearGradient id="SVGID_9_" gradientUnits="userSpaceOnUse" x1="117.5954" y1="213.0166" x2="175.9438" y2="213.0166">
				<stop  offset="0" style="stop-color:#FFC709"/>
				<stop  offset="0.9746" style="stop-color:#FFF200"/>
			</linearGradient>
			<path class="st10" d="M117.6,182.3c19.4,0,58.3,0.1,58.3,0.1s-49,51.7-58.3,61.4C117.6,227.3,117.6,182.4,117.6,182.3z"/>
			<path class="st1" d="M12,244.1c-3.3,0-6.7,0-10,0.1c-1.2,0-1.7-0.2-1.7-1.6c0-19.5,0-39,0-58.5c0-1.2,0.3-1.6,1.5-1.6
				c3.4,0.1,6.8,0.1,10.2,0.1C12.1,203.1,12,223.6,12,244.1z"/>
			<linearGradient id="SVGID_10_" gradientUnits="userSpaceOnUse" x1="23.7481" y1="213.3219" x2="35.3896" y2="213.3219">
				<stop  offset="0" style="stop-color:#3F7FB5"/>
				<stop  offset="9.961557e-02" style="stop-color:#3B75B0"/>
				<stop  offset="0.393" style="stop-color:#325CA1"/>
				<stop  offset="0.6514" style="stop-color:#2D4997"/>
				<stop  offset="0.8625" style="stop-color:#2B3D92"/>
				<stop  offset="1" style="stop-color:#2B3990"/>
			</linearGradient>
			<path class="st11" d="M35.4,244.1c-3.9,0-7.7,0-11.6,0c0-20.5,0-41,0-61.5c3.9,0,7.8,0,11.6,0C35.4,203.1,35.4,223.6,35.4,244.1z
				"/>
			<path class="st3" d="M58.6,182.6c0,20.5,0,41,0,61.5c-3.9,0-7.8,0-11.7,0c0-20.5,0-41,0-61.5C50.9,182.6,54.7,182.6,58.6,182.6z"
				/>
			<linearGradient id="SVGID_11_" gradientUnits="userSpaceOnUse" x1="0.7547" y1="213.3186" x2="58.7169" y2="213.3186">
				<stop  offset="0" style="stop-color:#2B3990"/>
				<stop  offset="1" style="stop-color:#1C2169"/>
			</linearGradient>
			<polygon class="st12" points="58.7,182.6 0.8,244.1 0.9,182.6 			"/>
			<linearGradient id="SVGID_12_" gradientUnits="userSpaceOnUse" x1="117.4961" y1="213.1828" x2="176.0431" y2="213.1828">
				<stop  offset="0" style="stop-color:#3F7FB5"/>
				<stop  offset="9.961557e-02" style="stop-color:#3B75B0"/>
				<stop  offset="0.393" style="stop-color:#325CA1"/>
				<stop  offset="0.6514" style="stop-color:#2D4997"/>
				<stop  offset="0.8625" style="stop-color:#2B3D92"/>
				<stop  offset="1" style="stop-color:#2B3990"/>
			</linearGradient>
			<path class="st13" d="M176,197c0,1.8,0,3.6,0,5.4c0,1.7,0,3.3,0,5c0,1.8,0,3.7,0,5.5c0,0.3,0,0.5,0,0.8c0,1.8,0,3.7,0,5.5
				c0,1.7,0,3.3,0,5c0,1.8,0,3.7,0,5.5c0,0.3,0,0.5,0,0.8c0,1.8,0,3.7,0,5.5c0,1.7,0,3.3,0,5c0,0.9,0,1.8,0,2.7
				c-0.1,0.1-0.2,0.1-0.4,0.2c-19.1-20.1-38.3-40.3-57.4-60.4c-0.2-0.2-0.5-0.4-0.7-0.6c0.1-0.1,0.1-0.3,0.2-0.4
				c19.4,0,38.9,0,58.3,0c0,1,0,2.1,0,3.1c0,1.7,0,3.4,0,5c0,1.8,0,3.6,0,5.5C176,196.4,176,196.7,176,197z"/>
			<path class="st14" d="M117.7,182.5c-0.1,0.1-0.1,0.3-0.2,0.4c0,0-0.2,0.1-0.2,0.1l-0.2,0c0-0.1,0-0.2,0-0.4
				c-0.1-0.1-0.1-0.3,0.1-0.3c0.1-0.1,0.2-0.2,0.4-0.1l0,0C117.6,182.2,117.6,182.4,117.7,182.5z"/>
			<path class="st3" d="M117.5,182.5c-0.1-0.1-0.1-0.2-0.1-0.4c4.5-4.1,8.5-8.7,12.7-13.1c14.7-15.4,29.4-30.8,44-46.3
				c0.5-0.5,1.3-1.3,1.8-1.9c0,3.9-0.1,8.1-0.1,11.9c0,16.5,0.1,33,0.1,49.5l0,0.2C156.5,182.5,137,182.5,117.5,182.5z"/>
			<linearGradient id="SVGID_13_" gradientUnits="userSpaceOnUse" x1="59.0018" y1="167.3951" x2="117.1996" y2="167.3951">
				<stop  offset="2.543049e-02" style="stop-color:#FFF200"/>
				<stop  offset="1" style="stop-color:#FFC709"/>
			</linearGradient>
			<path class="st15" d="M117.2,182.2c-0.1,0.1-0.2,0.2-0.1,0.3c-18.5,0-36.9,0-55.4,0c-0.9,0-1.8,0-2.7-0.1
				c9.3-9.8,18.7-19.7,28-29.6c1.1-1.2,1.7-0.6,2.4,0.2c9,9.5,18,18.9,27,28.3C116.6,181.7,116.9,182,117.2,182.2z"/>
			<linearGradient id="SVGID_14_" gradientUnits="userSpaceOnUse" x1="0.2529" y1="90.3717" x2="58.8848" y2="90.3717">
				<stop  offset="0" style="stop-color:#3F7FB5"/>
				<stop  offset="9.961557e-02" style="stop-color:#3B75B0"/>
				<stop  offset="0.393" style="stop-color:#325CA1"/>
				<stop  offset="0.6514" style="stop-color:#2D4997"/>
				<stop  offset="0.8625" style="stop-color:#2B3D92"/>
				<stop  offset="1" style="stop-color:#2B3990"/>
			</linearGradient>
			<rect x="0.3" y="59.4" class="st16" width="58.6" height="62"/>
			<path class="st5" d="M23.7,182.6c0,20.5,0,41,0,61.5c-3.9,0-7.8,0-11.7,0c0-20.5,0-41,0-61.5C16,182.6,19.9,182.6,23.7,182.6z"/>
			<path class="st5" d="M35.4,244.1c0-20.5,0-41,0-61.5c3.3,0,6.5,0,9.8-0.1c1.4,0,1.9,0.4,1.9,1.8c0,19.4,0,38.7,0,58.1
				c0,1.5-0.6,1.8-1.9,1.8C41.9,244.1,38.6,244.1,35.4,244.1z"/>
			<linearGradient id="SVGID_15_" gradientUnits="userSpaceOnUse" x1="147.1427" y1="90.3181" x2="175.9859" y2="90.3181">
				<stop  offset="0" style="stop-color:#FFC709"/>
				<stop  offset="0.9746" style="stop-color:#FFF200"/>
			</linearGradient>
			<path class="st17" d="M176,121c0,0-8.5-8.8-12.5-13.1c-5.1-5.4-10.2-10.8-15.4-16.2c-1-1-1.3-1.6-0.1-2.8
				c9.3-9.7,18.4-19.4,27.6-29.1c0.1,0,0.2,0,0.2-0.1"/>
			<g>
				<defs>
					<path id="SVGID_16_" d="M58.6,59.4c0.1-0.2,0.1-0.3,0.2-0.5c19.4,0,38.9,0,58.3,0.1c-0.1,0.3-0.3,0.6-0.4,0.9
						c-10,10.5-20,20.9-30,31.4c-9.3,9.7-18.6,19.4-27.8,29.1c0-16.5-0.1-32.9-0.1-49.4C58.7,67.2,58.6,63.3,58.6,59.4z"/>
				</defs>
				<clipPath id="SVGID_17_">
					<use xlink:href="#SVGID_16_"  style="overflow:visible;"/>
				</clipPath>
				<g class="st18">
					<linearGradient id="SVGID_18_" gradientUnits="userSpaceOnUse" x1="58.6722" y1="61.9973" x2="117.4194" y2="61.9973">
						<stop  offset="0" style="stop-color:#3F7FB5"/>
						<stop  offset="9.961557e-02" style="stop-color:#3B75B0"/>
						<stop  offset="0.393" style="stop-color:#325CA1"/>
						<stop  offset="0.6514" style="stop-color:#2D4997"/>
						<stop  offset="0.8625" style="stop-color:#2B3D92"/>
						<stop  offset="1" style="stop-color:#2B3990"/>
					</linearGradient>
					<path class="st19" d="M113.6,64.4c-12.9,0-25.8-0.1-38.7-0.1c-5.3,0-10.7,0-16,0c-0.2-1.5-0.2-3.1,0-4.6c18.7,0,37.4,0,56.1,0
						c0.8,0,1.8-0.4,2.5,0.6C116.1,61.6,114.9,63,113.6,64.4z"/>
					<linearGradient id="SVGID_19_" gradientUnits="userSpaceOnUse" x1="58.6519" y1="71.4204" x2="109.0371" y2="71.4204">
						<stop  offset="0" style="stop-color:#3F7FB5"/>
						<stop  offset="9.961557e-02" style="stop-color:#3B75B0"/>
						<stop  offset="0.393" style="stop-color:#325CA1"/>
						<stop  offset="0.6514" style="stop-color:#2D4997"/>
						<stop  offset="0.8625" style="stop-color:#2B3D92"/>
						<stop  offset="1" style="stop-color:#2B3990"/>
					</linearGradient>
					<path class="st20" d="M105.1,73.8c-15.4,0-30.9-0.1-46.3-0.1c-0.2-1.5-0.2-3.1,0-4.6c15.9,0,31.9,0,47.8,0
						c0.8,0,1.6,0.1,2.4,0.2C107.7,70.8,106.4,72.3,105.1,73.8z"/>
					<linearGradient id="SVGID_20_" gradientUnits="userSpaceOnUse" x1="58.6519" y1="80.7621" x2="100.565" y2="80.7621">
						<stop  offset="0" style="stop-color:#3F7FB5"/>
						<stop  offset="9.961557e-02" style="stop-color:#3B75B0"/>
						<stop  offset="0.393" style="stop-color:#325CA1"/>
						<stop  offset="0.6514" style="stop-color:#2D4997"/>
						<stop  offset="0.8625" style="stop-color:#2B3D92"/>
						<stop  offset="1" style="stop-color:#2B3990"/>
					</linearGradient>
					<path class="st21" d="M96.4,83.1c-12.5,0-25.1,0-37.6-0.1c-0.2-1.5-0.2-3.1,0-4.6c13.7,0,27.4,0,41.1-0.1
						c0.2,0,0.4,0.2,0.6,0.3C99.3,80.3,98,81.9,96.4,83.1z"/>
					<linearGradient id="SVGID_21_" gradientUnits="userSpaceOnUse" x1="58.672" y1="90.0937" x2="92.1777" y2="90.0937">
						<stop  offset="0" style="stop-color:#3F7FB5"/>
						<stop  offset="9.961557e-02" style="stop-color:#3B75B0"/>
						<stop  offset="0.393" style="stop-color:#325CA1"/>
						<stop  offset="0.6514" style="stop-color:#2D4997"/>
						<stop  offset="0.8625" style="stop-color:#2B3D92"/>
						<stop  offset="1" style="stop-color:#2B3990"/>
					</linearGradient>
					<path class="st22" d="M58.8,87.6c10.3,0,20.5,0,30.8,0c0.9,0,1.8-0.3,2.6,0.4c-1.4,1.5-2.8,3.1-4.2,4.6
						c-9.7-0.1-19.4-0.1-29.1-0.2C58.6,90.8,58.6,89.2,58.8,87.6z"/>
					<linearGradient id="SVGID_22_" gradientUnits="userSpaceOnUse" x1="58.6498" y1="99.4791" x2="83.6856" y2="99.4791">
						<stop  offset="0" style="stop-color:#3F7FB5"/>
						<stop  offset="9.961557e-02" style="stop-color:#3B75B0"/>
						<stop  offset="0.393" style="stop-color:#325CA1"/>
						<stop  offset="0.6514" style="stop-color:#2D4997"/>
						<stop  offset="0.8625" style="stop-color:#2B3D92"/>
						<stop  offset="1" style="stop-color:#2B3990"/>
					</linearGradient>
					<path class="st23" d="M58.8,97.1c7.4,0,14.8,0,22.3,0c0.9,0,1.8-0.4,2.6,0.3c-1.4,1.5-2.8,3-4.2,4.5
						c-6.9-0.1-13.8-0.1-20.7-0.2C58.6,100.2,58.6,98.6,58.8,97.1z"/>
					<linearGradient id="SVGID_23_" gradientUnits="userSpaceOnUse" x1="58.6722" y1="108.8069" x2="75.2015" y2="108.8069">
						<stop  offset="0" style="stop-color:#3F7FB5"/>
						<stop  offset="9.961557e-02" style="stop-color:#3B75B0"/>
						<stop  offset="0.393" style="stop-color:#325CA1"/>
						<stop  offset="0.6514" style="stop-color:#2D4997"/>
						<stop  offset="0.8625" style="stop-color:#2B3D92"/>
						<stop  offset="1" style="stop-color:#2B3990"/>
					</linearGradient>
					<path class="st24" d="M58.8,106.5c4.7,0,9.4,0,14,0c0.8,0,1.6-0.3,2.4,0.3c-1.4,1.5-2.7,2.9-4.1,4.4c-4.1,0-8.2-0.1-12.3-0.1
						C58.6,109.6,58.6,108,58.8,106.5z"/>
					<linearGradient id="SVGID_24_" gradientUnits="userSpaceOnUse" x1="58.8168" y1="118.1842" x2="66.8865" y2="118.1842">
						<stop  offset="0" style="stop-color:#3F7FB5"/>
						<stop  offset="9.961557e-02" style="stop-color:#3B75B0"/>
						<stop  offset="0.393" style="stop-color:#325CA1"/>
						<stop  offset="0.6514" style="stop-color:#2D4997"/>
						<stop  offset="0.8625" style="stop-color:#2B3D92"/>
						<stop  offset="1" style="stop-color:#2B3990"/>
					</linearGradient>
					<path class="st25" d="M58.8,115.8c2.7,0.2,5.4-0.3,8.1,0.3c-1.4,1.5-2.8,3-4.2,4.6c-1.3,0-2.6,0-3.9,0
						C58.8,119,58.8,117.4,58.8,115.8z"/>
				</g>
			</g>
		</g>
	</g>
	<rect x="4.9" y="6.2" class="st26" width="141.3" height="5.7"/>
</g>
</svg>
