<?xml version="1.0" encoding="utf-8"?>
<!-- Generator: Adobe Illustrator 19.1.0, SVG Export Plug-In . SVG Version: 6.00 Build 0)  -->
<svg version="1.1" id="Layer_1" xmlns="http://www.w3.org/2000/svg" xmlns:xlink="http://www.w3.org/1999/xlink" x="0px" y="0px"
	 viewBox="0 0 158.3 98.3" style="enable-background:new 0 0 158.3 98.3;" xml:space="preserve">
<style type="text/css">
	.st0{fill:#5DBFDD;}
	.st1{fill:#FFFFFF;stroke:#000000;stroke-miterlimit:10;}
	.st2{fill:#010101;}
	.st3{fill:none;stroke:#000000;stroke-width:4;stroke-miterlimit:10;}
	.st4{fill:none;stroke:#000000;stroke-miterlimit:10;}
	.st5{fill:#FFFFFF;}
	.st6{fill:none;stroke:#FFFFFF;stroke-width:2;stroke-miterlimit:10;}
	.st7{clip-path:url(#SVGID_4_);fill:url(#SVGID_5_);}
	.st8{clip-path:url(#SVGID_7_);}
	.st9{clip-path:url(#SVGID_9_);}
	.st10{clip-path:url(#SVGID_11_);fill:url(#SVGID_12_);}
	.st11{clip-path:url(#SVGID_14_);fill:url(#SVGID_15_);}
	.st12{clip-path:url(#SVGID_17_);fill:url(#SVGID_18_);}
	.st13{clip-path:url(#SVGID_20_);fill:url(#SVGID_21_);}
	.st14{clip-path:url(#SVGID_23_);fill:url(#SVGID_24_);}
	.st15{clip-path:url(#SVGID_26_);fill:url(#SVGID_27_);}
	.st16{clip-path:url(#SVGID_29_);fill:url(#SVGID_30_);}
	.st17{clip-path:url(#SVGID_32_);}
	.st18{clip-path:url(#SVGID_34_);}
	.st19{clip-path:url(#SVGID_36_);fill:url(#SVGID_37_);}
	.st20{clip-path:url(#SVGID_39_);fill:url(#SVGID_40_);}
	.st21{clip-path:url(#SVGID_42_);fill:url(#SVGID_43_);}
	.st22{clip-path:url(#SVGID_45_);fill:url(#SVGID_46_);}
	.st23{clip-path:url(#SVGID_48_);fill:url(#SVGID_49_);}
	.st24{clip-path:url(#SVGID_51_);fill:url(#SVGID_52_);}
	.st25{clip-path:url(#SVGID_54_);fill:url(#SVGID_55_);}
	.st26{clip-path:url(#SVGID_57_);fill:#5DBFDD;}
	.st27{clip-path:url(#SVGID_57_);}
	.st28{clip-path:url(#SVGID_59_);fill:#FFFFFF;}
	.st29{clip-path:url(#SVGID_59_);fill:#65CAD9;}
	.st30{clip-path:url(#SVGID_61_);fill:url(#SVGID_62_);}
	.st31{clip-path:url(#SVGID_64_);fill:url(#SVGID_65_);}
	.st32{clip-path:url(#SVGID_67_);fill:url(#SVGID_68_);}
	.st33{clip-path:url(#SVGID_70_);fill:url(#SVGID_71_);}
	.st34{clip-path:url(#SVGID_73_);}
	.st35{clip-path:url(#SVGID_75_);}
	.st36{clip-path:url(#SVGID_77_);fill:url(#SVGID_78_);}
	.st37{clip-path:url(#SVGID_73_);fill:#4081B7;}
	.st38{clip-path:url(#SVGID_80_);fill:url(#SVGID_81_);}
	.st39{clip-path:url(#SVGID_83_);fill:url(#SVGID_84_);}
	.st40{clip-path:url(#SVGID_86_);fill:url(#SVGID_87_);}
	.st41{clip-path:url(#SVGID_89_);fill:#FFFFFF;}
	.st42{clip-path:url(#SVGID_91_);fill:url(#SVGID_92_);}
	.st43{clip-path:url(#SVGID_94_);fill:url(#SVGID_95_);}
	.st44{clip-path:url(#SVGID_97_);fill:url(#SVGID_98_);}
	.st45{clip-path:url(#SVGID_100_);fill:url(#SVGID_101_);}
	.st46{clip-path:url(#SVGID_103_);fill:url(#SVGID_104_);}
	.st47{clip-path:url(#SVGID_106_);fill:url(#SVGID_107_);}
	.st48{clip-path:url(#SVGID_109_);fill:url(#SVGID_110_);}
	.st49{clip-path:url(#SVGID_112_);}
	.st50{clip-path:url(#SVGID_114_);}
	.st51{clip-path:url(#SVGID_116_);fill:url(#SVGID_117_);}
	.st52{clip-path:url(#SVGID_119_);fill:url(#SVGID_120_);}
	.st53{clip-path:url(#SVGID_122_);fill:url(#SVGID_123_);}
	.st54{clip-path:url(#SVGID_125_);fill:url(#SVGID_126_);}
	.st55{clip-path:url(#SVGID_128_);fill:url(#SVGID_129_);}
	.st56{clip-path:url(#SVGID_131_);fill:url(#SVGID_132_);}
	.st57{clip-path:url(#SVGID_134_);fill:url(#SVGID_135_);}
	.st58{clip-path:url(#SVGID_137_);}
	.st59{clip-path:url(#SVGID_139_);}
	.st60{clip-path:url(#SVGID_141_);fill:url(#SVGID_142_);}
	.st61{clip-path:url(#SVGID_144_);fill:url(#SVGID_145_);}
	.st62{clip-path:url(#SVGID_147_);fill:url(#SVGID_148_);}
	.st63{clip-path:url(#SVGID_150_);fill:url(#SVGID_151_);}
	.st64{clip-path:url(#SVGID_153_);fill:url(#SVGID_154_);}
	.st65{clip-path:url(#SVGID_156_);fill:url(#SVGID_157_);}
	.st66{clip-path:url(#SVGID_159_);fill:url(#SVGID_160_);}
	.st67{clip-path:url(#SVGID_162_);}
	.st68{clip-path:url(#SVGID_164_);}
	.st69{clip-path:url(#SVGID_166_);fill:url(#SVGID_167_);}
	.st70{clip-path:url(#SVGID_169_);fill:url(#SVGID_170_);}
	.st71{clip-path:url(#SVGID_172_);}
	.st72{clip-path:url(#SVGID_174_);}
	.st73{clip-path:url(#SVGID_176_);fill:url(#SVGID_177_);}
	.st74{clip-path:url(#SVGID_179_);fill:url(#SVGID_180_);}
	.st75{clip-path:url(#SVGID_182_);fill:#4081B7;}
	.st76{clip-path:url(#SVGID_182_);}
	.st77{clip-path:url(#SVGID_184_);}
	.st78{clip-path:url(#SVGID_186_);fill:url(#SVGID_187_);}
	.st79{clip-path:url(#SVGID_182_);fill:#2B3C90;}
	.st80{clip-path:url(#SVGID_189_);fill:url(#SVGID_190_);}
	.st81{clip-path:url(#SVGID_192_);}
	.st82{clip-path:url(#SVGID_194_);}
	.st83{clip-path:url(#SVGID_196_);fill:url(#SVGID_197_);}
	.st84{clip-path:url(#SVGID_192_);fill:#D3D4D3;}
	.st85{clip-path:url(#SVGID_192_);fill:#ABAAAA;}
	.st86{clip-path:url(#SVGID_192_);fill:#2B3C90;}
	.st87{clip-path:url(#SVGID_192_);fill:#FFFFFF;}
	.st88{clip-path:url(#SVGID_199_);fill:url(#SVGID_200_);}
	.st89{clip-path:url(#SVGID_202_);fill:url(#SVGID_203_);}
	.st90{clip-path:url(#SVGID_205_);fill:url(#SVGID_206_);}
	.st91{clip-path:url(#SVGID_208_);fill:url(#SVGID_209_);}
	.st92{clip-path:url(#SVGID_211_);fill:url(#SVGID_212_);}
	.st93{clip-path:url(#SVGID_214_);fill:url(#SVGID_215_);}
	.st94{clip-path:url(#SVGID_217_);fill:url(#SVGID_218_);}
	.st95{fill:#2B3C90;}
	.st96{fill:#3FACB7;}
	.st97{clip-path:url(#SVGID_222_);}
	.st98{clip-path:url(#SVGID_226_);}
	.st99{clip-path:url(#SVGID_230_);}
	.st100{clip-path:url(#SVGID_234_);}
	.st101{clip-path:url(#SVGID_238_);}
	.st102{clip-path:url(#SVGID_242_);}
	.st103{clip-path:url(#SVGID_246_);fill:#5DBFDD;}
	.st104{clip-path:url(#SVGID_246_);fill:#FFFFFF;}
	.st105{clip-path:url(#SVGID_246_);fill:#F7A800;}
	.st106{clip-path:url(#SVGID_246_);fill:#B26D01;}
	.st107{clip-path:url(#SVGID_246_);fill:#005CB9;}
	.st108{clip-path:url(#SVGID_246_);fill:#8A8C8C;}
	.st109{clip-path:url(#SVGID_248_);fill:url(#SVGID_249_);}
	.st110{clip-path:url(#SVGID_251_);fill-rule:evenodd;clip-rule:evenodd;fill:#FFFFFF;}
	.st111{clip-path:url(#SVGID_251_);fill-rule:evenodd;clip-rule:evenodd;fill:#F7A800;}
	.st112{clip-path:url(#SVGID_253_);fill:url(#SVGID_254_);}
	.st113{clip-path:url(#SVGID_256_);}
	.st114{clip-path:url(#SVGID_258_);fill:#FCEE23;}
	.st115{clip-path:url(#SVGID_260_);fill:#FCEE23;}
	.st116{clip-path:url(#SVGID_262_);}
	.st117{clip-path:url(#SVGID_264_);fill:url(#SVGID_265_);}
	.st118{opacity:0.1;fill:#FFFFFF;}
	.st119{fill:url(#SVGID_266_);}
	.st120{fill-rule:evenodd;clip-rule:evenodd;fill:#FFFFFF;}
	.st121{fill-rule:evenodd;clip-rule:evenodd;fill:#F7A800;}
	.st122{fill:#F7A800;}
	.st123{fill:#B26D01;}
	.st124{fill:#005CB9;}
	.st125{fill:#8A8C8C;}
	.st126{clip-path:url(#SVGID_268_);fill:url(#SVGID_269_);}
	.st127{clip-path:url(#SVGID_271_);fill:url(#SVGID_272_);}
</style>
<g>
	<path class="st122" d="M106.1,50.4c0.9,0.8,2.1,2,3,3C100.2,52.5,81,52,81,52c-9.7,0-19.1,0.5-28,1.3c0.9-1,2.1-2.2,3-3
		c1.3-1.1,3.7-2.2,4.8-2.7l-19-3.1l-2-0.4l1.9-0.3l18.8-3.6c-0.6-0.5-1.9-1.8-2.8-2.3c-1.2-0.7-3.1-1.6-4.9-2.1
		c-1.7-0.4-2.8-0.7-3.7-1.1c-1-0.5-2-1.2-2.6-1.9c-0.3-0.5-1-1.6-1.4-2.6c-0.6-1.1-0.8-2.4-0.8-2.4c0.2,0.1,0.6,0.6,0.6,0.6
		c0,0,1.2,1.1,1.7,1.5l0.2,0.2c0.5,0.4,1.2,0.9,2.5,1.2c0.7,0.1,2.8,0.1,4.1-0.1c1.4-0.2,3.9-0.2,5.5-0.1c1.7,0.1,4.2,1.1,5.4,1.5
		l-11.2-16L51.9,15l1.6,1.1l15.4,10.8c0-0.8-0.1-2.6-0.4-3.5c-0.4-1.3-1-3.3-2-4.9c-0.9-1.4-1.5-2.5-1.9-3.4c-0.4-1-0.6-2.2-0.4-3.2
		c0.1-0.6,0.5-1.8,0.9-2.9c0.3-1.1,1.1-2.3,1.1-2.3c0,0.2,0,0.8,0,0.8c0,0,0,1.6,0.1,2.2l0,0.2c0.1,0.6,0.2,1.5,0.9,2.6
		c0.4,0.6,2,2,2.9,2.8c1.1,0.8,2.9,2.6,4,3.9c1.2,1.4,2.5,4.3,2.9,5.2l3.4-19.5l0.4-2L81.3,5l3.3,18.6c0.6-0.6,1.6-1.8,2-2.5
		c0.7-1.2,1.6-3.1,2.1-4.9c0.4-1.7,0.7-2.8,1.1-3.7c0.5-1,1.2-2,1.9-2.6c0.5-0.3,1.6-1,2.6-1.4c1.1-0.6,2.4-0.8,2.4-0.8
		c-0.1,0.2-0.6,0.6-0.6,0.6c0,0-1.1,1.2-1.5,1.7l-0.2,0.2c-0.4,0.5-0.9,1.2-1.2,2.5c-0.1,0.7-0.1,2.8,0.1,4.1
		c0.2,1.4,0.2,3.9,0.1,5.5c-0.1,1.8-1.1,4.4-1.5,5.5l16.3-11.4l1.7-1.2l-1.1,1.6L97.9,32.3c0.9,0,2.5-0.1,3.3-0.4
		c1.3-0.4,3.3-1,4.9-2c1.4-0.9,2.5-1.5,3.4-1.9c1-0.4,2.2-0.6,3.2-0.4c0.6,0.1,1.8,0.5,2.9,0.9c1.1,0.3,2.3,1.1,2.3,1.1
		c-0.2,0-0.8,0-0.8,0c0,0-1.6,0-2.2,0.1l-0.2,0c-0.6,0.1-1.5,0.2-2.6,0.9c-0.6,0.4-2,2-2.8,2.9c-0.8,1.1-2.6,2.9-3.9,4
		c-1.4,1.1-3.9,2.3-5,2.8l19.5,3.4l2,0.4l-1.9,0.3l-18.3,3.2C101.5,47.8,104.8,49.2,106.1,50.4"/>
	<path class="st123" d="M111.5,30.1c-0.7,0.5-2.2,2.2-3,3.1c-0.8,1-2.5,2.8-3.8,3.9c-1.4,1.2-4.8,2.7-5.7,3.1L94,39.3
		c2.1-0.7,5.9-2.3,7.3-3c1.7-0.9,5-3.1,8.7-5.9c1.4-1,2.9-1.3,4.3-1.3C113.7,29.2,112.7,29.3,111.5,30.1"/>
	<path class="st123" d="M92.6,38.7c-0.6-1.3-1.4-2.4-2.4-3.4l15.9-15.8L92.6,38.7z"/>
	<path class="st123" d="M92.6,12.6c-0.2,0.9-0.1,3.1,0.1,4.3c0.2,1.3,0.2,3.8,0.1,5.4c-0.2,1.8-1.5,5.3-1.8,6.2l-4.2,3
		c1-1.9,2.6-5.8,3.1-7.3c0.6-1.8,1.3-5.7,2-10.3c0.2-1.7,1.1-3,2.1-4C93.4,10.4,92.9,11.1,92.6,12.6"/>
	<path class="st123" d="M85.1,31.6c-1.3-0.5-2.7-0.8-4.1-0.8V8.2L85.1,31.6z"/>
	<path class="st123" d="M66.8,13.1c0.5,0.7,2.2,2.2,3.1,3c1,0.8,2.8,2.5,3.9,3.8c1.3,1.6,3,5.5,3.2,5.9L76,30.9
		c-0.7-2.1-2.3-6.2-3.1-7.6c-0.9-1.7-3.1-5-5.9-8.7c-1-1.4-1.3-2.9-1.3-4.3C65.8,11,66,11.9,66.8,13.1"/>
	<path class="st123" d="M75.3,32.2c-1.3,0.6-2.5,1.3-3.5,2.3L56.1,18.8L75.3,32.2z"/>
	<path class="st123" d="M46.5,30.8c0.5,0.4,1.3,1,2.7,1.2c0.9,0.2,3.1,0.1,4.3-0.1c1.3-0.2,3.8-0.2,5.4-0.1c1.8,0.1,5,1.4,6.1,1.8
		l3,4.2c-2-1-5.7-2.5-7.2-3c-1.9-0.6-5.7-1.3-10.3-2C48.8,32.7,47.5,31.8,46.5,30.8"/>
	<path class="st123" d="M68.2,39.9c-0.5,1.3-0.8,2.9-0.9,4.3H45.1L68.2,39.9z"/>
	<path class="st123" d="M93.3,48.3c0.4-1.3,0.7-2.6,0.7-4h22.6L93.3,48.3z"/>
	<path class="st123" d="M75.7,42.1c-0.1,0.2,0,0.6,0,0.6c-0.1,0-0.3,0-0.3,0c-0.1-0.2,0-0.5,0-0.5L75.7,42.1z M78.9,42.5L78.9,42.5
		L78.9,42.5C78.9,42.5,78.9,42.5,78.9,42.5c0-0.2-0.6-2.8-3.2-2.8c-2.7,0-4,2.2-4,2.2s1.6-1.4,4-1.3c0.2,0,0.4,0,0.5,0.1
		c0,0.1,0.1,0.4,0.1,0.6c-1.7-0.1-2.9,1.2-2.9,1.2s0.5-0.2,1.7-0.3c0,0.1,0,0.1,0,0.2c0,0.4,0.2,0.7,0.6,0.9c-0.3,0-0.7-0.1-1-0.2
		c0,0,1.6,1.3,3,0c0,0-0.3,0.2-0.9,0.2c0.4-0.2,0.6-0.5,0.6-0.9c0,0,0-0.1,0-0.1C77.8,42.3,78.3,42.4,78.9,42.5"/>
	<path class="st123" d="M87.5,42.5c0-0.1-0.4-1.4-1.5-1.8c2,0.2,3.2,1.3,3.2,1.3s-1.3-2.2-4-2.2c-1.2,0-1.9,0.5-2.4,1.1
		c-0.2,0.2-1.3,1.4-1,4.6c0,0,0.4,0.9-0.3,1.3c-0.7,0.4-1.6-0.1-1.7-0.4c0,0-1.2,0.1-1.3-0.4c0,0-0.3,1.1,1.1,1c0,0,0.4,0.6,1.3,0.6
		c0.9,0,1.6-0.8,1.6-0.8s1.6,0.6,1.5-0.9c0,0-0.5,0.8-1.4,0.3c0,0,0.2-0.3-0.3-1.4c-0.3-0.7-0.2-1.7,0-2.5c0.5-0.1,0.9-0.1,1.3-0.2
		c0,0,0,0.1,0,0.1c0,0.4,0.2,0.7,0.6,0.9c-0.6-0.1-0.9-0.2-0.9-0.2c1.5,1.3,3,0,3,0c-0.4,0.1-0.7,0.1-1,0.2c0.3-0.2,0.6-0.5,0.6-0.9
		c0-0.1,0-0.1,0-0.2C86.7,42.2,87.3,42.4,87.5,42.5L87.5,42.5L87.5,42.5L87.5,42.5L87.5,42.5 M82.4,42.1c0.4-0.6,1.5-1.4,2.8-1.4
		c0.1,0,0.1,0,0.2,0c0.1,0.1,0.2,0.4,0.2,0.7c-0.3-0.1-0.7-0.1-1.1-0.1C83.5,41.4,82.8,41.8,82.4,42.1
		C82.4,42.1,82.4,42.1,82.4,42.1 M84.2,42.1c-0.1,0.2,0,0.6,0,0.6c-0.1,0-0.3,0-0.3,0c-0.1-0.2,0-0.5,0-0.5L84.2,42.1z"/>
	<path class="st123" d="M92.1,43.9c0,3.2-1.3,6.1-3.4,8.2c0.6,0,1.3,0,1.9,0.1c1.7-2.1,2.7-4.8,2.7-7.7c0-6.5-4.9-11.8-11.2-12.3
		C87.8,33.2,92.1,38.1,92.1,43.9"/>
	<path class="st123" d="M57.8,52.9c0.8-0.5,1.5-1,2.1-1.2c1.4-0.7,5-2.2,7.1-2.9L62,47.9c-1.1,0.5-4.2,1.9-5.5,3
		c-0.8,0.6-1.7,1.5-2.4,2.3C55.3,53.1,56.5,53,57.8,52.9"/>
	<path class="st123" d="M69.9,52.2c-0.5-0.7-1-1.4-1.3-2.2L67,52.3C68,52.3,69,52.2,69.9,52.2"/>
	<path class="st123" d="M104.4,52.9c-0.8-0.5-1.5-1-2.1-1.2c-1.4-0.7-5-2.2-7.1-2.9l5.1-0.9c1.1,0.5,4.2,1.9,5.5,3
		c0.8,0.6,1.7,1.5,2.4,2.3C107,53.1,105.7,53,104.4,52.9"/>
	<path class="st123" d="M92.3,52.2c0.5-0.7,1-1.4,1.3-2.2l1.6,2.3C94.3,52.3,93.3,52.2,92.3,52.2"/>
	<path class="st123" d="M82.2,49.7c0.1,0.2,0.1,0.5-0.1,0.8c-0.5,0-0.9,0.1-1.1,0v0c0,0,0,0-0.1,0c0,0,0,0,0,0v0c-0.3,0-1,0-1.9-0.1
		c-0.7-0.1-0.8-0.1-0.8,0.1c0,0.3,0.7,0.6,1.5,0.7c-0.5,0.2-0.8,0.5-0.8,0.8v0c0.4,0,0.8,0,1.2,0c0.4-0.1,0.7-0.1,0.8-0.1v0
		c0,0,0,0,0,0c0,0,0,0,0,0v0c0.1,0,0.4,0,0.8,0.1c0.4,0,0.8,0,1.2,0v0c0-0.3-0.4-0.6-0.8-0.8c0.7-0.1,1.2-0.4,1.4-0.6
		c0.5-0.3,1.1-0.8,1.7-1.7c0,0-3.1-0.2-8.8,0c0,0,1.2,0.8,4.1,0.9C81.2,49.8,81.7,49.8,82.2,49.7"/>
	<path class="st124" d="M79.3,55.1c26.8,0,52.8,2.9,77.9,8.5c-24.6-7.7-50.8-11.9-77.9-11.9c-27.1,0-53.3,4.2-77.9,11.9
		C26.4,58,52.5,55.1,79.3,55.1"/>
	<path class="st125" d="M45.3,72.2c0,1-0.4,1.7-1.2,2.3c-0.5,0.3-1.2,0.5-2,0.5c-0.3,0-0.7,0-1.2-0.1v4.2c0,0.2,0,0.4,0,0.4
		c0,0.1,0.2,0.2,0.3,0.3c0.3,0,0.6,0.1,0.8,0.1c0.1,0,0.2,0,0.2,0.1c0,0.1-0.1,0.1-0.2,0.1H42h-3.1h-0.2c-0.3,0-0.4,0-0.4-0.1
		c0-0.1,0.1-0.1,0.3-0.1c0.5,0,0.7,0,0.8-0.1c0.1,0,0.1-0.1,0.1-0.3v-8.8c0-0.3-0.1-0.5-0.3-0.6c-0.1,0-0.3-0.1-0.5-0.1h-0.1h-0.1
		c-0.1,0-0.2,0-0.2-0.1c0-0.1,0.1-0.1,0.4-0.1h3.3c1.1,0,2,0.2,2.5,0.6C45,70.7,45.3,71.3,45.3,72.2 M43.8,72.2
		c0-1.5-0.6-2.3-1.9-2.3c-0.4,0-0.7,0.1-0.8,0.2C41,70.2,41,70.3,41,70.6v4c0.1,0,0.2,0,0.3,0c0.7,0,1.2-0.1,1.7-0.4
		C43.5,73.8,43.8,73.1,43.8,72.2 M54.3,79.6c0,0.4-0.4,0.6-1,0.6c-0.8,0-1.4-0.3-1.8-1c-0.2-0.3-0.3-0.5-0.4-0.8
		c-0.1-0.3-0.1-0.9-0.2-2c-0.1-0.6-0.3-1.1-0.6-1.4c-0.3-0.3-0.9-0.4-1.7-0.4v4.7c0,0.2,0.2,0.3,0.5,0.4c0.1,0,0.3,0,0.7,0
		c0.1,0,0.2,0,0.2,0.1c0,0.1-0.1,0.1-0.3,0.1h-0.2h-1.3h-0.8h-0.7h-0.6c-0.2,0-0.3,0-0.3-0.1c0-0.1,0.1-0.1,0.4-0.1
		c0.5,0,0.7-0.1,0.8-0.2c0-0.1,0.1-0.2,0.1-0.6v-8.3c0-0.4,0-0.6-0.1-0.7c-0.1-0.1-0.3-0.1-0.8-0.1c-0.2,0-0.4,0-0.4-0.1
		c0-0.1,0.1-0.1,0.2-0.1c0,0,0.1,0,0.1,0l2,0c0.2,0,0.5,0,0.8,0c0.4,0,0.7,0,0.8,0c0.9,0,1.7,0.2,2.2,0.6c0.5,0.4,0.8,1,0.8,1.7
		c0,0.7-0.3,1.3-0.8,1.7c-0.6,0.5-1.3,0.7-2.3,0.8c-0.1,0-0.1,0-0.2,0c0,0,0.1,0.1,0.2,0.1c1,0.2,1.8,0.5,2.2,1.1
		c0.4,0.6,0.7,1.6,0.8,3c0.1,0.8,0.4,1.2,0.8,1.2c0.1,0,0.2,0,0.2-0.1c0,0,0,0,0,0c-0.1-0.1-0.1-0.2-0.1-0.3c0-0.2,0.1-0.3,0.3-0.3
		C54.2,79.2,54.3,79.4,54.3,79.6 M51.2,72.1c0-1.4-0.6-2.1-1.9-2.1c-0.3,0-0.6,0-0.7,0.1c-0.1,0.1-0.2,0.2-0.2,0.5v3.8
		c1,0,1.6-0.2,2.1-0.5C51,73.5,51.2,72.9,51.2,72.1"/>
	<path class="st125" d="M62.6,77.7c0,0,0,0.3,0,0.7c0,0.4,0,0.9,0,1.3v0.5c-1-0.1-2.9-0.1-5.8-0.1h-1H55h-0.1c-0.2,0-0.3,0-0.3-0.1
		c0-0.1,0-0.1,0.1-0.1c0,0,0.2,0,0.6,0c0.3,0,0.4-0.1,0.5-0.2c0.1-0.1,0.1-0.3,0.1-0.7v-8.4c0-0.3,0-0.5-0.1-0.5
		c-0.1-0.1-0.4-0.1-0.8-0.1c-0.2,0-0.2,0-0.2-0.1c0-0.1,0.1-0.1,0.3-0.1h2.6h1.7h2.1c0.3,0,0.6,0,0.8-0.1c0,0.4,0.1,1,0.1,1.8
		l0.1,0.6c0,0,0,0.1,0,0.2c0,0.1,0,0.1-0.1,0.1c-0.1,0-0.2-0.1-0.2-0.4c-0.2-0.9-0.5-1.5-0.9-1.7c-0.3-0.2-1.2-0.3-2.5-0.3h-1.2v4.4
		h0.4c1.1,0,1.8-0.1,2-0.3c0.2-0.2,0.4-0.7,0.5-1.5c0-0.2,0.1-0.3,0.2-0.3c0.1,0,0.2,0.1,0.2,0.3c0,0.2,0,0.4,0,0.8
		c0,0.3,0,0.6,0,0.8c0,1.1,0,1.8,0,2.2c0,0.1,0,0.2,0,0.3c0,0.1-0.1,0.2-0.2,0.2c-0.1,0-0.1,0-0.1-0.1c0-0.1-0.1-0.4-0.1-0.8
		c-0.1-0.6-0.3-1-0.7-1.1c-0.2-0.1-0.6-0.1-1.4-0.1h-0.7v5c2.2,0,3.5,0,3.9-0.1c0.7-0.1,1-0.8,1.1-1.9c0-0.2,0.1-0.4,0.2-0.4
		C62.6,77.3,62.6,77.4,62.6,77.7"/>
	<path class="st125" d="M70,77.1c0,0.9-0.3,1.6-1,2.2c-0.7,0.6-1.4,0.9-2.4,0.9c-0.5,0-1.2-0.2-1.9-0.5c-0.2-0.1-0.3-0.1-0.4-0.1
		c-0.1,0-0.2,0.1-0.2,0.4c0,0.1-0.1,0.2-0.2,0.2c-0.1,0-0.2-0.1-0.2-0.2c0-0.1,0-0.1,0-0.2c0.1-0.6,0.1-1.2,0.1-1.7
		c0-0.1,0-0.4,0-0.8c0-0.1,0-0.1,0-0.2c0-0.2,0.1-0.2,0.2-0.2c0.1,0,0.2,0.1,0.2,0.4c0.3,1.8,1.1,2.7,2.5,2.7c0.6,0,1.1-0.2,1.4-0.5
		c0.3-0.3,0.5-0.8,0.5-1.5c0-0.6-0.2-1-0.5-1.4s-0.9-0.8-1.7-1.2c-0.9-0.5-1.6-0.9-2-1.4c-0.4-0.4-0.6-1-0.6-1.6
		c0-0.8,0.3-1.5,0.8-2.1c0.5-0.5,1.2-0.8,2-0.8c0.3,0,0.8,0.1,1.4,0.3c0.2,0.1,0.4,0.1,0.5,0.1c0.1,0,0.2,0,0.2-0.1
		c0,0,0.1-0.1,0.1-0.3c0-0.1,0.1-0.2,0.2-0.2c0.1,0,0.2,0.1,0.2,0.2c0,0.1,0,0.1,0,0.2c0,0.2,0,0.5,0,0.9c0,0.5,0,0.9,0.1,1.1l0,0.2
		c0,0.1,0,0.2-0.1,0.2c-0.1,0-0.2-0.1-0.2-0.3c-0.1-0.6-0.4-1.1-0.8-1.5c-0.4-0.4-0.9-0.6-1.4-0.6c-0.5,0-0.9,0.2-1.2,0.5
		c-0.3,0.3-0.4,0.8-0.4,1.3c0,0.6,0.2,1.2,0.6,1.5c0.2,0.2,0.8,0.5,1.6,0.9c0.9,0.5,1.6,0.9,2,1.4C69.7,76,70,76.5,70,77.1"/>
	<path class="st125" d="M74.1,79.9c0,0.1-0.1,0.1-0.2,0.1h-0.1c-0.1,0-0.7,0-2,0c-0.2,0-0.5,0-0.8,0c-0.1,0-0.3,0-0.6,0
		c-0.1,0-0.2,0-0.2-0.1c0-0.1,0.1-0.1,0.4-0.1c0.4,0,0.6-0.1,0.7-0.1c0.1-0.1,0.1-0.4,0.1-0.9v-7.9c0-0.5,0-0.8-0.1-0.8
		c-0.1-0.1-0.3-0.2-0.8-0.2c-0.2,0-0.3,0-0.3-0.1c0-0.1,0.1-0.1,0.2-0.1h2c0.1,0,0.4,0,0.9,0l0.6,0c0.2,0,0.2,0,0.2,0.1
		c0,0.1-0.2,0.1-0.7,0.1c-0.3,0-0.4,0.1-0.5,0.1c-0.1,0.1-0.1,0.3-0.1,0.6v8c0,0.6,0,0.9,0.1,0.9c0.1,0.1,0.4,0.2,1,0.2
		C74.1,79.8,74.1,79.8,74.1,79.9"/>
	<path class="st125" d="M84.6,74.9c0,1.8-0.6,3.1-1.8,4.1c-0.9,0.7-2.1,1.1-3.6,1.1h-0.5h-1.4h-0.7h-1.2h-0.2c-0.2,0-0.3,0-0.3-0.2
		c0-0.1,0.2-0.1,0.5-0.1c0.4,0,0.7-0.1,0.8-0.2c0-0.1,0.1-0.3,0.1-0.6v-8.1c0-0.5,0-0.8-0.1-0.9c-0.1-0.1-0.3-0.1-0.8-0.1
		c-0.2,0-0.3-0.1-0.3-0.2c0-0.1,0.1-0.1,0.3-0.1h0.3h0.7h1.6c1.8,0,3.1,0.1,3.8,0.4c0.9,0.3,1.6,0.9,2.2,1.8
		C84.3,72.7,84.6,73.7,84.6,74.9 M82.9,74.8c0-1.7-0.3-2.9-1-3.7c-0.6-0.8-1.7-1.2-3-1.2c-0.7,0-1.1,0.1-1.2,0.2
		c-0.1,0.1-0.1,0.3-0.1,0.7v8c0,0.3,0,0.5,0,0.5c0,0.1,0.1,0.1,0.1,0.2c0.2,0.1,0.7,0.2,1.5,0.2c1.1,0,1.9-0.4,2.6-1.1
		C82.6,77.8,82.9,76.5,82.9,74.8"/>
	<path class="st125" d="M92.7,77.7c0,0,0,0.3,0,0.7c0,0.4,0,0.9,0,1.3v0.5c-1-0.1-2.9-0.1-5.8-0.1h-1h-0.7H85c-0.2,0-0.3,0-0.3-0.1
		c0-0.1,0-0.1,0.1-0.1c0,0,0.2,0,0.6,0c0.3,0,0.4-0.1,0.5-0.2c0.1-0.1,0.1-0.3,0.1-0.7v-8.4c0-0.3,0-0.5-0.1-0.5
		c-0.1-0.1-0.4-0.1-0.8-0.1c-0.2,0-0.2,0-0.2-0.1c0-0.1,0.1-0.1,0.3-0.1h2.6h1.7h2.1c0.3,0,0.6,0,0.8-0.1c0,0.4,0.1,1,0.1,1.8
		l0.1,0.6c0,0,0,0.1,0,0.2c0,0.1,0,0.1-0.1,0.1c-0.1,0-0.2-0.1-0.2-0.4c-0.2-0.9-0.5-1.5-0.9-1.7C90.8,70.1,90,70,88.6,70h-1.2v4.4
		h0.4c1.1,0,1.8-0.1,2-0.3c0.2-0.2,0.4-0.7,0.5-1.5c0-0.2,0.1-0.3,0.2-0.3c0.1,0,0.2,0.1,0.2,0.3c0,0.2,0,0.4,0,0.8
		c0,0.3,0,0.6,0,0.8c0,1.1,0,1.8,0,2.2c0,0.1,0,0.2,0,0.3c0,0.1-0.1,0.2-0.2,0.2c-0.1,0-0.1,0-0.1-0.1c0-0.1-0.1-0.4-0.1-0.8
		c-0.1-0.6-0.3-1-0.7-1.1c-0.2-0.1-0.6-0.1-1.4-0.1h-0.7v5c2.2,0,3.5,0,3.9-0.1c0.7-0.1,1-0.8,1.1-1.9c0-0.2,0.1-0.4,0.2-0.4
		C92.7,77.3,92.7,77.4,92.7,77.7"/>
	<path class="st125" d="M102.7,69.8c0,0.1-0.1,0.1-0.4,0.1h-0.3h-0.3c-0.2,0-0.3,0-0.3,0.1c0,0.1,0,0.2,0,0.5v8.6c0,0.5,0,0.8,0,0.9
		c0,0.1,0,0.1-0.1,0.1c-0.1,0-0.1-0.1-0.2-0.2l-1.9-2.8c-1.1-1.6-2.5-3.7-4-6.1v8.4c0,0.1,0.1,0.2,0.2,0.2c0.1,0,0.5,0.1,1,0.1
		c0.1,0,0.2,0,0.2,0.1c0,0.1-0.1,0.1-0.4,0.1c-0.1,0-0.4,0-0.9,0c-0.2,0-0.3,0-0.5,0c0,0-0.1,0-0.3,0c-0.2,0-0.5,0-0.8,0h-0.1
		c-0.2,0-0.3,0-0.3-0.1c0-0.1,0.1-0.1,0.3-0.1c0.6,0,0.9,0,1-0.1c0.1-0.1,0.1-0.3,0.1-0.6v-7.4c0-0.8-0.2-1.3-0.5-1.6
		C94,70,93.7,70,93.3,70c-0.3,0-0.4-0.1-0.4-0.2c0-0.1,0.1-0.1,0.2-0.1c0.2,0,0.5,0,0.8,0c0.3,0,0.5,0,0.5,0c0,0,0.2,0,0.4,0
		c0.3,0,0.6,0,1,0l5.2,7.7v-6.7c0-0.3,0-0.5,0-0.6c0-0.1-0.1-0.1-0.1-0.2c-0.1,0-0.3-0.1-0.7-0.1c-0.4,0-0.5,0-0.5-0.1
		c0-0.1,0.1-0.1,0.4-0.1h0.5h0.4h0.3h0.3h0.4h0.5C102.5,69.7,102.7,69.7,102.7,69.8"/>
	<path class="st125" d="M111.1,76.7c0,0,0,0.1,0,0.4c0,0.6-0.1,1.1-0.1,1.7c0,0.1,0,0.2,0,0.4c0,0.2,0,0.4,0,0.7V80
		c0,0.1,0,0.2-0.1,0.2c-0.1,0-0.2-0.1-0.2-0.2c-0.1-0.4-0.3-0.6-0.4-0.6c-0.7,0.6-1.6,0.9-2.6,0.9c-1.5,0-2.7-0.5-3.6-1.5
		c-1-1-1.4-2.3-1.4-3.9c0-1.6,0.4-2.8,1.3-3.8c0.9-1,2-1.5,3.4-1.5c0.5,0,0.9,0,1.2,0.1c0.3,0.1,0.7,0.3,1.1,0.5
		c0.2,0.1,0.4,0.2,0.5,0.2c0.1,0,0.2-0.1,0.3-0.2c0.1-0.3,0.2-0.4,0.3-0.4c0.1,0,0.1,0,0.1,0.1c0,0,0,0.1,0,0.2
		c-0.1,0.5-0.2,1.4-0.2,2.7c0,0.2,0,0.3,0,0.3c0,0-0.1,0-0.1,0c-0.1,0-0.2-0.1-0.2-0.3c-0.1-0.8-0.3-1.4-0.6-1.8
		c-0.5-0.8-1.3-1.2-2.3-1.2c-0.8,0-1.5,0.3-1.9,0.8c-0.8,1-1.3,2.4-1.3,4.3c0,1.7,0.4,3,1,3.9c0.6,0.8,1.4,1.2,2.4,1.2
		c0.5,0,1-0.1,1.4-0.4c0.4-0.3,0.8-0.6,1-1.1c0.2-0.5,0.4-1,0.5-1.6c0.1-0.2,0.1-0.4,0.2-0.4C111,76.5,111.1,76.6,111.1,76.7"/>
	<path class="st125" d="M116.3,80.1c0.2,0,0.4,0,0.5,0c0.6,0,1.1,0,1.6,0c0.3,0,0.4,0,0.4-0.1c0-0.1-0.1-0.1-0.4-0.2
		c-0.5,0-0.7,0-0.8-0.1c-0.1,0-0.2-0.1-0.2-0.3c0-0.2,0.3-1.2,0.9-2.8h3.2c0.3,1.1,0.6,1.7,0.7,2.1l0.1,0.2l0.1,0.4
		c0,0.1,0,0.1,0,0.1c0,0.2-0.4,0.3-1.3,0.3c-0.3,0-0.4,0.1-0.4,0.2c0,0.1,0.1,0.2,0.3,0.2c0.1,0,0.2,0,0.2,0l1.9-0.1l1.9,0.1
		c0.1,0,0.2,0,0.3,0c0.2,0,0.2,0,0.2-0.1c0-0.1-0.1-0.1-0.4-0.1c-0.4,0-0.6,0-0.8-0.1c-0.1-0.1-0.2-0.2-0.3-0.4
		c-1.4-3.9-2.3-6.3-2.7-7.3c-0.5-1.2-0.8-2.1-0.9-2.4c0-0.1,0-0.1-0.1-0.1c-0.1,0-0.1,0.1-0.1,0.2l-0.1,0.3
		c-0.1,0.1-0.1,0.3-0.1,0.4c-0.8,2.2-1.9,5.2-3.1,8.9c-0.1,0.2-0.2,0.4-0.3,0.5c-0.1,0.1-0.4,0.1-0.7,0.1c-0.1,0-0.1,0-0.2,0
		c0,0-0.1,0-0.1,0c-0.5,0-0.9-0.1-1-0.2c-0.1-0.1-0.1-0.4-0.1-0.9v-8c0-0.3,0-0.5,0.1-0.6c0.1-0.1,0.2-0.1,0.5-0.1
		c0.4,0,0.7-0.1,0.7-0.1c0-0.1-0.1-0.1-0.2-0.1l-0.6,0c-0.4,0-0.7,0-0.9,0h-2c-0.1,0-0.2,0-0.2,0.1c0,0.1,0.1,0.1,0.3,0.1
		c0.5,0,0.8,0.1,0.8,0.2c0,0.1,0.1,0.3,0.1,0.8v7.9c0,0.5,0,0.8-0.1,0.9c-0.1,0.1-0.3,0.1-0.7,0.1c-0.3,0-0.4,0.1-0.4,0.1
		c0,0.1,0.1,0.1,0.2,0.1c0.3,0,0.5,0,0.6,0c0.2,0,0.5,0,0.7,0c1.3,0,1.7,0,2,0C115.8,80.1,116.1,80.1,116.3,80.1 M118.4,76.4
		c0.6-1.8,1.1-3.2,1.5-4.3l0.7,2.1c0.4,1,0.6,1.8,0.8,2.2H118.4z"/>
	<path class="st125" d="M39.4,83.9l-0.8,0.8c-0.3,0.4-0.5,0.5-0.6,0.5c0,0-0.1,0-0.1,0c0,0,0,0,0-0.1L38,85c0-0.1,0.1-0.3,0.2-0.5
		l0.3-0.6h0.3H39h0.3H39.4z"/>
	<path class="st125" d="M28.3,89.4c0,0.2-0.2,0.4-0.6,0.4c-0.4,0-0.8-0.2-1-0.6c-0.1-0.2-0.2-0.3-0.2-0.5c0-0.1-0.1-0.5-0.1-1.1
		c0-0.4-0.2-0.6-0.4-0.8c-0.2-0.2-0.5-0.2-1-0.2v2.7c0,0.1,0.1,0.2,0.3,0.2c0.1,0,0.2,0,0.4,0c0.1,0,0.1,0,0.1,0.1
		c0,0.1,0,0.1-0.1,0.1h-0.1h-0.7h-0.4h-0.4h-0.3c-0.1,0-0.2,0-0.2-0.1c0,0,0.1-0.1,0.2-0.1c0.3,0,0.4,0,0.4-0.1c0,0,0-0.1,0-0.3
		v-4.8c0-0.2,0-0.4-0.1-0.4c0,0-0.2-0.1-0.4-0.1c-0.1,0-0.2,0-0.2-0.1c0-0.1,0-0.1,0.1-0.1c0,0,0,0,0.1,0l1.1,0c0.1,0,0.3,0,0.5,0
		c0.2,0,0.4,0,0.5,0c0.5,0,1,0.1,1.3,0.4c0.3,0.2,0.5,0.6,0.5,1c0,0.4-0.2,0.7-0.5,1c-0.3,0.3-0.8,0.4-1.3,0.5c-0.1,0-0.1,0-0.1,0
		c0,0,0,0,0.1,0c0.6,0.1,1,0.3,1.2,0.6c0.2,0.3,0.4,0.9,0.5,1.7c0,0.5,0.2,0.7,0.5,0.7c0.1,0,0.1,0,0.1-0.1c0,0,0,0,0,0
		c0-0.1,0-0.1,0-0.2c0-0.1,0.1-0.2,0.2-0.2C28.2,89.1,28.3,89.2,28.3,89.4 M26.5,85c0-0.8-0.4-1.2-1.1-1.2c-0.2,0-0.3,0-0.4,0.1
		c-0.1,0-0.1,0.1-0.1,0.3v2.2c0.6,0,0.9-0.1,1.2-0.3C26.4,85.8,26.5,85.5,26.5,85"/>
	<path class="st125" d="M32,88.7c0-0.2,0-0.2-0.1-0.2s-0.1,0-0.1,0.1c0,0.5-0.2,0.8-0.4,0.8c-0.1,0-0.6,0.1-1.5,0.1v-1.9h0.2
		c0.4,0,0.6,0,0.7,0.1c0.1,0.1,0.1,0.2,0.2,0.6c0,0.1,0.1,0.2,0.1,0.2c0.1,0,0.1,0,0.1-0.1c0,0,0-0.1,0-0.1c0-0.1,0-0.4,0-0.8
		c0-0.1,0-0.2,0-0.3c0-0.1,0-0.3,0-0.3c0-0.1,0-0.2-0.1-0.2c-0.1,0-0.1,0.1-0.1,0.2c0,0.3-0.1,0.4-0.2,0.5c-0.1,0.1-0.3,0.1-0.7,0.1
		H30v-1.6h0.4c0.5,0,0.8,0,0.9,0.1c0.2,0.1,0.4,0.3,0.5,0.8c0,0.1,0.1,0.2,0.1,0.2c0,0,0.1,0,0.1-0.1c0,0,0-0.1,0-0.1
		c0-0.4-0.1-0.7-0.1-0.8l0-0.1v-0.1h-0.4h-0.5H30h-0.4h-0.2h-0.1h-0.2h-0.2c-0.1,0-0.1,0-0.1,0.1c0,0,0,0.1,0.1,0.1
		c0.2,0,0.3,0,0.3,0c0,0,0.1,0.1,0.1,0.4v3c0,0.2,0,0.3,0,0.3c0,0-0.1,0-0.3,0c-0.1,0-0.1,0-0.1,0.1c0,0,0.1,0.1,0.2,0.1l1.6,0
		l1.4,0c0-0.1,0-0.1,0-0.2V89c0-0.1,0-0.1,0-0.2C32,88.7,32,88.7,32,88.7"/>
	<path class="st125" d="M35.7,86.6c0,0.3-0.1,0.6-0.4,0.8c-0.3,0.2-0.6,0.3-1,0.3c-0.1,0-0.2,0-0.3,0h-0.1v1.6c0,0.2,0,0.2,0.1,0.3
		c0.1,0,0.2,0,0.3,0c0.1,0,0.1,0,0.1,0.1c0,0,0,0-0.1,0.1c-0.1,0-0.3,0-0.7,0c-0.5,0-0.8,0-0.9,0c-0.1,0-0.1,0-0.1-0.1
		c0,0,0-0.1,0.1-0.1h0.1c0.1,0,0.2,0,0.2,0c0,0,0,0,0.1,0c0,0,0-0.1,0-0.3v-2.9c0-0.2,0-0.4,0-0.4c0,0-0.1-0.1-0.3-0.1h-0.1
		c-0.1,0-0.1,0-0.1-0.1c0,0,0,0,0.1-0.1c0.1,0,0.3,0,0.6,0c0.7,0,1.2,0,1.4,0C35.4,85.8,35.7,86.1,35.7,86.6 M34.9,86.6
		c0-0.5-0.2-0.8-0.7-0.8c-0.1,0-0.2,0-0.3,0c0,0-0.1,0.1-0.1,0.2v1.5C34.6,87.5,34.9,87.2,34.9,86.6"/>
	<path class="st125" d="M40.2,85.8c0,0,0,0.1-0.1,0.1h0h-0.2c-0.1,0-0.1,0.1-0.1,0.2v1.6c0,0.6,0,0.9,0,1.1c0,0.2-0.1,0.3-0.2,0.5
		c-0.2,0.4-0.6,0.5-1.2,0.5c-0.5,0-0.8-0.1-1.1-0.3c-0.3-0.2-0.4-0.6-0.4-1.2v-1.8c0-0.3,0-0.5,0-0.5c0,0-0.1,0-0.3,0
		c-0.1,0-0.2,0-0.2-0.1c0,0,0-0.1,0.1-0.1h0.1h0.1h0.1h0.7h0.1h0.1c0.1,0,0.2,0,0.2,0.1c0,0.1-0.1,0.1-0.3,0.1c-0.1,0-0.1,0-0.1,0
		c0,0,0,0.1,0,0.2v2.1c0,0.6,0.1,0.9,0.2,1.1c0.2,0.2,0.4,0.3,0.7,0.3c0.4,0,0.7-0.2,0.9-0.5c0.1-0.2,0.1-0.5,0.1-0.9V88v-0.2V86
		c0-0.1,0-0.1,0-0.1c0,0-0.1,0-0.2,0c-0.1,0-0.2,0-0.2-0.1c0,0,0-0.1,0.1-0.1h0.1h0.4h0.1H40h0.1C40.2,85.7,40.2,85.7,40.2,85.8"/>
	<path class="st125" d="M43.3,88.5c0-0.6-0.3-0.9-1-0.9h-0.2v1.7c0,0.1,0,0.1,0,0.1c0,0,0.1,0,0.2,0C43,89.5,43.3,89.2,43.3,88.5
		 M44,88.6c0,0.3-0.1,0.5-0.3,0.7c-0.2,0.2-0.5,0.3-0.8,0.3c-0.2,0-0.6,0-1.3,0h-0.5h0h-0.1c0,0-0.1,0-0.1-0.1c0,0,0-0.1,0-0.1
		c0,0,0.1,0,0.2,0c0.1,0,0.2,0,0.2,0c0,0,0-0.1,0-0.2v-3.1c0-0.1,0-0.2,0-0.3c0,0-0.1,0-0.3,0c-0.1,0-0.2,0-0.2-0.1
		c0,0,0.1-0.1,0.2-0.1h0.1c0.1,0,0.2,0,0.5,0h0.4c0.4,0,0.6,0,0.8,0c0.1,0,0.3,0,0.4,0.1c0.4,0.1,0.6,0.4,0.6,0.8
		c0,0.5-0.4,0.8-1.2,0.9l0,0c0.4,0,0.8,0.1,1,0.3C43.9,88,44,88.3,44,88.6 M43.1,86.6c0-0.4-0.1-0.6-0.3-0.7
		c-0.1-0.1-0.3-0.1-0.5-0.1c-0.1,0-0.2,0-0.2,0l-0.1,0v1.6c0.3,0,0.5,0,0.6-0.1C43,87.3,43.1,87,43.1,86.6"/>
	<path class="st125" d="M48.1,88.8c0-0.3,0-0.4-0.1-0.4c0,0-0.1,0.1-0.1,0.2c0,0.3-0.1,0.5-0.2,0.6c-0.2,0.1-0.5,0.2-1.2,0.2
		c-0.1,0-0.3,0-0.5,0v-3.2c0-0.2,0-0.3,0-0.4c0,0,0.1-0.1,0.2-0.1c0.2,0,0.3,0,0.3-0.1c0,0-0.1-0.1-0.2-0.1h-0.2h-1.2
		c-0.1,0-0.1,0-0.1,0.1c0,0,0,0.1,0.1,0.1c0,0,0.1,0,0.2,0c0.1,0,0.1,0,0.1,0c0.1,0,0.1,0.2,0.1,0.5v2.9c0,0.1,0,0.2,0,0.2
		c0,0-0.1,0-0.1,0c-0.2,0-0.3,0-0.3,0.1c0,0,0,0.1,0.1,0.1h0.7l1.5,0h0.4c0.1,0,0.2,0,0.3,0c0.1,0,0.1,0,0.1,0c0.1,0,0.1,0,0.1,0
		C48.1,89.4,48.1,89.2,48.1,88.8"/>
	<path class="st125" d="M50.4,89.6c0,0,0-0.1-0.1-0.1c-0.2,0-0.3,0-0.3,0c0,0-0.1-0.1-0.1-0.1v-3.2c0-0.1,0-0.2,0-0.2
		c0,0,0.1,0,0.1,0c0.2,0,0.3,0,0.3-0.1c0,0,0-0.1-0.1-0.1H50h-0.2h-0.2h-0.6h-0.2h-0.1c-0.1,0-0.1,0-0.1,0.1c0,0,0,0.1,0.1,0.1h0.1
		h0.2c0.1,0,0.1,0,0.1,0.1c0,0,0,0.2,0,0.4v2.8c0,0.2,0,0.3,0,0.4c0,0-0.1,0.1-0.3,0.1c-0.1,0-0.2,0-0.2,0.1c0,0,0,0,0.1,0h0h0.4
		h0.3h0.1h0.1h0.2h0.2L50.4,89.6C50.4,89.6,50.4,89.6,50.4,89.6"/>
	<path class="st125" d="M54.6,88.3c0-0.1,0-0.2-0.1-0.2c0,0-0.1,0.1-0.1,0.2c-0.1,0.4-0.2,0.6-0.4,0.8c-0.2,0.2-0.4,0.3-0.7,0.3
		c-0.4,0-0.7-0.2-0.9-0.5c-0.2-0.3-0.3-0.8-0.3-1.4c0-0.6,0.1-1,0.3-1.4c0.2-0.3,0.5-0.5,0.8-0.5c0.4,0,0.7,0.2,0.9,0.5
		c0.1,0.1,0.2,0.4,0.2,0.7c0,0.1,0,0.1,0.1,0.1c0.1,0,0.1-0.1,0.1-0.4c0-0.4,0-0.7,0.1-0.9c0,0,0-0.1,0-0.1c0-0.1,0-0.1-0.1-0.1
		c-0.1,0-0.1,0.1-0.1,0.2c0,0.1-0.1,0.1-0.1,0.1c0,0,0,0-0.1,0c-0.3-0.2-0.7-0.3-1.1-0.3c-0.6,0-1,0.2-1.4,0.6
		c-0.4,0.4-0.5,0.9-0.5,1.4c0,0.6,0.2,1.1,0.6,1.5c0.4,0.4,0.9,0.6,1.4,0.6c0.5,0,0.8-0.1,1.1-0.4c0,0,0,0,0,0l0.1,0.2
		c0,0.1,0.1,0.1,0.1,0.1c0,0,0.1,0,0.1-0.1v-0.1c0-0.2,0-0.3,0-0.4c0-0.1,0-0.3,0-0.7C54.6,88.4,54.6,88.3,54.6,88.3"/>
	<path class="st125" d="M59.3,89.6c0,0-0.1,0.1-0.2,0.1H59h-0.5h-0.2h-0.4h-0.3h-0.2h0c-0.1,0-0.2,0-0.2-0.1c0,0,0.1-0.1,0.3-0.1
		c0.2,0,0.4,0,0.4-0.1c0,0,0-0.1-0.1-0.2c0,0-0.1-0.2-0.2-0.6l-0.1-0.3h-1.2c-0.2,0.6-0.4,0.9-0.4,1c0,0.1,0,0.1,0.1,0.1l0.1,0h0.1
		l0.1,0c0.1,0,0.1,0,0.1,0.1c0,0-0.1,0.1-0.2,0.1c0,0-0.1,0-0.3,0c-0.2,0-0.4,0-0.5,0h-0.1l-0.1,0l-0.1,0h0c-0.1,0-0.1,0-0.1-0.1
		c0,0,0-0.1,0.1-0.1c0.1,0,0.2,0,0.2,0c0.1,0,0.2,0,0.2-0.1c0,0,0.2-0.3,0.4-1c0.1-0.3,0.2-0.5,0.3-0.7c0-0.1,0.1-0.1,0.1-0.2
		c0,0,0-0.1,0.1-0.2c0.1-0.2,0.2-0.6,0.4-1.1l0.1-0.4l0.1-0.2c0-0.1,0.1-0.1,0.1-0.1c0,0,0.1,0.1,0.1,0.2c0.2,0.4,0.6,1.5,1.3,3.3
		c0.1,0.2,0.1,0.3,0.2,0.3c0,0,0.1,0,0.3,0C59.2,89.5,59.3,89.5,59.3,89.6 M57.5,88.2L57,86.7c-0.1,0.3-0.3,0.8-0.6,1.5H57.5z"/>
	<path class="st125" d="M67.1,86.7c0,0.9-0.3,1.6-0.8,2.2c-0.5,0.6-1.1,0.9-1.9,0.9c-0.8,0-1.5-0.3-2-0.9c-0.5-0.6-0.8-1.3-0.8-2.2
		c0-0.9,0.3-1.6,0.8-2.2c0.5-0.6,1.2-0.9,2-0.9c0.8,0,1.4,0.3,1.9,0.9C66.9,85,67.1,85.8,67.1,86.7 M66.2,86.7
		c0-1.1-0.2-1.9-0.6-2.5c-0.3-0.4-0.6-0.6-1.1-0.6c-0.5,0-0.8,0.1-1.1,0.4c-0.5,0.5-0.7,1.4-0.7,2.5c0,0.9,0.2,1.6,0.5,2.2
		c0.3,0.5,0.8,0.8,1.4,0.8c0.5,0,1-0.2,1.2-0.7C66,88.3,66.2,87.6,66.2,86.7"/>
	<path class="st125" d="M71.5,89.4c0,0.2-0.2,0.3-0.5,0.3c-0.3,0-0.6-0.1-0.8-0.3c-0.1-0.1-0.1-0.2-0.2-0.3c0-0.1-0.1-0.3-0.1-0.7
		c0-0.2-0.1-0.4-0.2-0.5c-0.1-0.1-0.4-0.2-0.7-0.2v1.8c0,0.1,0.1,0.1,0.4,0.1c0.1,0,0.1,0,0.1,0.1s0,0.1-0.1,0.1h-0.2H69h-0.5h-0.3
		h-0.2c-0.2,0-0.2,0-0.2-0.1c0,0,0-0.1,0.1-0.1H68h0c0.2,0,0.3,0,0.3-0.1V86c0-0.1,0-0.1,0-0.1c0,0-0.1,0-0.2,0
		c-0.1,0-0.2,0-0.2-0.1c0,0,0-0.1,0.1-0.1H68h0.8h0.5h0.3c0.4,0,0.7,0.1,0.9,0.2c0.2,0.2,0.3,0.4,0.3,0.6c0,0.3-0.1,0.5-0.4,0.7
		c-0.2,0.2-0.6,0.3-1,0.3c0.5,0,0.8,0.2,1,0.4c0.2,0.2,0.3,0.6,0.3,1.1c0,0.4,0.1,0.5,0.3,0.5c0,0,0,0,0,0c0,0,0,0,0-0.1
		c0,0,0-0.1,0-0.1c0-0.1,0.1-0.2,0.2-0.2C71.4,89.2,71.5,89.3,71.5,89.4 M70.1,86.6c0-0.5-0.3-0.8-0.8-0.8c-0.1,0-0.2,0-0.2,0
		c0,0,0,0.1,0,0.2v1.4C69.8,87.5,70.1,87.2,70.1,86.6"/>
	<path class="st125" d="M73.7,89.6c0,0,0-0.1-0.1-0.1c-0.2,0-0.3,0-0.3,0c0,0-0.1-0.1-0.1-0.1v-3.2c0-0.1,0-0.2,0-0.2
		c0,0,0.1,0,0.1,0c0.2,0,0.3,0,0.3-0.1c0,0,0-0.1-0.1-0.1h-0.2h-0.2h-0.2h-0.6h-0.2h-0.1c-0.1,0-0.1,0-0.1,0.1c0,0,0,0.1,0.1,0.1
		h0.1h0.2c0.1,0,0.1,0,0.1,0.1c0,0,0,0.2,0,0.4v2.8c0,0.2,0,0.3,0,0.4c0,0-0.1,0.1-0.3,0.1c-0.1,0-0.2,0-0.2,0.1c0,0,0,0,0.1,0h0
		h0.4h0.3h0.1h0.1h0.2h0.2L73.7,89.6C73.6,89.6,73.7,89.6,73.7,89.6"/>
	<path class="st125" d="M77.7,88.7c0-0.2,0-0.2-0.1-0.2c-0.1,0-0.1,0-0.1,0.1c0,0.5-0.2,0.8-0.4,0.8c-0.1,0-0.6,0.1-1.5,0.1v-1.9
		h0.2c0.4,0,0.6,0,0.7,0.1c0.1,0.1,0.1,0.2,0.2,0.6c0,0.1,0,0.2,0.1,0.2c0.1,0,0.1,0,0.1-0.1c0,0,0-0.1,0-0.1c0-0.1,0-0.4,0-0.8
		c0-0.1,0-0.2,0-0.3c0-0.1,0-0.3,0-0.3c0-0.1,0-0.2-0.1-0.2c-0.1,0-0.1,0.1-0.1,0.2c0,0.3-0.1,0.4-0.2,0.5c-0.1,0.1-0.3,0.1-0.7,0.1
		h-0.2v-1.6H76c0.5,0,0.8,0,0.9,0.1c0.2,0.1,0.4,0.3,0.5,0.8c0,0.1,0.1,0.2,0.1,0.2c0,0,0.1,0,0.1-0.1c0,0,0-0.1,0-0.1
		c0-0.4-0.1-0.7-0.1-0.8l0-0.1v-0.1h-0.4h-0.5h-1h-0.4H75h-0.1h-0.2h-0.2c-0.1,0-0.1,0-0.1,0.1c0,0,0,0.1,0.1,0.1c0.2,0,0.3,0,0.3,0
		c0,0,0.1,0.1,0.1,0.4v3c0,0.2,0,0.3,0,0.3c0,0-0.1,0-0.3,0c-0.1,0-0.1,0-0.1,0.1c0,0,0.1,0.1,0.2,0.1l1.6,0l1.4,0
		c0-0.1,0-0.1,0-0.2V89c0-0.1,0-0.1,0-0.2C77.7,88.7,77.7,88.7,77.7,88.7"/>
	<path class="st125" d="M82.1,85.8C82.1,85.7,82.1,85.7,82.1,85.8c-0.1-0.1-0.3-0.1-0.6-0.1c-0.3,0-0.5,0-0.6,0c-0.1,0-0.1,0-0.1,0
		c0,0,0.1,0.1,0.2,0.1H81h0.2c0.1,0,0.1,0,0.1,0c0,0,0,0.1,0,0.3v2.4l-2-2.8H79h-0.2h-0.1h-0.5h0c-0.1,0-0.1,0-0.1,0.1
		c0,0,0.1,0.1,0.2,0.1c0.2,0,0.3,0.1,0.4,0.2c0.1,0.1,0.1,0.3,0.1,0.8v2.4c0,0.1,0,0.2,0,0.3c0,0-0.1,0.1-0.2,0.1l-0.1,0h-0.1
		c-0.1,0-0.2,0-0.2,0.1c0,0,0,0.1,0.1,0.1c0.1,0,0.2,0,0.4,0c0.1,0,0.1,0,0.2,0c0.1,0,0.1,0,0.2,0c0.2,0,0.3,0,0.3,0
		c0.1,0,0.2,0,0.2-0.1c0,0,0-0.1-0.1-0.1h0c-0.2,0-0.3,0-0.3,0c-0.1,0-0.1-0.1-0.1-0.3v-2.7c0.8,1,1.3,1.8,1.6,2.1
		c0.1,0.1,0.1,0.1,0.1,0.1c0.1,0.1,0.1,0.2,0.2,0.3c0.3,0.5,0.6,0.7,0.6,0.7c0,0,0.1,0,0.1-0.1c0,0,0-0.2,0-0.4v-3.2
		c0-0.1,0-0.2,0-0.2c0,0,0,0,0.1,0h0.1h0.1C82,85.8,82.1,85.8,82.1,85.8"/>
	<path class="st125" d="M86.1,86.7C86.1,86.7,86.1,86.7,86.1,86.7l0-0.3l0-0.4l0-0.3l0-0.2c-0.1,0-0.1,0-0.2,0c-0.5,0-0.9,0-1.1,0
		h-2c-0.1,0.5-0.1,0.8-0.1,1c0,0.1,0,0.2,0.1,0.2c0.1,0,0.1-0.1,0.1-0.2c0-0.4,0.1-0.6,0.3-0.7c0.1-0.1,0.4-0.1,0.9-0.1v3.1
		c0,0.2,0,0.4,0,0.4c0,0,0,0.1-0.1,0.1c0,0-0.1,0-0.1,0c-0.2,0-0.3,0-0.3,0.1c0,0,0.1,0.1,0.2,0.1h0.2h0.5h0.2h0.2H85h0.1
		c0.1,0,0.1,0,0.1-0.1c0,0-0.1-0.1-0.2-0.1c-0.2,0-0.2-0.1-0.2-0.2v-3.5c0.1,0,0.2,0,0.3,0c0.4,0,0.6,0.1,0.8,0.3
		c0.1,0.1,0.1,0.3,0.1,0.6c0,0.1,0,0.2,0.1,0.2C86.1,86.9,86.1,86.8,86.1,86.7"/>
	<path class="st125" d="M89.9,89.6c0,0-0.1,0.1-0.2,0.1h-0.1h-0.5h-0.2h-0.4h-0.3h-0.2h0c-0.1,0-0.2,0-0.2-0.1c0,0,0.1-0.1,0.3-0.1
		c0.2,0,0.4,0,0.4-0.1c0,0,0-0.1-0.1-0.2c0,0-0.1-0.2-0.2-0.6l-0.1-0.3H87c-0.2,0.6-0.4,0.9-0.4,1c0,0.1,0,0.1,0.1,0.1l0.1,0H87
		l0.1,0c0.1,0,0.1,0,0.1,0.1c0,0-0.1,0.1-0.2,0.1c0,0-0.1,0-0.3,0c-0.2,0-0.4,0-0.5,0h-0.1l-0.1,0l-0.1,0h0c-0.1,0-0.1,0-0.1-0.1
		c0,0,0-0.1,0.1-0.1c0.1,0,0.2,0,0.2,0c0.1,0,0.2,0,0.2-0.1c0,0,0.2-0.3,0.4-1c0.1-0.3,0.2-0.5,0.3-0.7c0-0.1,0.1-0.1,0.1-0.2
		c0,0,0-0.1,0.1-0.2c0.1-0.2,0.2-0.6,0.4-1.1l0.1-0.4l0.1-0.2c0-0.1,0.1-0.1,0.1-0.1c0,0,0.1,0.1,0.1,0.2c0.2,0.4,0.6,1.5,1.3,3.3
		c0.1,0.2,0.1,0.3,0.2,0.3c0,0,0.1,0,0.3,0C89.9,89.5,89.9,89.5,89.9,89.6 M88.2,88.2l-0.6-1.5c-0.1,0.3-0.3,0.8-0.6,1.5H88.2z"/>
	<path class="st125" d="M93.5,88.8c0-0.3,0-0.4-0.1-0.4c-0.1,0-0.1,0.1-0.1,0.2c0,0.3-0.1,0.5-0.2,0.6c-0.2,0.1-0.5,0.2-1.2,0.2
		c-0.1,0-0.3,0-0.5,0v-3.2c0-0.2,0-0.3,0-0.4c0,0,0.1-0.1,0.2-0.1c0.2,0,0.3,0,0.3-0.1c0,0-0.1-0.1-0.2-0.1h-0.2h-1.2
		c-0.1,0-0.1,0-0.1,0.1c0,0,0,0.1,0.1,0.1c0,0,0.1,0,0.2,0s0.1,0,0.2,0c0.1,0,0.1,0.2,0.1,0.5v2.9c0,0.1,0,0.2,0,0.2
		c0,0-0.1,0-0.1,0c-0.2,0-0.3,0-0.3,0.1c0,0,0,0.1,0.1,0.1H91l1.5,0h0.4c0.1,0,0.2,0,0.3,0c0.1,0,0.1,0,0.1,0c0.1,0,0.1,0,0.1,0
		C93.5,89.4,93.5,89.2,93.5,88.8"/>
	<path class="st125" d="M100.1,87.7c0,0.7-0.3,1.2-0.8,1.6c-0.4,0.3-0.9,0.4-1.4,0.4h-0.2h-0.7h-0.2h-0.2h-0.3h-0.1
		c-0.1,0-0.1,0-0.1-0.1c0,0,0-0.1,0.1-0.1h0.2c0.1,0,0.2,0,0.2-0.1c0,0,0-0.1,0-0.3v-2.8c0-0.3,0-0.4,0-0.4c0,0-0.1-0.1-0.3-0.1
		c-0.1,0-0.2,0-0.2-0.1c0,0,0-0.1,0.2-0.1h0.1h0.3h0.6c0.8,0,1.3,0,1.6,0.1c0.4,0.1,0.7,0.3,0.9,0.7
		C99.9,86.8,100.1,87.2,100.1,87.7 M99.2,87.6c0-1.2-0.5-1.8-1.4-1.8c-0.3,0-0.4,0-0.5,0c0,0,0,0.1,0,0.3v3c0,0.1,0,0.2,0.1,0.2
		c0,0,0.2,0,0.4,0C98.7,89.5,99.2,88.8,99.2,87.6"/>
	<path class="st125" d="M103.8,88.7c0-0.2,0-0.2-0.1-0.2c-0.1,0-0.1,0-0.1,0.1c0,0.5-0.2,0.8-0.4,0.8c-0.1,0-0.6,0.1-1.5,0.1v-1.9
		h0.2c0.4,0,0.6,0,0.7,0.1c0.1,0.1,0.1,0.2,0.2,0.6c0,0.1,0.1,0.2,0.1,0.2c0.1,0,0.1,0,0.1-0.1c0,0,0-0.1,0-0.1c0-0.1,0-0.4,0-0.8
		c0-0.1,0-0.2,0-0.3c0-0.1,0-0.3,0-0.3c0-0.1,0-0.2-0.1-0.2c-0.1,0-0.1,0.1-0.1,0.2c0,0.3-0.1,0.4-0.2,0.5c-0.1,0.1-0.3,0.1-0.7,0.1
		h-0.2v-1.6h0.4c0.5,0,0.8,0,0.9,0.1c0.2,0.1,0.4,0.3,0.5,0.8c0,0.1,0.1,0.2,0.1,0.2c0,0,0.1,0,0.1-0.1c0,0,0-0.1,0-0.1
		c0-0.4-0.1-0.7-0.1-0.8l0-0.1v-0.1h-0.4h-0.5h-0.9h-0.4h-0.2H101h-0.2h-0.2c-0.1,0-0.1,0-0.1,0.1c0,0,0,0.1,0.1,0.1
		c0.2,0,0.3,0,0.3,0c0,0,0.1,0.1,0.1,0.4v3c0,0.2,0,0.3,0,0.3s-0.1,0-0.3,0c-0.1,0-0.1,0-0.1,0.1c0,0,0.1,0.1,0.2,0.1l1.6,0l1.4,0
		c0-0.1,0-0.1,0-0.2V89c0-0.1,0-0.1,0-0.2C103.8,88.7,103.8,88.7,103.8,88.7"/>
	<path class="st125" d="M107.7,88.8c0-0.3,0-0.4-0.1-0.4c-0.1,0-0.1,0.1-0.1,0.2c0,0.3-0.1,0.5-0.2,0.6c-0.2,0.1-0.5,0.2-1.2,0.2
		c-0.1,0-0.3,0-0.5,0v-3.2c0-0.2,0-0.3,0-0.4c0,0,0.1-0.1,0.2-0.1c0.2,0,0.3,0,0.3-0.1c0,0-0.1-0.1-0.2-0.1h-0.2h-1.2
		c-0.1,0-0.1,0-0.1,0.1c0,0,0,0.1,0.1,0.1c0,0,0.1,0,0.2,0c0.1,0,0.1,0,0.1,0c0.1,0,0.1,0.2,0.1,0.5v2.9c0,0.1,0,0.2,0,0.2
		c0,0-0.1,0-0.1,0c-0.2,0-0.3,0-0.3,0.1c0,0,0,0.1,0.1,0.1h0.7l1.5,0h0.4c0.1,0,0.2,0,0.3,0c0.1,0,0.1,0,0.1,0c0.1,0,0.1,0,0.1,0
		C107.7,89.4,107.7,89.2,107.7,88.8"/>
	<path class="st125" d="M115.8,83.7c0-0.1-0.1-0.1-0.2-0.1h-0.1h-0.2H115h-0.8h-0.1c-0.1,0-0.1,0-0.1,0.1c0,0.1,0.1,0.1,0.2,0.1
		c0.2,0,0.3,0,0.4,0c0.1,0,0.2,0.1,0.2,0.2v0.1v0.2v0.6v0.7v0.5c0,1.1,0,1.7,0,1.9c-0.1,1-0.6,1.5-1.5,1.5c-0.5,0-0.8-0.1-1.1-0.4
		c-0.2-0.3-0.4-0.8-0.4-1.5v-3.1c0-0.3,0-0.5,0-0.5c0-0.1,0-0.1,0.1-0.1c0,0,0.1,0,0.2,0c0.2,0,0.3,0,0.3,0c0,0,0.1,0,0.1-0.1
		c0-0.1,0-0.1-0.1-0.1h-0.1H111h-0.3h-0.2h-0.2c-0.1,0-0.1,0-0.1,0.1c0,0,0,0.1,0.1,0.1c0.2,0,0.3,0,0.3,0c0.1,0,0.2,0.1,0.2,0.2
		v3.5c0,0.7,0.1,1.2,0.3,1.6c0.3,0.5,0.9,0.7,1.8,0.7c0.7,0,1.2-0.2,1.5-0.6c0.3-0.4,0.5-1,0.5-1.8v-3.2c0-0.1,0-0.2,0-0.2
		c0-0.1,0.1-0.1,0.3-0.1h0.1h0.2C115.7,83.8,115.8,83.8,115.8,83.7"/>
	<path class="st125" d="M119.5,89.4c0,0.2-0.2,0.3-0.5,0.3c-0.3,0-0.6-0.1-0.8-0.3c-0.1-0.1-0.1-0.2-0.2-0.3c0-0.1-0.1-0.3-0.1-0.7
		c0-0.2-0.1-0.4-0.2-0.5c-0.1-0.1-0.4-0.2-0.7-0.2v1.8c0,0.1,0.1,0.1,0.4,0.1c0.1,0,0.1,0,0.1,0.1s0,0.1-0.1,0.1h-0.2H117h-0.5h-0.3
		h-0.2c-0.2,0-0.2,0-0.2-0.1c0,0,0-0.1,0.1-0.1h0.1h0c0.2,0,0.3,0,0.3-0.1V86c0-0.1,0-0.1,0-0.1c0,0-0.1,0-0.3,0
		c-0.1,0-0.2,0-0.2-0.1c0,0,0-0.1,0.1-0.1h0.1h0.8h0.5h0.3c0.4,0,0.7,0.1,0.9,0.2c0.2,0.2,0.4,0.4,0.4,0.6c0,0.3-0.1,0.5-0.4,0.7
		c-0.2,0.2-0.6,0.3-1,0.3c0.5,0,0.8,0.2,1,0.4c0.2,0.2,0.3,0.6,0.4,1.1c0,0.4,0.1,0.5,0.3,0.5c0,0,0,0,0,0c0,0,0,0,0-0.1
		c0,0,0-0.1,0-0.1c0-0.1,0.1-0.2,0.2-0.2C119.4,89.2,119.5,89.3,119.5,89.4 M118.1,86.6c0-0.5-0.3-0.8-0.8-0.8c-0.1,0-0.2,0-0.2,0
		c0,0-0.1,0.1-0.1,0.2v1.4C117.7,87.5,118.1,87.2,118.1,86.6"/>
	<path class="st125" d="M123.8,85.8c0,0,0-0.1-0.1-0.1h-0.1h-0.3h-0.1h-0.4h-0.1c-0.1,0-0.1,0-0.1,0.1c0,0,0.1,0.1,0.2,0.1
		c0.1,0,0.2,0,0.2,0c0,0,0,0.1,0,0.1v1.8V88v0.1c0,0.4,0,0.7-0.1,0.9c-0.2,0.4-0.5,0.5-0.9,0.5c-0.3,0-0.6-0.1-0.7-0.3
		c-0.1-0.2-0.2-0.5-0.2-1.1v-2.1c0-0.1,0-0.2,0-0.2c0,0,0.1,0,0.1,0c0.2,0,0.3,0,0.3-0.1c0,0-0.1-0.1-0.2-0.1h-0.1h-0.1h-0.7h-0.1
		h-0.1H120c-0.1,0-0.1,0-0.1,0.1c0,0,0.1,0.1,0.2,0.1c0.1,0,0.2,0,0.3,0c0,0,0,0.2,0,0.5v1.8c0,0.6,0.1,1,0.4,1.2
		c0.3,0.2,0.7,0.3,1.1,0.3c0.6,0,1-0.2,1.2-0.5c0.1-0.2,0.2-0.3,0.2-0.5c0-0.2,0-0.5,0-1.1V86c0-0.1,0-0.2,0.1-0.2h0.2h0
		C123.8,85.8,123.8,85.8,123.8,85.8"/>
	<path class="st125" d="M128.4,88.4c0-0.1,0-0.1-0.1-0.1h-0.2h-0.7h-0.1h-0.2h-0.2c-0.1,0-0.2,0-0.2,0.1c0,0,0,0.1,0.1,0.1h0.1h0.1
		c0.2,0,0.3,0,0.3,0c0,0,0,0.1,0,0.3c0,0.2,0,0.3,0,0.4c-0.1,0.2-0.3,0.3-0.6,0.3c-0.4,0-0.7-0.2-0.9-0.5c-0.2-0.3-0.3-0.8-0.3-1.4
		c0-0.6,0.1-1.1,0.3-1.4c0.2-0.3,0.5-0.5,0.9-0.5c0.3,0,0.6,0.1,0.8,0.3c0.2,0.2,0.3,0.5,0.3,0.9c0,0.1,0,0.1,0.1,0.1
		c0.1,0,0.1-0.1,0.1-0.2c0-0.5,0-0.8,0-1c0-0.1,0-0.2,0-0.1c0,0,0-0.1-0.1-0.1c0,0-0.1,0.1-0.1,0.2c0,0.1-0.1,0.1-0.1,0.1
		c0,0,0,0-0.1,0c-0.4-0.2-0.7-0.3-1-0.3c-0.6,0-1.1,0.2-1.4,0.6c-0.4,0.4-0.5,0.9-0.5,1.5c0,0.6,0.2,1.1,0.6,1.4
		c0.4,0.4,0.9,0.5,1.5,0.5c0.5,0,0.9-0.2,1.3-0.5v-0.3c0-0.2,0-0.3,0-0.3c0,0,0-0.1,0.1-0.1h0.3C128.3,88.5,128.4,88.5,128.4,88.4"
		/>
	<path class="st125" d="M132.7,85.8c0,0,0-0.1-0.1-0.1h-0.1h-0.3H132h-0.4h-0.1c-0.1,0-0.1,0-0.1,0.1c0,0,0.1,0.1,0.2,0.1
		c0.1,0,0.2,0,0.2,0c0,0,0,0.1,0,0.1v1.8V88v0.1c0,0.4,0,0.7-0.1,0.9c-0.2,0.4-0.5,0.5-0.9,0.5c-0.3,0-0.6-0.1-0.7-0.3
		c-0.1-0.2-0.2-0.5-0.2-1.1v-2.1c0-0.1,0-0.2,0-0.2c0,0,0,0,0.1,0c0.2,0,0.3,0,0.3-0.1c0,0-0.1-0.1-0.2-0.1h-0.1H130h-0.7h-0.1H129
		h-0.1c-0.1,0-0.1,0-0.1,0.1c0,0,0.1,0.1,0.2,0.1c0.2,0,0.2,0,0.3,0c0,0,0,0.2,0,0.5v1.8c0,0.6,0.1,1,0.4,1.2
		c0.3,0.2,0.7,0.3,1.1,0.3c0.6,0,1-0.2,1.2-0.5c0.1-0.2,0.2-0.3,0.2-0.5c0-0.2,0-0.5,0-1.1V86c0-0.1,0-0.2,0.1-0.2h0.2h0
		C132.6,85.8,132.7,85.8,132.7,85.8"/>
	<path class="st125" d="M136.6,89.6c0,0-0.1,0.1-0.2,0.1h-0.1h-0.5h-0.2h-0.4H135h-0.2h0c-0.1,0-0.2,0-0.2-0.1c0,0,0.1-0.1,0.3-0.1
		c0.2,0,0.4,0,0.4-0.1c0,0,0-0.1-0.1-0.2c0,0-0.1-0.2-0.2-0.6l-0.1-0.3h-1.2c-0.2,0.6-0.4,0.9-0.4,1c0,0.1,0,0.1,0.1,0.1l0.1,0h0.1
		l0.1,0c0.1,0,0.1,0,0.1,0.1c0,0-0.1,0.1-0.2,0.1c0,0-0.1,0-0.3,0c-0.2,0-0.3,0-0.5,0h-0.1l-0.1,0l-0.1,0h0c-0.1,0-0.1,0-0.1-0.1
		c0,0,0-0.1,0.1-0.1c0.1,0,0.2,0,0.2,0c0.1,0,0.2,0,0.2-0.1c0,0,0.2-0.3,0.4-1c0.1-0.3,0.2-0.5,0.3-0.7c0-0.1,0.1-0.1,0.1-0.2
		c0,0,0-0.1,0.1-0.2c0.1-0.2,0.2-0.6,0.4-1.1l0.1-0.4l0.1-0.2c0-0.1,0.1-0.1,0.1-0.1c0,0,0.1,0.1,0.1,0.2c0.2,0.4,0.6,1.5,1.3,3.3
		c0.1,0.2,0.1,0.3,0.2,0.3c0,0,0.1,0,0.3,0C136.6,89.5,136.6,89.5,136.6,89.6 M134.9,88.2l-0.6-1.5c-0.1,0.3-0.3,0.8-0.6,1.5H134.9z
		"/>
	<path class="st125" d="M140.2,85.8c0-0.1-0.2-0.1-0.6-0.1h-0.2H139c-0.1,0-0.1,0-0.1,0.1c0,0,0,0.1,0.1,0.1h0.1h0.2
		c0.1,0,0.1,0,0.1,0.1c0,0.1-0.3,0.6-0.9,1.7c-0.6-1-0.9-1.6-0.9-1.7c0-0.1,0.1-0.1,0.3-0.1c0.1,0,0.2,0,0.2-0.1c0,0,0-0.1-0.1-0.1
		h-0.1h-0.8h-0.3h-0.4h-0.2c-0.1,0-0.1,0-0.1,0.1c0,0,0,0.1,0.1,0.1c0.2,0,0.4,0,0.4,0.1c0.1,0.1,0.1,0.2,0.2,0.3
		c0.1,0.1,0.1,0.2,0.2,0.4l0.6,1c0.1,0.1,0.1,0.2,0.2,0.3v1.1c0,0.2,0,0.3,0,0.3c0,0-0.1,0-0.3,0.1c-0.2,0-0.3,0-0.3,0.1
		c0,0,0,0.1,0.1,0.1h0.1h0.4h0.1h0.3h0.3h0.2h0.2h0.1c0.1,0,0.1,0,0.1-0.1c0,0-0.1-0.1-0.2-0.1c-0.2,0-0.3,0-0.4,0
		c0,0-0.1-0.1-0.1-0.2v-1.1c0-0.2,0-0.3,0-0.3c0-0.1,0.1-0.1,0.1-0.3c0.2-0.3,0.4-0.6,0.5-1c0.2-0.4,0.3-0.6,0.4-0.7
		c0.1,0,0.2-0.1,0.4-0.1C140.2,85.8,140.2,85.8,140.2,85.8"/>
</g>
</svg>
