<?xml version="1.0" encoding="utf-8"?>
<!-- Generator: Adobe Illustrator 19.1.0, SVG Export Plug-In . SVG Version: 6.00 Build 0)  -->
<svg version="1.1" id="Layer_1" xmlns="http://www.w3.org/2000/svg" xmlns:xlink="http://www.w3.org/1999/xlink" x="0px" y="0px"
	 viewBox="21.2 51.2 108 55.5" style="enable-background:new 21.2 51.2 108 55.5;" xml:space="preserve">
<style type="text/css">
	.st0{fill:#FFFFFF;}
</style>
<g id="Capa1">
	<g transform="matrix(1,0,0,1,40.9241,148.093)">
		<path class="st0" d="M24.4-65.6l-6.2-6.2l0.4-0.4l6.2,6.2L24.4-65.6z"/>
	</g>
	<g transform="matrix(1,0,0,1,40.9241,148.093)">
		<path class="st0" d="M75.3-80.3c0.4,0,0.8-0.2,1.1-0.5c0.3-0.3,0.5-0.7,0.5-1.2c0-0.4-0.2-0.8-0.5-1.1c-0.3-0.3-0.7-0.5-1.1-0.5
			c-0.5,0-0.9,0.2-1.2,0.5c-0.3,0.3-0.5,0.7-0.5,1.2c0,0.5,0.2,0.9,0.5,1.2C74.4-80.5,74.8-80.3,75.3-80.3 M75.3-80
			c-0.6,0-1-0.2-1.4-0.6c-0.4-0.4-0.6-0.9-0.6-1.4c0-0.6,0.2-1,0.6-1.4c0.4-0.4,0.9-0.6,1.4-0.6c0.5,0,1,0.2,1.4,0.6
			c0.4,0.4,0.6,0.9,0.6,1.4c0,0.6-0.2,1-0.6,1.4C76.3-80.2,75.8-80,75.3-80"/>
	</g>
	<g transform="matrix(1,0,0,1,40.9241,148.093)">
		<path class="st0" d="M25.7-66.3c-0.4,0-0.8,0.2-1.1,0.5c-0.3,0.3-0.5,0.7-0.5,1.2c0,0.4,0.2,0.8,0.5,1.1c0.3,0.3,0.7,0.5,1.1,0.5
			c0.5,0,0.9-0.2,1.2-0.5c0.3-0.3,0.5-0.7,0.5-1.2c0-0.5-0.2-0.9-0.5-1.2C26.6-66.1,26.2-66.3,25.7-66.3 M25.8-66.7
			c0.6,0,1,0.2,1.4,0.6c0.4,0.4,0.6,0.9,0.6,1.4c0,0.6-0.2,1-0.6,1.4c-0.4,0.4-0.9,0.6-1.4,0.6c-0.5,0-1-0.2-1.4-0.6
			c-0.4-0.4-0.6-0.9-0.6-1.4c0-0.6,0.2-1,0.6-1.4C24.7-66.5,25.2-66.7,25.8-66.7"/>
	</g>
	<g transform="matrix(1,0,0,1,40.9241,148.093)">
		<path class="st0" d="M17.2-83.3c-0.4,0-0.8,0.2-1.1,0.5c-0.3,0.3-0.5,0.7-0.5,1.2c0,0.4,0.2,0.8,0.5,1.1c0.3,0.3,0.7,0.5,1.1,0.5
			c0.5,0,0.9-0.2,1.2-0.5c0.3-0.3,0.5-0.7,0.5-1.2c0-0.5-0.2-0.9-0.5-1.2C18.1-83.1,17.7-83.3,17.2-83.3 M17.3-83.7
			c0.6,0,1,0.2,1.4,0.6c0.4,0.4,0.6,0.9,0.6,1.4c0,0.6-0.2,1-0.6,1.4c-0.4,0.4-0.9,0.6-1.4,0.6c-0.5,0-1-0.2-1.4-0.6
			c-0.4-0.4-0.6-0.9-0.6-1.4c0-0.6,0.2-1,0.6-1.4C16.2-83.5,16.7-83.7,17.3-83.7"/>
	</g>
	<g transform="matrix(1,0,0,1,40.9241,148.093)">
		<path class="st0" d="M30.5-83.3c-0.4,0-0.8,0.2-1.1,0.5c-0.3,0.3-0.5,0.7-0.5,1.2c0,0.4,0.2,0.8,0.5,1.1c0.3,0.3,0.7,0.5,1.1,0.5
			c0.5,0,0.9-0.2,1.2-0.5c0.3-0.3,0.5-0.7,0.5-1.2c0-0.5-0.2-0.9-0.5-1.2C31.4-83.1,31-83.3,30.5-83.3 M30.6-83.7
			c0.6,0,1,0.2,1.4,0.6c0.4,0.4,0.6,0.9,0.6,1.4c0,0.6-0.2,1-0.6,1.4c-0.4,0.4-0.9,0.6-1.4,0.6c-0.5,0-1-0.2-1.4-0.6
			c-0.4-0.4-0.6-0.9-0.6-1.4c0-0.6,0.2-1,0.6-1.4C29.5-83.5,30-83.7,30.6-83.7"/>
	</g>
	<g transform="matrix(1,0,0,1,40.9241,148.093)">
		<path class="st0" d="M47.6-66.3c-0.4,0-0.8,0.2-1.1,0.5c-0.3,0.3-0.5,0.7-0.5,1.2c0,0.4,0.2,0.8,0.5,1.1c0.3,0.3,0.7,0.5,1.1,0.5
			c0.5,0,0.9-0.2,1.2-0.5c0.3-0.3,0.5-0.7,0.5-1.2c0-0.5-0.2-0.9-0.5-1.2C48.5-66.1,48.1-66.3,47.6-66.3 M47.7-66.7
			c0.6,0,1,0.2,1.4,0.6c0.4,0.4,0.6,0.9,0.6,1.4c0,0.6-0.2,1-0.6,1.4c-0.4,0.4-0.9,0.6-1.4,0.6c-0.5,0-1-0.2-1.4-0.6
			c-0.4-0.4-0.6-0.9-0.6-1.4c0-0.6,0.2-1,0.6-1.4C46.6-66.5,47.1-66.7,47.7-66.7"/>
	</g>
	<g transform="matrix(1,0,0,1,40.9241,148.093)">
		<path class="st0" d="M66.3-66.3c-0.4,0-0.8,0.2-1.1,0.5c-0.3,0.3-0.5,0.7-0.5,1.2c0,0.4,0.2,0.8,0.5,1.1c0.3,0.3,0.7,0.5,1.1,0.5
			c0.5,0,0.9-0.2,1.2-0.5c0.3-0.3,0.5-0.7,0.5-1.2c0-0.5-0.2-0.9-0.5-1.2C67.2-66.1,66.8-66.3,66.3-66.3 M66.3-66.6
			c0.6,0,1,0.2,1.4,0.6c0.4,0.4,0.6,0.9,0.6,1.4c0,0.6-0.2,1-0.6,1.4c-0.4,0.4-0.9,0.6-1.4,0.6c-0.5,0-1-0.2-1.4-0.6
			c-0.4-0.4-0.6-0.9-0.6-1.4c0-0.6,0.2-1,0.6-1.4C65.3-66.4,65.8-66.6,66.3-66.6"/>
	</g>
	<g transform="matrix(1,0,0,1,40.9241,148.093)">
		<path class="st0" d="M75.2-66.3c-0.4,0-0.8,0.2-1.1,0.5c-0.3,0.3-0.5,0.7-0.5,1.2c0,0.4,0.2,0.8,0.5,1.1c0.3,0.3,0.7,0.5,1.1,0.5
			c0.5,0,0.9-0.2,1.2-0.5c0.3-0.3,0.5-0.7,0.5-1.2c0-0.5-0.2-0.9-0.5-1.2C76.1-66.1,75.7-66.3,75.2-66.3 M75.2-66.6
			c0.6,0,1,0.2,1.4,0.6c0.4,0.4,0.6,0.9,0.6,1.4c0,0.6-0.2,1-0.6,1.4c-0.4,0.4-0.9,0.6-1.4,0.6c-0.5,0-1-0.2-1.4-0.6
			c-0.4-0.4-0.6-0.9-0.6-1.4c0-0.6,0.2-1,0.6-1.4C74.2-66.4,74.7-66.6,75.2-66.6"/>
	</g>
	<g transform="matrix(1,0,0,1,40.9241,148.093)">
		<path class="st0" d="M57-57.6c-0.4,0-0.8,0.2-1.1,0.5c-0.3,0.3-0.5,0.7-0.5,1.2c0,0.4,0.2,0.8,0.5,1.1c0.3,0.3,0.7,0.5,1.1,0.5
			c0.5,0,0.9-0.2,1.2-0.5c0.3-0.3,0.5-0.7,0.5-1.2c0-0.5-0.2-0.9-0.5-1.2C57.9-57.5,57.5-57.6,57-57.6 M57.1-58c0.6,0,1,0.2,1.4,0.6
			c0.4,0.4,0.6,0.9,0.6,1.4c0,0.6-0.2,1-0.6,1.4c-0.4,0.4-0.9,0.6-1.4,0.6c-0.5,0-1-0.2-1.4-0.6c-0.4-0.4-0.6-0.9-0.6-1.4
			c0-0.6,0.2-1,0.6-1.4C56-57.8,56.5-58,57.1-58"/>
	</g>
	<g transform="matrix(1,0,0,1,40.9241,148.093)">
		<path class="st0" d="M84.1-74.8c-0.4,0-0.8,0.2-1.1,0.5c-0.3,0.3-0.5,0.7-0.5,1.2c0,0.4,0.2,0.8,0.5,1.1c0.3,0.3,0.7,0.5,1.1,0.5
			c0.5,0,0.9-0.2,1.2-0.5c0.3-0.3,0.5-0.7,0.5-1.2c0-0.5-0.2-0.9-0.5-1.2C85-74.6,84.6-74.8,84.1-74.8 M84.1-75.1
			c0.6,0,1,0.2,1.4,0.6c0.4,0.4,0.6,0.9,0.6,1.4c0,0.6-0.2,1-0.6,1.4c-0.4,0.4-0.9,0.6-1.4,0.6c-0.5,0-1-0.2-1.4-0.6
			c-0.4-0.4-0.6-0.9-0.6-1.4c0-0.6,0.2-1,0.6-1.4C83.1-74.9,83.6-75.1,84.1-75.1"/>
	</g>
	<g transform="matrix(1,0,0,1,40.9241,148.093)">
		<rect x="27.3" y="-64.8" class="st0" width="18.6" height="0.6"/>
	</g>
	<g transform="matrix(1,0,0,1,40.9241,148.093)">
		<rect x="49.4" y="-64.8" class="st0" width="15" height="0.6"/>
	</g>
	<g transform="matrix(1,0,0,1,40.9241,148.093)">
		<rect x="68" y="-64.8" class="st0" width="5.4" height="0.6"/>
	</g>
	<g transform="matrix(1,0,0,1,40.9241,148.093)">
		<path class="st0" d="M46.3-65.7l-6.1-6.1l0.4-0.4l6.1,6.1L46.3-65.7z"/>
	</g>
	<g transform="matrix(1,0,0,1,40.9241,148.093)">
		<path class="st0" d="M37.7-74.3l-6.1-6.1l0.4-0.4l6.1,6.1L37.7-74.3z"/>
	</g>
	<g transform="matrix(1,0,0,1,40.9241,148.093)">
		<path class="st0" d="M55.6-56.9L49-63l0.4-0.4l6.6,6.1L55.6-56.9z"/>
	</g>
	<g transform="matrix(1,0,0,1,40.9241,148.093)">
		<path class="st0" d="M82.6-74.3l-6.4-6.4l0.4-0.4l6.4,6.4L82.6-74.3z"/>
	</g>
	<g transform="matrix(1,0,0,1,40.9241,148.093)">
		<path class="st0" d="M39.1-91.9c-0.4,0-0.8,0.2-1.1,0.5c-0.3,0.3-0.5,0.7-0.5,1.2c0,0.4,0.2,0.8,0.5,1.1c0.3,0.3,0.7,0.5,1.1,0.5
			c0.5,0,0.9-0.2,1.2-0.5c0.3-0.3,0.5-0.7,0.5-1.2c0-0.5-0.2-0.9-0.5-1.2C40-91.7,39.6-91.9,39.1-91.9 M39.1-92.2
			c0.6,0,1,0.2,1.4,0.6c0.4,0.4,0.6,0.9,0.6,1.4c0,0.6-0.2,1-0.6,1.4c-0.4,0.4-0.9,0.6-1.4,0.6c-0.5,0-1-0.2-1.4-0.6
			c-0.4-0.4-0.6-0.9-0.6-1.4c0-0.6,0.2-1,0.6-1.4C38.1-92,38.6-92.2,39.1-92.2"/>
	</g>
	<g transform="matrix(1,0,0,1,40.9241,148.093)">
		<path class="st0" d="M47.5-83.3c-0.4,0-0.8,0.2-1.1,0.5c-0.3,0.3-0.5,0.7-0.5,1.2c0,0.4,0.2,0.8,0.5,1.1c0.3,0.3,0.7,0.5,1.1,0.5
			c0.5,0,0.9-0.2,1.2-0.5c0.3-0.3,0.5-0.7,0.5-1.2c0-0.5-0.2-0.9-0.5-1.2C48.4-83.2,48-83.3,47.5-83.3 M47.5-83.7
			c0.6,0,1,0.2,1.4,0.6c0.4,0.4,0.6,0.9,0.6,1.4c0,0.6-0.2,1-0.6,1.4c-0.4,0.4-0.9,0.6-1.4,0.6c-0.5,0-1-0.2-1.4-0.6
			c-0.4-0.4-0.6-0.9-0.6-1.4c0-0.6,0.2-1,0.6-1.4C46.5-83.5,47-83.7,47.5-83.7"/>
	</g>
	<g transform="matrix(1,0,0,1,40.9241,148.093)">
		<path class="st0" d="M46-82.8L40-88.9l0.4-0.4l6.1,6.1L46-82.8z"/>
	</g>
	<g transform="matrix(1,0,0,1,40.9241,148.093)">
		<path class="st0" d="M31.9-82.7l-0.4-0.4l6.1-6.1l0.4,0.4L31.9-82.7z"/>
	</g>
	<g transform="matrix(1,0,0,1,40.9241,148.093)">
		<path class="st0" d="M40.5-74.3l-0.4-0.4l6.1-6.1l0.4,0.4L40.5-74.3z"/>
	</g>
	<g transform="matrix(1,0,0,1,40.9241,148.093)">
		<path class="st0" d="M76.8-65.8l-0.4-0.4l6.1-5.7l0.4,0.4L76.8-65.8z"/>
	</g>
	<g transform="matrix(1,0,0,1,40.9241,148.093)">
		<path class="st0" d="M58.4-57L58-57.4l6.7-6.1l0.4,0.4L58.4-57z"/>
	</g>
	<g transform="matrix(1,0,0,1,40.9241,148.093)">
		<path class="st0" d="M67.8-74.3l-0.4-0.4l6.5-6.3l0.4,0.4L67.8-74.3z"/>
	</g>
	<g transform="matrix(1,0,0,1,40.9241,148.093)">
		<rect x="17" y="-79.8" class="st0" width="0.6" height="4.7"/>
	</g>
	<g transform="matrix(1,0,0,1,40.9241,148.093)">
		<rect x="65.9" y="-71.2" class="st0" width="0.6" height="4.7"/>
	</g>
	<g transform="matrix(1,0,0,1,40.9241,148.093)">
		<rect x="19.1" y="-81.9" class="st0" width="9.8" height="0.6"/>
	</g>
	<g transform="matrix(1,0,0,1,40.9241,148.093)">
		<rect x="49.4" y="-81.9" class="st0" width="24.2" height="0.6"/>
	</g>
	<g transform="matrix(1,0,0,1,40.9241,148.093)">
		<path class="st0" d="M-14.1-65.1v-3.8h0.4v3.9c0,0.3,0,0.5,0,0.6c0,0.1,0,0.3-0.1,0.5c-0.1,0.2-0.2,0.4-0.3,0.6
			c-0.2,0.2-0.5,0.4-0.8,0.5c-0.3,0.1-0.6,0.2-0.9,0.2c-0.3,0-0.6-0.1-0.9-0.2c-0.3-0.1-0.6-0.3-0.8-0.5c-0.1-0.2-0.2-0.4-0.3-0.6
			c-0.1-0.2-0.1-0.4-0.1-0.5c0-0.1,0-0.4,0-0.6v-3.9h0.4v3.8c0,0.3,0,0.4,0,0.6c0,0.1,0,0.3,0.1,0.5c0,0.2,0.1,0.4,0.2,0.5
			c0.1,0.2,0.3,0.3,0.6,0.4c0.3,0.1,0.5,0.2,0.8,0.2c0.3,0,0.5-0.1,0.8-0.2c0.3-0.1,0.5-0.3,0.6-0.4c0.1-0.1,0.2-0.3,0.2-0.5
			c0-0.2,0.1-0.4,0.1-0.5C-14.2-64.7-14.1-64.9-14.1-65.1"/>
	</g>
	<g transform="matrix(1,0,0,1,40.9241,148.093)">
		<path class="st0" d="M-12.1-66.5v0.5h0c0.2-0.4,0.4-0.6,0.8-0.6c0.1,0,0.3,0,0.4,0.1l-0.2,0.3c-0.1,0-0.2-0.1-0.3-0.1
			c-0.1,0-0.2,0-0.3,0.1c-0.1,0-0.2,0.1-0.2,0.1c-0.1,0.1-0.1,0.1-0.1,0.2c0,0.1-0.1,0.2-0.1,0.3c0,0.1,0,0.2,0,0.3
			c0,0.1,0,0.2,0,0.3v2.3h-0.4v-3.8H-12.1z"/>
	</g>
	<g transform="matrix(1,0,0,1,40.9241,148.093)">
		<path class="st0" d="M-7.9-66.5h0.4v2.3c0,0.2,0,0.3,0,0.4c0,0.1,0,0.2-0.1,0.3c0,0.1-0.1,0.3-0.2,0.4c-0.3,0.3-0.6,0.5-1.1,0.5
			c-0.5,0-0.9-0.2-1.1-0.5c-0.1-0.1-0.1-0.2-0.2-0.4c0-0.1-0.1-0.3-0.1-0.3c0-0.1,0-0.2,0-0.4v-2.3h0.4v2.2c0,0.2,0,0.4,0,0.5
			c0,0.1,0.1,0.3,0.1,0.4c0.1,0.1,0.2,0.3,0.3,0.3c0.1,0.1,0.3,0.1,0.5,0.1c0.2,0,0.4,0,0.5-0.1c0.1-0.1,0.2-0.2,0.3-0.3
			c0.1-0.1,0.1-0.3,0.1-0.4c0-0.1,0-0.3,0-0.5V-66.5z"/>
	</g>
	<g transform="matrix(1,0,0,1,40.9241,148.093)">
		<path class="st0" d="M-4.8-66.2c-0.4,0-0.8,0.2-1.1,0.5c-0.3,0.3-0.4,0.7-0.4,1.1c0,0.5,0.1,0.9,0.4,1.2c0.3,0.3,0.6,0.5,1.1,0.5
			c0.5,0,0.8-0.2,1.1-0.5c0.3-0.3,0.4-0.7,0.4-1.2c0-0.5-0.1-0.8-0.4-1.1C-3.9-66.1-4.3-66.2-4.8-66.2 M-2.9-66.5v3.6
			c0,0.2,0,0.4,0,0.6c0,0.1,0,0.3-0.1,0.5c-0.1,0.2-0.1,0.4-0.3,0.5c-0.4,0.5-0.9,0.7-1.5,0.7c-0.5,0-1-0.1-1.3-0.4
			c-0.4-0.3-0.5-0.7-0.6-1.2h0.4c0,0.4,0.2,0.7,0.5,0.9c0.3,0.2,0.6,0.4,1,0.4c0.6,0,1-0.2,1.2-0.6c0.2-0.3,0.3-0.8,0.3-1.4v-0.5h0
			c-0.2,0.2-0.4,0.4-0.7,0.5c-0.3,0.1-0.5,0.2-0.8,0.2c-0.5,0-1-0.2-1.3-0.6c-0.3-0.4-0.5-0.9-0.5-1.4c0-0.6,0.2-1,0.5-1.4
			c0.4-0.4,0.8-0.6,1.4-0.6c0.6,0,1.1,0.2,1.4,0.7h0v-0.7H-2.9z"/>
	</g>
	<g transform="matrix(1,0,0,1,40.9241,148.093)">
		<path class="st0" d="M0.7-66.5h0.4v2.3c0,0.2,0,0.3,0,0.4c0,0.1,0,0.2-0.1,0.3c0,0.1-0.1,0.3-0.2,0.4c-0.3,0.3-0.6,0.5-1.1,0.5
			c-0.5,0-0.9-0.2-1.1-0.5c-0.1-0.1-0.1-0.2-0.2-0.4c0-0.1-0.1-0.3-0.1-0.3c0-0.1,0-0.2,0-0.4v-2.3h0.4v2.2c0,0.2,0,0.4,0,0.5
			c0,0.1,0.1,0.3,0.1,0.4c0.1,0.1,0.2,0.3,0.3,0.3c0.1,0.1,0.3,0.1,0.5,0.1c0.2,0,0.4,0,0.5-0.1c0.1-0.1,0.2-0.2,0.3-0.3
			c0.1-0.1,0.1-0.3,0.1-0.4c0-0.1,0-0.3,0-0.5V-66.5z"/>
	</g>
	<g transform="matrix(1,0,0,1,40.9241,148.093)">
		<path class="st0" d="M3.8-66.2c-0.4,0-0.8,0.2-1.1,0.5c-0.3,0.3-0.4,0.7-0.4,1.1c0,0.5,0.1,0.9,0.4,1.2c0.3,0.3,0.6,0.5,1.1,0.5
			c0.5,0,0.8-0.2,1.1-0.5c0.3-0.3,0.4-0.7,0.4-1.2c0-0.5-0.1-0.8-0.4-1.1C4.6-66.1,4.2-66.2,3.8-66.2 M5.6-66.5v3.8H5.3v-0.7h0
			c-0.1,0.2-0.3,0.4-0.6,0.6c-0.3,0.1-0.6,0.2-0.8,0.2c-0.6,0-1-0.2-1.4-0.6c-0.3-0.4-0.5-0.9-0.5-1.4c0-0.6,0.2-1,0.5-1.4
			c0.3-0.4,0.8-0.6,1.4-0.6c0.3,0,0.6,0.1,0.8,0.2c0.3,0.1,0.5,0.3,0.6,0.5h0v-0.7H5.6z"/>
	</g>
	<g transform="matrix(1,0,0,1,40.9241,148.093)">
		<path class="st0" d="M8.1-62.6l-1.8-3.9h0.4L8.2-63l1.5-3.5h0.4l-2.6,6.1H7.1L8.1-62.6z"/>
	</g>
	<g transform="matrix(1,0,0,1,40.9241,148.093)">
		<path class="st0" d="M-17.6-74.5h0.5c0.5,0,0.9-0.1,1.1-0.3c0.3-0.2,0.4-0.6,0.4-1c0-0.2-0.1-0.5-0.2-0.7
			c-0.1-0.2-0.3-0.4-0.5-0.5c-0.2-0.1-0.6-0.1-1.1-0.1h-0.3V-74.5z M-16.9-74.2l2,3h-0.5l-2-3h-0.2v3H-18v-6.2h0.8
			c0.2,0,0.4,0,0.5,0c0.1,0,0.3,0,0.5,0.1c0.2,0,0.3,0.1,0.5,0.2c0.4,0.3,0.6,0.7,0.6,1.3c0,0.5-0.2,0.9-0.5,1.2
			C-16-74.3-16.4-74.2-16.9-74.2"/>
	</g>
	<g transform="matrix(1,0,0,1,40.9241,148.093)">
		<path class="st0" d="M-14-73.4h2.9c0-0.4-0.2-0.7-0.5-0.9c-0.3-0.3-0.6-0.4-1-0.4c-0.4,0-0.7,0.1-1,0.4
			C-13.8-74.1-14-73.8-14-73.4 M-10.7-73.1H-14c0,0.5,0.1,0.9,0.4,1.2c0.3,0.3,0.7,0.4,1.1,0.4c0.3,0,0.5-0.1,0.8-0.2
			c0.2-0.2,0.4-0.4,0.6-0.6l0.3,0.2c-0.4,0.7-0.9,1-1.7,1c-0.6,0-1-0.2-1.3-0.6c-0.3-0.4-0.5-0.9-0.5-1.4c0-0.6,0.2-1,0.5-1.4
			c0.3-0.4,0.8-0.6,1.3-0.6c0.6,0,1,0.2,1.3,0.6C-10.8-74.1-10.7-73.7-10.7-73.1"/>
	</g>
	<g transform="matrix(1,0,0,1,40.9241,148.093)">
		<path class="st0" d="M-8.3-71.5c0.5,0,0.8-0.2,1.1-0.5c0.3-0.3,0.4-0.7,0.4-1.2c0-0.5-0.1-0.8-0.4-1.1c-0.3-0.3-0.7-0.5-1.1-0.5
			c-0.4,0-0.8,0.2-1.1,0.5c-0.3,0.3-0.4,0.7-0.4,1.1c0,0.5,0.1,0.9,0.4,1.2C-9.1-71.6-8.7-71.5-8.3-71.5 M-6.8-71.2v-0.7h0
			c-0.1,0.2-0.3,0.4-0.6,0.6c-0.3,0.1-0.6,0.2-0.8,0.2c-0.6,0-1-0.2-1.4-0.6c-0.3-0.4-0.5-0.9-0.5-1.4c0-0.6,0.2-1,0.5-1.4
			c0.3-0.4,0.8-0.6,1.4-0.6c0.3,0,0.6,0.1,0.8,0.2c0.3,0.1,0.5,0.3,0.6,0.5h0V-78h0.4v6.8H-6.8z"/>
	</g>
	<g transform="matrix(1,0,0,1,40.9241,148.093)">
		<path class="st0" d="M-1.1-71.5c0.5,0,0.8-0.2,1.1-0.5c0.3-0.3,0.4-0.7,0.4-1.2c0-0.5-0.1-0.8-0.4-1.1c-0.3-0.3-0.7-0.5-1.1-0.5
			c-0.4,0-0.8,0.2-1.1,0.5c-0.3,0.3-0.4,0.7-0.4,1.1c0,0.5,0.1,0.9,0.4,1.2C-1.9-71.6-1.5-71.5-1.1-71.5 M0.4-71.2v-0.7h0
			c-0.1,0.2-0.3,0.4-0.6,0.6c-0.3,0.1-0.6,0.2-0.8,0.2c-0.6,0-1-0.2-1.4-0.6c-0.3-0.4-0.5-0.9-0.5-1.4c0-0.6,0.2-1,0.5-1.4
			s0.8-0.6,1.4-0.6c0.3,0,0.6,0.1,0.8,0.2c0.3,0.1,0.5,0.3,0.6,0.5h0V-78h0.4v6.8H0.4z"/>
	</g>
	<g transform="matrix(1,0,0,1,40.9241,148.093)">
		<path class="st0" d="M2.1-73.4H5c0-0.4-0.2-0.7-0.5-0.9c-0.3-0.3-0.6-0.4-1-0.4c-0.4,0-0.7,0.1-1,0.4C2.2-74.1,2.1-73.8,2.1-73.4
			 M5.4-73.1H2.1c0,0.5,0.1,0.9,0.4,1.2c0.3,0.3,0.7,0.4,1.1,0.4c0.3,0,0.5-0.1,0.8-0.2c0.2-0.2,0.4-0.4,0.6-0.6l0.3,0.2
			c-0.4,0.7-0.9,1-1.7,1c-0.6,0-1-0.2-1.3-0.6c-0.3-0.4-0.5-0.9-0.5-1.4c0-0.6,0.2-1,0.5-1.4c0.3-0.4,0.8-0.6,1.3-0.6
			c0.6,0,1,0.2,1.3,0.6C5.2-74.1,5.4-73.7,5.4-73.1"/>
	</g>
	<g transform="matrix(1,0,0,1,40.9241,148.093)">
		<path class="st0" d="M12.1-74.2h2.6c0,0.4,0,0.8-0.1,1.2c-0.1,0.3-0.3,0.6-0.5,0.9c-0.3,0.3-0.6,0.6-1.1,0.7
			c-0.4,0.2-0.9,0.3-1.3,0.3c-0.9,0-1.6-0.3-2.2-0.9c-0.6-0.6-1-1.4-1-2.2c0-0.9,0.3-1.7,1-2.3c0.6-0.6,1.4-0.9,2.3-0.9
			c1.1,0,2,0.5,2.7,1.5l-0.3,0.3c-0.3-0.4-0.6-0.8-1-1c-0.4-0.2-0.9-0.4-1.4-0.4c-0.8,0-1.4,0.3-2,0.9c-0.6,0.6-0.8,1.2-0.8,2
			c0,0.8,0.3,1.4,0.8,2c0.6,0.6,1.2,0.8,2,0.8c0.7,0,1.3-0.2,1.8-0.7c0.5-0.4,0.7-1,0.8-1.7h-2.2V-74.2z"/>
	</g>
	<g transform="matrix(1,0,0,1,40.9241,148.093)">
		<path class="st0" d="M17.2-74.8c-0.4,0-0.8,0.2-1.1,0.5c-0.3,0.3-0.5,0.7-0.5,1.2c0,0.4,0.2,0.8,0.5,1.1c0.3,0.3,0.7,0.5,1.1,0.5
			c0.5,0,0.9-0.2,1.2-0.5c0.3-0.3,0.5-0.7,0.5-1.2c0-0.5-0.2-0.9-0.5-1.2C18.1-74.6,17.7-74.8,17.2-74.8 M17.3-75.2
			c0.6,0,1,0.2,1.4,0.6c0.4,0.4,0.6,0.9,0.6,1.4c0,0.6-0.2,1-0.6,1.4c-0.4,0.4-0.9,0.6-1.4,0.6c-0.5,0-1-0.2-1.4-0.6
			c-0.4-0.4-0.6-0.9-0.6-1.4c0-0.6,0.2-1,0.6-1.4C16.2-75,16.7-75.2,17.3-75.2"/>
	</g>
	<g transform="matrix(1,0,0,1,40.9241,148.093)">
		<path class="st0" d="M22-71.5c0.5,0,0.8-0.2,1.1-0.5c0.3-0.3,0.4-0.7,0.4-1.2c0-0.4-0.1-0.8-0.4-1.1c-0.3-0.3-0.6-0.5-1.1-0.5
			c-0.5,0-0.8,0.2-1.1,0.5c-0.3,0.3-0.4,0.7-0.4,1.2c0,0.5,0.1,0.9,0.4,1.2C21.2-71.6,21.6-71.5,22-71.5 M20.2-71.2V-78h0.4v3.7h0
			c0.2-0.2,0.4-0.4,0.6-0.5c0.3-0.1,0.5-0.2,0.8-0.2c0.6,0,1,0.2,1.4,0.6c0.3,0.4,0.5,0.8,0.5,1.4c0,0.6-0.2,1.1-0.5,1.4
			c-0.3,0.4-0.8,0.6-1.4,0.6c-0.3,0-0.6-0.1-0.8-0.2c-0.3-0.1-0.5-0.3-0.6-0.6h0v0.7H20.2z"/>
	</g>
	<g transform="matrix(1,0,0,1,40.9241,148.093)">
		<path class="st0" d="M25.3-71.2h-0.4V-75h0.4V-71.2z M24.9-76.6c0.1-0.1,0.1-0.1,0.2-0.1s0.2,0,0.2,0.1c0.1,0.1,0.1,0.1,0.1,0.2
			c0,0.1,0,0.2-0.1,0.2C25.3-76,25.2-76,25.1-76s-0.2,0-0.2-0.1c-0.1-0.1-0.1-0.1-0.1-0.2C24.8-76.4,24.8-76.5,24.9-76.6"/>
	</g>
	<g transform="matrix(1,0,0,1,40.9241,148.093)">
		<path class="st0" d="M26.7-73.4h2.9c0-0.4-0.2-0.7-0.5-0.9c-0.3-0.3-0.6-0.4-1-0.4c-0.4,0-0.7,0.1-1,0.4
			C26.9-74.1,26.8-73.8,26.7-73.4 M30.1-73.1h-3.3c0,0.5,0.1,0.9,0.4,1.2c0.3,0.3,0.7,0.4,1.1,0.4c0.3,0,0.5-0.1,0.8-0.2
			c0.2-0.2,0.4-0.4,0.6-0.6l0.3,0.2c-0.4,0.7-0.9,1-1.7,1c-0.6,0-1-0.2-1.3-0.6c-0.3-0.4-0.5-0.9-0.5-1.4c0-0.6,0.2-1,0.5-1.4
			c0.3-0.4,0.8-0.6,1.3-0.6c0.6,0,1,0.2,1.3,0.6C29.9-74.1,30.1-73.7,30.1-73.1"/>
	</g>
	<g transform="matrix(1,0,0,1,40.9241,148.093)">
		<path class="st0" d="M31.3-75v0.5h0c0.2-0.4,0.4-0.6,0.8-0.6c0.1,0,0.3,0,0.4,0.1l-0.2,0.3c-0.1,0-0.2-0.1-0.3-0.1
			c-0.1,0-0.2,0-0.3,0.1c-0.1,0-0.2,0.1-0.2,0.1c-0.1,0.1-0.1,0.1-0.1,0.2c0,0.1-0.1,0.2-0.1,0.3c0,0.1,0,0.2,0,0.3
			c0,0.1,0,0.2,0,0.3v2.3H31V-75H31.3z"/>
	</g>
	<g transform="matrix(1,0,0,1,40.9241,148.093)">
		<path class="st0" d="M33.7-75v0.6h0c0.1-0.2,0.3-0.4,0.5-0.5c0.2-0.1,0.4-0.2,0.7-0.2c0.5,0,0.8,0.1,1,0.4
			c0.2,0.3,0.3,0.7,0.3,1.2v2.3h-0.4v-2.3c0-0.2,0-0.4,0-0.5c0-0.1-0.1-0.3-0.1-0.4c-0.1-0.1-0.2-0.2-0.3-0.3
			c-0.1-0.1-0.3-0.1-0.5-0.1c-0.7,0-1.1,0.6-1.1,1.7v1.9h-0.4V-75H33.7z"/>
	</g>
	<g transform="matrix(1,0,0,1,40.9241,148.093)">
		<path class="st0" d="M39-74.8c-0.4,0-0.8,0.2-1.1,0.5c-0.3,0.3-0.5,0.7-0.5,1.2c0,0.4,0.2,0.8,0.5,1.1c0.3,0.3,0.7,0.5,1.1,0.5
			c0.5,0,0.9-0.2,1.2-0.5c0.3-0.3,0.5-0.7,0.5-1.2c0-0.5-0.2-0.9-0.5-1.2C39.8-74.6,39.4-74.8,39-74.8 M39-75.1c0.6,0,1,0.2,1.4,0.6
			c0.4,0.4,0.6,0.9,0.6,1.4c0,0.6-0.2,1-0.6,1.4c-0.4,0.4-0.9,0.6-1.4,0.6c-0.5,0-1-0.2-1.4-0.6c-0.4-0.4-0.6-0.9-0.6-1.4
			c0-0.6,0.2-1,0.6-1.4C38-74.9,38.4-75.1,39-75.1"/>
	</g>
	<g transform="matrix(1,0,0,1,40.9241,148.093)">
		<path class="st0" d="M47.7-73.6l-1.2-3l-1.2,3H47.7z M47.8-73.3h-2.7l-0.8,2.1h-0.4l2.6-6.4l2.6,6.4h-0.4L47.8-73.3z"/>
	</g>
	<g transform="matrix(1,0,0,1,40.9241,148.093)">
		<path class="st0" d="M51.6-71.5c0.5,0,0.8-0.2,1.1-0.5c0.3-0.3,0.4-0.7,0.4-1.2c0-0.4-0.1-0.8-0.4-1.1c-0.3-0.3-0.6-0.5-1.1-0.5
			c-0.5,0-0.8,0.2-1.1,0.5c-0.3,0.3-0.4,0.7-0.4,1.2c0,0.5,0.1,0.9,0.4,1.2C50.8-71.6,51.1-71.5,51.6-71.5 M49.8-71.2V-78h0.4v3.7h0
			c0.2-0.2,0.4-0.4,0.6-0.5c0.3-0.1,0.5-0.2,0.8-0.2c0.6,0,1,0.2,1.4,0.6c0.3,0.4,0.5,0.8,0.5,1.4c0,0.6-0.2,1.1-0.5,1.4
			c-0.3,0.4-0.8,0.6-1.4,0.6c-0.3,0-0.6-0.1-0.8-0.2c-0.3-0.1-0.5-0.3-0.6-0.6h0v0.7H49.8z"/>
	</g>
	<g transform="matrix(1,0,0,1,40.9241,148.093)">
		<path class="st0" d="M54.9-71.2h-0.4V-75h0.4V-71.2z M54.5-76.6c0.1-0.1,0.1-0.1,0.2-0.1c0.1,0,0.2,0,0.2,0.1
			c0.1,0.1,0.1,0.1,0.1,0.2c0,0.1,0,0.2-0.1,0.2C54.9-76,54.8-76,54.7-76c-0.1,0-0.2,0-0.2-0.1c-0.1-0.1-0.1-0.1-0.1-0.2
			C54.4-76.4,54.4-76.5,54.5-76.6"/>
	</g>
	<g transform="matrix(1,0,0,1,40.9241,148.093)">
		<path class="st0" d="M56.3-73.4h2.9c0-0.4-0.2-0.7-0.5-0.9c-0.3-0.3-0.6-0.4-1-0.4c-0.4,0-0.7,0.1-1,0.4
			C56.5-74.1,56.4-73.8,56.3-73.4 M59.6-73.1h-3.3c0,0.5,0.1,0.9,0.4,1.2c0.3,0.3,0.7,0.4,1.1,0.4c0.3,0,0.5-0.1,0.8-0.2
			c0.2-0.2,0.4-0.4,0.6-0.6l0.3,0.2c-0.4,0.7-0.9,1-1.7,1c-0.6,0-1-0.2-1.3-0.6c-0.3-0.4-0.5-0.9-0.5-1.4c0-0.6,0.2-1,0.5-1.4
			c0.3-0.4,0.8-0.6,1.3-0.6c0.6,0,1,0.2,1.3,0.6C59.5-74.1,59.6-73.7,59.6-73.1"/>
	</g>
	<g transform="matrix(1,0,0,1,40.9241,148.093)">
		<path class="st0" d="M60.9-75v0.5h0c0.2-0.4,0.4-0.6,0.8-0.6c0.1,0,0.3,0,0.4,0.1L62-74.7c-0.1,0-0.2-0.1-0.3-0.1
			c-0.1,0-0.2,0-0.3,0.1c-0.1,0-0.2,0.1-0.2,0.1c-0.1,0.1-0.1,0.1-0.1,0.2c0,0.1-0.1,0.2-0.1,0.3c0,0.1,0,0.2,0,0.3
			c0,0.1,0,0.2,0,0.3v2.3h-0.4V-75H60.9z"/>
	</g>
	<g transform="matrix(1,0,0,1,40.9241,148.093)">
		<path class="st0" d="M63.4-74.7v3.5H63v-3.5h-0.4V-75H63v-1.4h0.4v1.4h0.7v0.3H63.4z"/>
	</g>
	<g transform="matrix(1,0,0,1,40.9241,148.093)">
		<path class="st0" d="M66.3-74.8c-0.4,0-0.8,0.2-1.1,0.5c-0.3,0.3-0.5,0.7-0.5,1.2c0,0.4,0.2,0.8,0.5,1.1c0.3,0.3,0.7,0.5,1.1,0.5
			c0.5,0,0.9-0.2,1.2-0.5c0.3-0.3,0.5-0.7,0.5-1.2c0-0.5-0.2-0.9-0.5-1.2C67.2-74.6,66.8-74.8,66.3-74.8 M66.3-75.1
			c0.6,0,1,0.2,1.4,0.6c0.4,0.4,0.6,0.9,0.6,1.4c0,0.6-0.2,1-0.6,1.4c-0.4,0.4-0.9,0.6-1.4,0.6c-0.5,0-1-0.2-1.4-0.6
			c-0.4-0.4-0.6-0.9-0.6-1.4c0-0.6,0.2-1,0.6-1.4C65.3-74.9,65.8-75.1,66.3-75.1"/>
	</g>
</g>
</svg>
