<?xml version="1.0" encoding="utf-8"?>
<!-- Generator: Adobe Illustrator 19.1.0, SVG Export Plug-In . SVG Version: 6.00 Build 0)  -->
<svg version="1.1" id="Capa_1" xmlns="http://www.w3.org/2000/svg" xmlns:xlink="http://www.w3.org/1999/xlink" x="0px" y="0px"
	 viewBox="0 0 203.1 76.8" style="enable-background:new 0 0 203.1 76.8;" xml:space="preserve">
<style type="text/css">
	.st0{fill:#252626;}
</style>
<g id="Capa1_2_">
	<g transform="matrix(1,0,0,1,40.9241,148.093)">
		<path class="st0" d="M42.1-96.5L30.5-108l0.7-0.7l11.6,11.6L42.1-96.5z"/>
	</g>
	<g transform="matrix(1,0,0,1,40.9241,148.093)">
		<path class="st0" d="M137.2-123.9c0.7,0,1.5-0.4,2.1-0.9c0.6-0.6,0.9-1.3,0.9-2.2c0-0.7-0.4-1.5-0.9-2.1s-1.3-0.9-2.1-0.9
			c-0.9,0-1.7,0.4-2.2,0.9c-0.6,0.6-0.9,1.3-0.9,2.2c0,0.9,0.4,1.7,0.9,2.2C135.5-124.3,136.2-123.9,137.2-123.9 M137.2-123.4
			c-1.1,0-1.9-0.4-2.6-1.1c-0.7-0.7-1.1-1.7-1.1-2.6c0-1.1,0.4-1.9,1.1-2.6c0.7-0.7,1.7-1.1,2.6-1.1c0.9,0,1.9,0.4,2.6,1.1
			c0.7,0.7,1.1,1.7,1.1,2.6c0,1.1-0.4,1.9-1.1,2.6C139-123.7,138.1-123.4,137.2-123.4"/>
	</g>
	<g transform="matrix(1,0,0,1,40.9241,148.093)">
		<path class="st0" d="M44.5-97.8c-0.7,0-1.5,0.4-2.1,0.9c-0.6,0.6-0.9,1.3-0.9,2.2c0,0.7,0.4,1.5,0.9,2.1c0.6,0.6,1.3,0.9,2.1,0.9
			c0.9,0,1.7-0.4,2.2-0.9c0.6-0.6,0.9-1.3,0.9-2.2c0-0.9-0.4-1.7-0.9-2.2C46.2-97.4,45.4-97.8,44.5-97.8 M44.7-98.5
			c1.1,0,1.9,0.4,2.6,1.1s1.1,1.7,1.1,2.6c0,1.1-0.4,1.9-1.1,2.6S45.6-91,44.7-91c-0.9,0-1.9-0.4-2.6-1.1c-0.7-0.7-1.1-1.7-1.1-2.6
			c0-1.1,0.4-1.9,1.1-2.6C42.6-98.1,43.5-98.5,44.7-98.5"/>
	</g>
	<g transform="matrix(1,0,0,1,40.9241,148.093)">
		<path class="st0" d="M28.6-129.5c-0.7,0-1.5,0.4-2.1,0.9c-0.6,0.6-0.9,1.3-0.9,2.2c0,0.7,0.4,1.5,0.9,2.1c0.6,0.6,1.3,0.9,2.1,0.9
			c0.9,0,1.7-0.4,2.2-0.9c0.6-0.6,0.9-1.3,0.9-2.2s-0.4-1.7-0.9-2.2C30.3-129.2,29.5-129.5,28.6-129.5 M28.8-130.3
			c1.1,0,1.9,0.4,2.6,1.1c0.7,0.7,1.1,1.7,1.1,2.6c0,1.1-0.4,1.9-1.1,2.6s-1.7,1.1-2.6,1.1c-0.9,0-1.9-0.4-2.6-1.1
			c-0.7-0.7-1.1-1.7-1.1-2.6c0-1.1,0.4-1.9,1.1-2.6C26.7-129.9,27.7-130.3,28.8-130.3"/>
	</g>
	<g transform="matrix(1,0,0,1,40.9241,148.093)">
		<path class="st0" d="M53.5-129.5c-0.7,0-1.5,0.4-2.1,0.9c-0.6,0.6-0.9,1.3-0.9,2.2c0,0.7,0.4,1.5,0.9,2.1c0.6,0.6,1.3,0.9,2.1,0.9
			c0.9,0,1.7-0.4,2.2-0.9s0.9-1.3,0.9-2.2s-0.4-1.7-0.9-2.2C55.1-129.2,54.4-129.5,53.5-129.5 M53.6-130.3c1.1,0,1.9,0.4,2.6,1.1
			c0.7,0.7,1.1,1.7,1.1,2.6c0,1.1-0.4,1.9-1.1,2.6c-0.7,0.7-1.7,1.1-2.6,1.1s-1.9-0.4-2.6-1.1c-0.7-0.7-1.1-1.7-1.1-2.6
			c0-1.1,0.4-1.9,1.1-2.6C51.6-129.9,52.5-130.3,53.6-130.3"/>
	</g>
	<g transform="matrix(1,0,0,1,40.9241,148.093)">
		<path class="st0" d="M85.4-97.8c-0.7,0-1.5,0.4-2.1,0.9c-0.6,0.6-0.9,1.3-0.9,2.2c0,0.7,0.4,1.5,0.9,2.1c0.6,0.6,1.3,0.9,2.1,0.9
			c0.9,0,1.7-0.4,2.2-0.9c0.6-0.6,0.9-1.3,0.9-2.2c0-0.9-0.4-1.7-0.9-2.2C87.1-97.4,86.3-97.8,85.4-97.8 M85.6-98.5
			c1.1,0,1.9,0.4,2.6,1.1s1.1,1.7,1.1,2.6c0,1.1-0.4,1.9-1.1,2.6c-0.7,0.7-1.7,1.1-2.6,1.1c-0.9,0-1.9-0.4-2.6-1.1
			c-0.7-0.7-1.1-1.7-1.1-2.6c0-1.1,0.4-1.9,1.1-2.6C83.5-98.1,84.5-98.5,85.6-98.5"/>
	</g>
	<g transform="matrix(1,0,0,1,40.9241,148.093)">
		<path class="st0" d="M120.4-97.8c-0.7,0-1.5,0.4-2.1,0.9c-0.6,0.6-0.9,1.3-0.9,2.2c0,0.7,0.4,1.5,0.9,2.1c0.6,0.6,1.3,0.9,2.1,0.9
			c0.9,0,1.7-0.4,2.2-0.9c0.6-0.6,0.9-1.3,0.9-2.2c0-0.9-0.4-1.7-0.9-2.2C122-97.4,121.3-97.8,120.4-97.8 M120.4-98.3
			c1.1,0,1.9,0.4,2.6,1.1s1.1,1.7,1.1,2.6c0,1.1-0.4,1.9-1.1,2.6c-0.7,0.7-1.7,1.1-2.6,1.1s-1.9-0.4-2.6-1.1s-1.1-1.7-1.1-2.6
			c0-1.1,0.4-1.9,1.1-2.6S119.4-98.3,120.4-98.3"/>
	</g>
	<g transform="matrix(1,0,0,1,40.9241,148.093)">
		<path class="st0" d="M137-97.8c-0.7,0-1.5,0.4-2.1,0.9c-0.6,0.6-0.9,1.3-0.9,2.2c0,0.7,0.4,1.5,0.9,2.1c0.6,0.6,1.3,0.9,2.1,0.9
			c0.9,0,1.7-0.4,2.2-0.9c0.6-0.6,0.9-1.3,0.9-2.2c0-0.9-0.4-1.7-0.9-2.2C138.7-97.4,137.9-97.8,137-97.8 M137-98.3
			c1.1,0,1.9,0.4,2.6,1.1c0.7,0.7,1.1,1.7,1.1,2.6c0,1.1-0.4,1.9-1.1,2.6c-0.7,0.7-1.7,1.1-2.6,1.1c-0.9,0-1.9-0.4-2.6-1.1
			c-0.7-0.7-1.1-1.7-1.1-2.6c0-1.1,0.4-1.9,1.1-2.6C135.1-97.9,136.1-98.3,137-98.3"/>
	</g>
	<g transform="matrix(1,0,0,1,40.9241,148.093)">
		<path class="st0" d="M103-81.5c-0.7,0-1.5,0.4-2.1,0.9s-0.9,1.3-0.9,2.2c0,0.7,0.4,1.5,0.9,2.1s1.3,0.9,2.1,0.9
			c0.9,0,1.7-0.4,2.2-0.9c0.6-0.6,0.9-1.3,0.9-2.2c0-0.9-0.4-1.7-0.9-2.2C104.7-81.3,103.9-81.5,103-81.5 M103.2-82.3
			c1.1,0,1.9,0.4,2.6,1.1c0.7,0.7,1.1,1.7,1.1,2.6c0,1.1-0.4,1.9-1.1,2.6c-0.7,0.7-1.7,1.1-2.6,1.1c-0.9,0-1.9-0.4-2.6-1.1
			s-1.1-1.7-1.1-2.6c0-1.1,0.4-1.9,1.1-2.6C101.1-81.9,102-82.3,103.2-82.3"/>
	</g>
	<g transform="matrix(1,0,0,1,40.9241,148.093)">
		<path class="st0" d="M153.6-113.6c-0.7,0-1.5,0.4-2.1,0.9s-0.9,1.3-0.9,2.2c0,0.7,0.4,1.5,0.9,2.1c0.6,0.6,1.3,0.9,2.1,0.9
			c0.9,0,1.7-0.4,2.2-0.9c0.6-0.6,0.9-1.3,0.9-2.2c0-0.9-0.4-1.7-0.9-2.2C155.3-113.3,154.6-113.6,153.6-113.6 M153.6-114.2
			c1.1,0,1.9,0.4,2.6,1.1c0.7,0.7,1.1,1.7,1.1,2.6c0,1.1-0.4,1.9-1.1,2.6c-0.7,0.7-1.7,1.1-2.6,1.1c-0.9,0-1.9-0.4-2.6-1.1
			c-0.7-0.7-1.1-1.7-1.1-2.6c0-1.1,0.4-1.9,1.1-2.6C151.8-113.8,152.7-114.2,153.6-114.2"/>
	</g>
	<g transform="matrix(1,0,0,1,40.9241,148.093)">
		<rect x="47.5" y="-95" class="st0" width="34.8" height="1.1"/>
	</g>
	<g transform="matrix(1,0,0,1,40.9241,148.093)">
		<rect x="88.8" y="-95" class="st0" width="28" height="1.1"/>
	</g>
	<g transform="matrix(1,0,0,1,40.9241,148.093)">
		<rect x="123.5" y="-95" class="st0" width="10.1" height="1.1"/>
	</g>
	<g transform="matrix(1,0,0,1,40.9241,148.093)">
		<path class="st0" d="M83-96.6L71.6-108l0.7-0.7l11.4,11.4L83-96.6z"/>
	</g>
	<g transform="matrix(1,0,0,1,40.9241,148.093)">
		<path class="st0" d="M66.9-112.7l-11.4-11.4l0.7-0.7l11.4,11.4L66.9-112.7z"/>
	</g>
	<g transform="matrix(1,0,0,1,40.9241,148.093)">
		<path class="st0" d="M100.4-80.2L88-91.6l0.7-0.7l12.3,11.4L100.4-80.2z"/>
	</g>
	<g transform="matrix(1,0,0,1,40.9241,148.093)">
		<path class="st0" d="M150.8-112.7l-12-12l0.7-0.7l12,12L150.8-112.7z"/>
	</g>
	<g transform="matrix(1,0,0,1,40.9241,148.093)">
		<path class="st0" d="M69.5-145.6c-0.7,0-1.5,0.4-2.1,0.9c-0.6,0.6-0.9,1.3-0.9,2.2c0,0.7,0.4,1.5,0.9,2.1c0.6,0.6,1.3,0.9,2.1,0.9
			c0.9,0,1.7-0.4,2.2-0.9c0.6-0.6,0.9-1.3,0.9-2.2s-0.4-1.7-0.9-2.2C71.2-145.2,70.5-145.6,69.5-145.6 M69.5-146.2
			c1.1,0,1.9,0.4,2.6,1.1c0.7,0.7,1.1,1.7,1.1,2.6c0,1.1-0.4,1.9-1.1,2.6c-0.7,0.7-1.7,1.1-2.6,1.1c-0.9,0-1.9-0.4-2.6-1.1
			c-0.7-0.7-1.1-1.7-1.1-2.6c0-1.1,0.4-1.9,1.1-2.6C67.7-145.8,68.6-146.2,69.5-146.2"/>
	</g>
	<g transform="matrix(1,0,0,1,40.9241,148.093)">
		<path class="st0" d="M85.2-129.5c-0.7,0-1.5,0.4-2.1,0.9s-0.9,1.3-0.9,2.2c0,0.7,0.4,1.5,0.9,2.1c0.6,0.6,1.3,0.9,2.1,0.9
			c0.9,0,1.7-0.4,2.2-0.9s0.9-1.3,0.9-2.2s-0.4-1.7-0.9-2.2C86.9-129.3,86.2-129.5,85.2-129.5 M85.2-130.3c1.1,0,1.9,0.4,2.6,1.1
			c0.7,0.7,1.1,1.7,1.1,2.6c0,1.1-0.4,1.9-1.1,2.6c-0.7,0.7-1.7,1.1-2.6,1.1c-0.9,0-1.9-0.4-2.6-1.1s-1.1-1.7-1.1-2.6
			c0-1.1,0.4-1.9,1.1-2.6C83.4-129.9,84.3-130.3,85.2-130.3"/>
	</g>
	<g transform="matrix(1,0,0,1,40.9241,148.093)">
		<path class="st0" d="M82.4-128.6L71.2-140l0.7-0.7l11.4,11.4L82.4-128.6z"/>
	</g>
	<g transform="matrix(1,0,0,1,40.9241,148.093)">
		<path class="st0" d="M56.1-128.4l-0.7-0.7l11.4-11.4l0.7,0.7L56.1-128.4z"/>
	</g>
	<g transform="matrix(1,0,0,1,40.9241,148.093)">
		<path class="st0" d="M72.1-112.7l-0.7-0.7l11.4-11.4l0.7,0.7L72.1-112.7z"/>
	</g>
	<g transform="matrix(1,0,0,1,40.9241,148.093)">
		<path class="st0" d="M140-96.8l-0.7-0.7l11.4-10.7l0.7,0.7L140-96.8z"/>
	</g>
	<g transform="matrix(1,0,0,1,40.9241,148.093)">
		<path class="st0" d="M105.6-80.4l-0.7-0.7l12.5-11.4l0.7,0.7L105.6-80.4z"/>
	</g>
	<g transform="matrix(1,0,0,1,40.9241,148.093)">
		<path class="st0" d="M123.2-112.7l-0.7-0.7l12.1-11.8l0.7,0.7L123.2-112.7z"/>
	</g>
	<g transform="matrix(1,0,0,1,40.9241,148.093)">
		<rect x="28.2" y="-123" class="st0" width="1.1" height="8.8"/>
	</g>
	<g transform="matrix(1,0,0,1,40.9241,148.093)">
		<rect x="119.6" y="-106.9" class="st0" width="1.1" height="8.8"/>
	</g>
	<g transform="matrix(1,0,0,1,40.9241,148.093)">
		<rect x="32.2" y="-126.9" class="st0" width="18.3" height="1.1"/>
	</g>
	<g transform="matrix(1,0,0,1,40.9241,148.093)">
		<rect x="88.8" y="-126.9" class="st0" width="45.2" height="1.1"/>
	</g>
	<g transform="matrix(1,0,0,1,40.9241,148.093)">
		<path class="st0" d="M-29.9-95.5v-7.1h0.7v7.3c0,0.6,0,0.9,0,1.1s0,0.6-0.2,0.9c-0.2,0.4-0.4,0.7-0.6,1.1
			c-0.4,0.4-0.9,0.7-1.5,0.9c-0.6,0.2-1.1,0.4-1.7,0.4c-0.6,0-1.1-0.2-1.7-0.4c-0.6-0.2-1.1-0.6-1.5-0.9c-0.2-0.4-0.4-0.7-0.6-1.1
			C-37-93.7-37-94-37-94.2s0-0.7,0-1.1v-7.3h0.7v7.1c0,0.6,0,0.7,0,1.1c0,0.2,0,0.6,0.2,0.9c0,0.4,0.2,0.7,0.4,0.9
			c0.2,0.4,0.6,0.6,1.1,0.7c0.6,0.2,0.9,0.4,1.5,0.4s0.9-0.2,1.5-0.4c0.6-0.2,0.9-0.6,1.1-0.7c0.2-0.2,0.4-0.6,0.4-0.9
			s0.2-0.7,0.2-0.9C-30.1-94.8-29.9-95.1-29.9-95.5"/>
	</g>
	<g transform="matrix(1,0,0,1,40.9241,148.093)">
		<path class="st0" d="M-26.2-98.1v0.9l0,0c0.4-0.7,0.7-1.1,1.5-1.1c0.2,0,0.6,0,0.7,0.2l-0.4,0.6c-0.2,0-0.4-0.2-0.6-0.2
			s-0.4,0-0.6,0.2c-0.2,0-0.4,0.2-0.4,0.2C-26-97.2-26-97.2-26-97s-0.2,0.4-0.2,0.6c0,0.2,0,0.4,0,0.6c0,0.2,0,0.4,0,0.6v4.3h-0.7
			v-7.1L-26.2-98.1z"/>
	</g>
	<g transform="matrix(1,0,0,1,40.9241,148.093)">
		<path class="st0" d="M-18.3-98.1h0.7v4.3c0,0.4,0,0.6,0,0.7c0,0.2,0,0.4-0.2,0.6c0,0.2-0.2,0.6-0.4,0.7c-0.6,0.6-1.1,0.9-2.1,0.9
			s-1.7-0.4-2.1-0.9c-0.2-0.2-0.2-0.4-0.4-0.7c0-0.2-0.2-0.6-0.2-0.6c0-0.2,0-0.4,0-0.7v-4.3h0.7v4.1c0,0.4,0,0.7,0,0.9
			s0.2,0.6,0.2,0.7c0.2,0.2,0.4,0.6,0.6,0.6c0.2,0.2,0.6,0.2,0.9,0.2s0.7,0,0.9-0.2c0.2-0.2,0.4-0.4,0.6-0.6s0.2-0.6,0.2-0.7
			c0-0.2,0-0.6,0-0.9v-4.1H-18.3z"/>
	</g>
	<g transform="matrix(1,0,0,1,40.9241,148.093)">
		<path class="st0" d="M-12.5-97.6c-0.7,0-1.5,0.4-2.1,0.9c-0.6,0.6-0.7,1.3-0.7,2.1c0,0.9,0.2,1.7,0.7,2.2s1.1,0.9,2.1,0.9
			c0.9,0,1.5-0.4,2.1-0.9s0.7-1.3,0.7-2.2c0-0.9-0.2-1.5-0.7-2.1C-10.8-97.4-11.6-97.6-12.5-97.6 M-9-98.1v6.7c0,0.4,0,0.7,0,1.1
			c0,0.2,0,0.6-0.2,0.9c-0.2,0.4-0.2,0.7-0.6,0.9c-0.7,0.9-1.7,1.3-2.8,1.3c-0.9,0-1.9-0.2-2.4-0.7c-0.7-0.6-0.9-1.3-1.1-2.2h0.7
			c0,0.7,0.4,1.3,0.9,1.7c0.6,0.4,1.1,0.7,1.9,0.7c1.1,0,1.9-0.4,2.2-1.1c0.4-0.6,0.6-1.5,0.6-2.6v-0.9l0,0
			c-0.4,0.4-0.7,0.7-1.3,0.9S-12-91-12.5-91c-0.9,0-1.9-0.4-2.4-1.1c-0.6-0.7-0.9-1.7-0.9-2.6c0-1.1,0.4-1.9,0.9-2.6
			c0.7-0.7,1.5-1.1,2.6-1.1s2.1,0.4,2.6,1.3l0,0v-1.3H-9V-98.1z"/>
	</g>
	<g transform="matrix(1,0,0,1,40.9241,148.093)">
		<path class="st0" d="M-2.2-98.1h0.7v4.3c0,0.4,0,0.6,0,0.7c0,0.2,0,0.4-0.2,0.6c0,0.2-0.2,0.6-0.4,0.7c-0.6,0.6-1.1,0.9-2.1,0.9
			s-1.7-0.4-2.1-0.9c-0.2-0.2-0.2-0.4-0.4-0.7c0-0.2-0.2-0.6-0.2-0.6c0-0.2,0-0.4,0-0.7v-4.3H-6v4.1c0,0.4,0,0.7,0,0.9
			s0.2,0.6,0.2,0.7c0.2,0.2,0.4,0.6,0.6,0.6c0.2,0.2,0.6,0.2,0.9,0.2s0.7,0,0.9-0.2c0.2-0.2,0.4-0.4,0.6-0.6s0.2-0.6,0.2-0.7
			c0-0.2,0-0.6,0-0.9v-4.1H-2.2z"/>
	</g>
	<g transform="matrix(1,0,0,1,40.9241,148.093)">
		<path class="st0" d="M3.6-97.6c-0.7,0-1.5,0.4-2.1,0.9s-0.7,1.3-0.7,2.1c0,0.9,0.2,1.7,0.7,2.2s1.1,0.9,2.1,0.9s1.5-0.4,2.1-0.9
			c0.6-0.6,0.7-1.3,0.7-2.2c0-0.9-0.2-1.5-0.7-2.1C5.1-97.4,4.3-97.6,3.6-97.6 M6.9-98.1v7.1H6.4v-1.3l0,0c-0.2,0.4-0.6,0.7-1.1,1.1
			c-0.6,0.2-1.1,0.4-1.5,0.4c-1.1,0-1.9-0.4-2.6-1.1c-0.6-0.7-0.9-1.7-0.9-2.6c0-1.1,0.4-1.9,0.9-2.6s1.5-1.1,2.6-1.1
			c0.6,0,1.1,0.2,1.5,0.4c0.6,0.2,0.9,0.6,1.1,0.9l0,0v-1.3h0.6V-98.1z"/>
	</g>
	<g transform="matrix(1,0,0,1,40.9241,148.093)">
		<path class="st0" d="M11.6-90.8l-3.4-7.3H9l2.8,6.5l2.8-6.5h0.7l-4.9,11.4H9.7L11.6-90.8z"/>
	</g>
	<g transform="matrix(1,0,0,1,40.9241,148.093)">
		<path class="st0" d="M-36.4-113.1h0.9c0.9,0,1.7-0.2,2.1-0.6c0.6-0.4,0.7-1.1,0.7-1.9c0-0.4-0.2-0.9-0.4-1.3
			c-0.2-0.4-0.6-0.7-0.9-0.9c-0.4-0.2-1.1-0.2-2.1-0.2h-0.6v4.9H-36.4z M-35.1-112.5l3.7,5.6h-0.9l-3.7-5.6h-0.4v5.6h-0.7v-11.6h1.5
			c0.4,0,0.7,0,0.9,0c0.2,0,0.6,0,0.9,0.2c0.4,0,0.6,0.2,0.9,0.4c0.7,0.6,1.1,1.3,1.1,2.4c0,0.9-0.4,1.7-0.9,2.2
			C-33.4-112.7-34.2-112.5-35.1-112.5"/>
	</g>
	<g transform="matrix(1,0,0,1,40.9241,148.093)">
		<path class="st0" d="M-29.7-111h5.4c0-0.7-0.4-1.3-0.9-1.7c-0.6-0.6-1.1-0.7-1.9-0.7s-1.3,0.2-1.9,0.7
			C-29.3-112.3-29.7-111.8-29.7-111 M-23.5-110.5h-6.2c0,0.9,0.2,1.7,0.7,2.2c0.6,0.6,1.3,0.7,2.1,0.7c0.6,0,0.9-0.2,1.5-0.4
			c0.4-0.4,0.7-0.7,1.1-1.1l0.6,0.4c-0.7,1.3-1.7,1.9-3.2,1.9c-1.1,0-1.9-0.4-2.4-1.1c-0.6-0.7-0.9-1.7-0.9-2.6
			c0-1.1,0.4-1.9,0.9-2.6c0.6-0.7,1.5-1.1,2.4-1.1c1.1,0,1.9,0.4,2.4,1.1C-23.7-112.3-23.5-111.6-23.5-110.5"/>
	</g>
	<g transform="matrix(1,0,0,1,40.9241,148.093)">
		<path class="st0" d="M-19.1-107.5c0.9,0,1.5-0.4,2.1-0.9c0.6-0.6,0.7-1.3,0.7-2.2c0-0.9-0.2-1.5-0.7-2.1c-0.6-0.6-1.3-0.9-2.1-0.9
			s-1.5,0.4-2.1,0.9c-0.6,0.6-0.7,1.3-0.7,2.1c0,0.9,0.2,1.7,0.7,2.2C-20.5-107.7-19.8-107.5-19.1-107.5 M-16.3-106.9v-1.3l0,0
			c-0.2,0.4-0.6,0.7-1.1,1.1c-0.6,0.2-1.1,0.4-1.5,0.4c-1.1,0-1.9-0.4-2.6-1.1c-0.6-0.7-0.9-1.7-0.9-2.6c0-1.1,0.4-1.9,0.9-2.6
			c0.6-0.7,1.5-1.1,2.6-1.1c0.6,0,1.1,0.2,1.5,0.4c0.6,0.2,0.9,0.6,1.1,0.9l0,0v-6.7h0.7v12.7H-16.3z"/>
	</g>
	<g transform="matrix(1,0,0,1,40.9241,148.093)">
		<path class="st0" d="M-5.6-107.5c0.9,0,1.5-0.4,2.1-0.9s0.7-1.3,0.7-2.2c0-0.9-0.2-1.5-0.7-2.1c-0.6-0.6-1.3-0.9-2.1-0.9
			s-1.5,0.4-2.1,0.9s-0.7,1.3-0.7,2.1c0,0.9,0.2,1.7,0.7,2.2C-7.1-107.7-6.3-107.5-5.6-107.5 M-2.8-106.9v-1.3l0,0
			c-0.2,0.4-0.6,0.7-1.1,1.1c-0.6,0.2-1.1,0.4-1.5,0.4c-1.1,0-1.9-0.4-2.6-1.1c-0.6-0.7-0.9-1.7-0.9-2.6c0-1.1,0.4-1.9,0.9-2.6
			s1.5-1.1,2.6-1.1c0.6,0,1.1,0.2,1.5,0.4c0.6,0.2,0.9,0.6,1.1,0.9l0,0v-6.7H-2v12.7H-2.8z"/>
	</g>
	<g transform="matrix(1,0,0,1,40.9241,148.093)">
		<path class="st0" d="M0.4-111h5.4c0-0.7-0.4-1.3-0.9-1.7c-0.6-0.6-1.1-0.7-1.9-0.7s-1.3,0.2-1.9,0.7C0.6-112.3,0.4-111.8,0.4-111
			 M6.5-110.5H0.4c0,0.9,0.2,1.7,0.7,2.2c0.6,0.6,1.3,0.7,2.1,0.7c0.6,0,0.9-0.2,1.5-0.4c0.4-0.4,0.7-0.7,1.1-1.1l0.6,0.4
			c-0.7,1.3-1.7,1.9-3.2,1.9c-1.1,0-1.9-0.4-2.4-1.1s-0.9-1.7-0.9-2.6c0-1.1,0.4-1.9,0.9-2.6s1.5-1.1,2.4-1.1c1.1,0,1.9,0.4,2.4,1.1
			S6.5-111.6,6.5-110.5"/>
	</g>
	<g transform="matrix(1,0,0,1,40.9241,148.093)">
		<path class="st0" d="M19.1-112.5h4.9c0,0.7,0,1.5-0.2,2.2c-0.2,0.6-0.6,1.1-0.9,1.7c-0.6,0.6-1.1,1.1-2.1,1.3
			c-0.7,0.4-1.7,0.6-2.4,0.6c-1.7,0-3-0.6-4.1-1.7c-1.1-1.1-1.9-2.6-1.9-4.1c0-1.7,0.6-3.2,1.9-4.3c1.1-1.1,2.6-1.7,4.3-1.7
			c2.1,0,3.7,0.9,5,2.8l-0.6,0.6c-0.6-0.7-1.1-1.5-1.9-1.9c-0.7-0.4-1.7-0.7-2.6-0.7c-1.5,0-2.6,0.6-3.7,1.7s-1.5,2.2-1.5,3.7
			s0.6,2.6,1.5,3.7c1.1,1.1,2.2,1.5,3.7,1.5c1.3,0,2.4-0.4,3.4-1.3c0.9-0.7,1.3-1.9,1.5-3.2h-4.1v-0.9H19.1z"/>
	</g>
	<g transform="matrix(1,0,0,1,40.9241,148.093)">
		<path class="st0" d="M28.6-113.6c-0.7,0-1.5,0.4-2.1,0.9c-0.6,0.6-0.9,1.3-0.9,2.2c0,0.7,0.4,1.5,0.9,2.1c0.6,0.6,1.3,0.9,2.1,0.9
			c0.9,0,1.7-0.4,2.2-0.9c0.6-0.6,0.9-1.3,0.9-2.2c0-0.9-0.4-1.7-0.9-2.2C30.3-113.3,29.5-113.6,28.6-113.6 M28.8-114.4
			c1.1,0,1.9,0.4,2.6,1.1s1.1,1.7,1.1,2.6c0,1.1-0.4,1.9-1.1,2.6c-0.7,0.7-1.7,1.1-2.6,1.1c-0.9,0-1.9-0.4-2.6-1.1
			c-0.7-0.7-1.1-1.7-1.1-2.6c0-1.1,0.4-1.9,1.1-2.6C26.7-114,27.7-114.4,28.8-114.4"/>
	</g>
	<g transform="matrix(1,0,0,1,40.9241,148.093)">
		<path class="st0" d="M37.6-107.5c0.9,0,1.5-0.4,2.1-0.9s0.7-1.3,0.7-2.2c0-0.7-0.2-1.5-0.7-2.1c-0.6-0.6-1.1-0.9-2.1-0.9
			s-1.5,0.4-2.1,0.9c-0.6,0.6-0.7,1.3-0.7,2.2s0.2,1.7,0.7,2.2C36.1-107.7,36.8-107.5,37.6-107.5 M34.2-106.9v-12.7H35v6.9l0,0
			c0.4-0.4,0.7-0.7,1.1-0.9c0.6-0.2,0.9-0.4,1.5-0.4c1.1,0,1.9,0.4,2.6,1.1c0.6,0.7,0.9,1.5,0.9,2.6c0,1.1-0.4,2.1-0.9,2.6
			c-0.6,0.7-1.5,1.1-2.6,1.1c-0.6,0-1.1-0.2-1.5-0.4c-0.6-0.2-0.9-0.6-1.1-1.1l0,0v1.3h-0.7V-106.9z"/>
	</g>
	<g transform="matrix(1,0,0,1,40.9241,148.093)">
		<path class="st0" d="M43.7-106.9H43v-7.1h0.7V-106.9z M43-117c0.2-0.2,0.2-0.2,0.4-0.2c0.2,0,0.4,0,0.4,0.2
			c0.2,0.2,0.2,0.2,0.2,0.4s0,0.4-0.2,0.4c0,0.4-0.2,0.4-0.4,0.4c-0.2,0-0.4,0-0.4-0.2c-0.2-0.2-0.2-0.2-0.2-0.4
			C42.8-116.6,42.8-116.8,43-117"/>
	</g>
	<g transform="matrix(1,0,0,1,40.9241,148.093)">
		<path class="st0" d="M46.4-111h5.4c0-0.7-0.4-1.3-0.9-1.7c-0.6-0.6-1.1-0.7-1.9-0.7c-0.7,0-1.3,0.2-1.9,0.7
			C46.7-112.3,46.5-111.8,46.4-111 M52.7-110.5h-6.2c0,0.9,0.2,1.7,0.7,2.2c0.6,0.6,1.3,0.7,2.1,0.7c0.6,0,0.9-0.2,1.5-0.4
			c0.4-0.4,0.7-0.7,1.1-1.1l0.6,0.4c-0.7,1.3-1.7,1.9-3.2,1.9c-1.1,0-1.9-0.4-2.4-1.1c-0.6-0.7-0.9-1.7-0.9-2.6
			c0-1.1,0.4-1.9,0.9-2.6c0.6-0.7,1.5-1.1,2.4-1.1c1.1,0,1.9,0.4,2.4,1.1C52.3-112.3,52.7-111.6,52.7-110.5"/>
	</g>
	<g transform="matrix(1,0,0,1,40.9241,148.093)">
		<path class="st0" d="M54.9-114v0.9l0,0c0.4-0.7,0.7-1.1,1.5-1.1c0.2,0,0.6,0,0.7,0.2l-0.4,0.6c-0.2,0-0.4-0.2-0.6-0.2
			c-0.2,0-0.4,0-0.6,0.2c-0.2,0-0.4,0.2-0.4,0.2c-0.2,0.2-0.2,0.2-0.2,0.4c0,0.2-0.2,0.4-0.2,0.6c0,0.2,0,0.4,0,0.6
			c0,0.2,0,0.4,0,0.6v4.3h-0.6v-7.1H54.9z"/>
	</g>
	<g transform="matrix(1,0,0,1,40.9241,148.093)">
		<path class="st0" d="M59.4-114v1.1l0,0c0.2-0.4,0.6-0.7,0.9-0.9s0.7-0.4,1.3-0.4c0.9,0,1.5,0.2,1.9,0.7s0.6,1.3,0.6,2.2v4.3h-0.7
			v-4.3c0-0.4,0-0.7,0-0.9c0-0.2-0.2-0.6-0.2-0.7c-0.2-0.2-0.4-0.4-0.6-0.6c-0.2-0.2-0.6-0.2-0.9-0.2c-1.3,0-2.1,1.1-2.1,3.2v3.6
			h-0.7v-7.1H59.4z"/>
	</g>
	<g transform="matrix(1,0,0,1,40.9241,148.093)">
		<path class="st0" d="M69.3-113.6c-0.7,0-1.5,0.4-2.1,0.9s-0.9,1.3-0.9,2.2c0,0.7,0.4,1.5,0.9,2.1c0.6,0.6,1.3,0.9,2.1,0.9
			c0.9,0,1.7-0.4,2.2-0.9s0.9-1.3,0.9-2.2c0-0.9-0.4-1.7-0.9-2.2C70.8-113.3,70.1-113.6,69.3-113.6 M69.3-114.2
			c1.1,0,1.9,0.4,2.6,1.1s1.1,1.7,1.1,2.6c0,1.1-0.4,1.9-1.1,2.6c-0.7,0.7-1.7,1.1-2.6,1.1s-1.9-0.4-2.6-1.1s-1.1-1.7-1.1-2.6
			c0-1.1,0.4-1.9,1.1-2.6C67.5-113.8,68.2-114.2,69.3-114.2"/>
	</g>
	<g transform="matrix(1,0,0,1,40.9241,148.093)">
		<path class="st0" d="M85.6-111.4l-2.2-5.6l-2.2,5.6H85.6z M85.8-110.8h-5l-1.5,3.9h-0.7l4.9-12l4.9,12h-0.7L85.8-110.8z"/>
	</g>
	<g transform="matrix(1,0,0,1,40.9241,148.093)">
		<path class="st0" d="M92.9-107.5c0.9,0,1.5-0.4,2.1-0.9c0.6-0.6,0.7-1.3,0.7-2.2c0-0.7-0.2-1.5-0.7-2.1c-0.6-0.6-1.1-0.9-2.1-0.9
			c-0.9,0-1.5,0.4-2.1,0.9s-0.7,1.3-0.7,2.2s0.2,1.7,0.7,2.2C91.4-107.7,92-107.5,92.9-107.5 M89.5-106.9v-12.7h0.7v6.9l0,0
			c0.4-0.4,0.7-0.7,1.1-0.9c0.6-0.2,0.9-0.4,1.5-0.4c1.1,0,1.9,0.4,2.6,1.1c0.6,0.7,0.9,1.5,0.9,2.6c0,1.1-0.4,2.1-0.9,2.6
			c-0.6,0.7-1.5,1.1-2.6,1.1c-0.6,0-1.1-0.2-1.5-0.4c-0.6-0.2-0.9-0.6-1.1-1.1l0,0v1.3h-0.7V-106.9z"/>
	</g>
	<g transform="matrix(1,0,0,1,40.9241,148.093)">
		<path class="st0" d="M99.1-106.9h-0.7v-7.1h0.7V-106.9z M98.3-117c0.2-0.2,0.2-0.2,0.4-0.2c0.2,0,0.4,0,0.4,0.2
			c0.2,0.2,0.2,0.2,0.2,0.4s0,0.4-0.2,0.4c0,0.4-0.2,0.4-0.4,0.4s-0.4,0-0.4-0.2c-0.2-0.2-0.2-0.2-0.2-0.4
			C98.1-116.6,98.1-116.8,98.3-117"/>
	</g>
	<g transform="matrix(1,0,0,1,40.9241,148.093)">
		<path class="st0" d="M101.7-111h5.4c0-0.7-0.4-1.3-0.9-1.7c-0.6-0.6-1.1-0.7-1.9-0.7s-1.3,0.2-1.9,0.7
			C102-112.3,101.9-111.8,101.7-111 M107.8-110.5h-6.2c0,0.9,0.2,1.7,0.7,2.2c0.6,0.6,1.3,0.7,2.1,0.7c0.6,0,0.9-0.2,1.5-0.4
			c0.4-0.4,0.7-0.7,1.1-1.1l0.6,0.4c-0.7,1.3-1.7,1.9-3.2,1.9c-1.1,0-1.9-0.4-2.4-1.1s-0.9-1.7-0.9-2.6c0-1.1,0.4-1.9,0.9-2.6
			s1.5-1.1,2.4-1.1c1.1,0,1.9,0.4,2.4,1.1C107.6-112.3,107.8-111.6,107.8-110.5"/>
	</g>
	<g transform="matrix(1,0,0,1,40.9241,148.093)">
		<path class="st0" d="M110.3-114v0.9l0,0c0.4-0.7,0.7-1.1,1.5-1.1c0.2,0,0.6,0,0.7,0.2l-0.2,0.6c-0.2,0-0.4-0.2-0.6-0.2
			s-0.4,0-0.6,0.2c-0.2,0-0.4,0.2-0.4,0.2c-0.2,0.2-0.2,0.2-0.2,0.4c0,0.2-0.2,0.4-0.2,0.6c0,0.2,0,0.4,0,0.6c0,0.2,0,0.4,0,0.6v4.3
			h-0.7v-7.1H110.3z"/>
	</g>
	<g transform="matrix(1,0,0,1,40.9241,148.093)">
		<path class="st0" d="M114.9-113.5v6.5h-0.7v-6.5h-0.7v-0.6h0.7v-2.6h0.7v2.6h1.3v0.6H114.9z"/>
	</g>
	<g transform="matrix(1,0,0,1,40.9241,148.093)">
		<path class="st0" d="M120.4-113.6c-0.7,0-1.5,0.4-2.1,0.9c-0.6,0.6-0.9,1.3-0.9,2.2c0,0.7,0.4,1.5,0.9,2.1
			c0.6,0.6,1.3,0.9,2.1,0.9c0.9,0,1.7-0.4,2.2-0.9c0.6-0.6,0.9-1.3,0.9-2.2c0-0.9-0.4-1.7-0.9-2.2
			C122-113.3,121.3-113.6,120.4-113.6 M120.4-114.2c1.1,0,1.9,0.4,2.6,1.1s1.1,1.7,1.1,2.6c0,1.1-0.4,1.9-1.1,2.6s-1.7,1.1-2.6,1.1
			s-1.9-0.4-2.6-1.1s-1.1-1.7-1.1-2.6c0-1.1,0.4-1.9,1.1-2.6S119.4-114.2,120.4-114.2"/>
	</g>
</g>
</svg>
