<?xml version="1.0" encoding="utf-8"?>
<!-- Generator: Adobe Illustrator 19.1.0, SVG Export Plug-In . SVG Version: 6.00 Build 0)  -->
<svg version="1.1" id="Capa_1" xmlns="http://www.w3.org/2000/svg" xmlns:xlink="http://www.w3.org/1999/xlink" x="0px" y="0px"
	 viewBox="47 -42 194.9 185" style="enable-background:new 47 -42 194.9 185;" xml:space="preserve">
<style type="text/css">
	.st0{fill:#A3DCEC;}
	.st1{fill:#FFFFFF;}
	.st2{fill:#5CBEDC;}
	.st3{opacity:0.54;clip-path:url(#SVGID_2_);fill:#5CBEDC;}
	.st4{fill:#FFFFFF;stroke:#5CBEDC;stroke-width:1.7579;stroke-linecap:round;stroke-linejoin:round;stroke-miterlimit:10;}
</style>
<g>
	<circle class="st0" cx="144.4" cy="50.5" r="66.9"/>
	<g>
		<g>
			<path class="st1" d="M182.4,9.7l-6-6.6L114.8,59l6,6.6c0.1-0.1,0.2-0.3,0.4-0.4c3.5-3.2,9.8-3.6,13.4,0.4
				c3.7,4.1,3.4,11.1-0.1,14.2c-0.1,0.1-0.3,0.2-0.4,0.3l4.9,5.4l61.7-55.9l-4.9-5.4c-3.5,3.2-9.9,3.7-13.6-0.3
				C178.5,20,179,12.9,182.4,9.7z"/>
			<path class="st2" d="M183.2,10.3c0.5-0.4,0.5-1.1,0.1-1.6l-5.4-6c-0.4-0.5-1.1-0.5-1.6-0.1L114.7,58c-0.5,0.4-0.5,1.1-0.1,1.6
				l5.4,6c0.4,0.5,1.1,0.5,1.6,0.1c3.7-3.3,9.3-3,12.6,0.7c3.3,3.7,3,9.3-0.7,12.6c-0.5,0.4-0.5,1.1-0.1,1.6l5.4,6
				c0.4,0.5,1.1,0.5,1.6,0.1L202,31.3c0.5-0.4,0.5-1.1,0.1-1.6l-5.4-6c-0.4-0.5-1.1-0.5-1.6-0.1c-3.7,3.3-9.3,3-12.6-0.7
				C179.2,19.3,179.5,13.6,183.2,10.3z M180.9,24.4c3.9,4.3,10.3,4.9,14.9,1.6l3.9,4.4l-9.9,8.9l-1.9-2.2c-0.4-0.5-1.1-0.5-1.6-0.1
				c-0.5,0.4-0.5,1.1-0.1,1.6l1.9,2.2l-36.3,32.6l-1.9-2.2c-0.4-0.5-1.1-0.5-1.6-0.1c-0.5,0.4-0.5,1.1-0.1,1.6l1.9,2.2l-10.4,9.3
				l-3.9-4.4c3.8-4.2,3.9-10.7,0.1-15c-3.9-4.3-10.3-4.9-14.9-1.6l-3.9-4.4l10.4-9.3l1.9,2.2c0.4,0.5,1.1,0.5,1.6,0.1
				c0.5-0.4,0.5-1.1,0.1-1.6l-1.9-2.2l36.3-32.6l1.9,2.2c0.4,0.5,1.1,0.5,1.6,0.1c0.5-0.4,0.5-1.1,0.1-1.6l-1.9-2.2l9.9-8.9l3.9,4.4
				C177.1,13.6,177,20.1,180.9,24.4z"/>
			<path class="st2" d="M142.9,65.1c-0.5,0.4-0.5,1.1-0.1,1.6l2.7,3c0.4,0.5,1.1,0.5,1.6,0.1c0.5-0.4,0.5-1.1,0.1-1.6l-2.7-3
				C144.1,64.8,143.3,64.7,142.9,65.1z"/>
			<path class="st2" d="M137.5,59.1c-0.5,0.4-0.5,1.1-0.1,1.6l2.7,3c0.4,0.5,1.1,0.5,1.6,0.1c0.5-0.4,0.5-1.1,0.1-1.6l-2.7-3
				C138.7,58.8,138,58.7,137.5,59.1z"/>
			<path class="st2" d="M132.1,53.2c-0.5,0.4-0.5,1.1-0.1,1.6l2.7,3c0.4,0.5,1.1,0.5,1.6,0.1c0.5-0.4,0.5-1.1,0.1-1.6l-2.7-3
				C133.3,52.8,132.6,52.7,132.1,53.2z"/>
			<path class="st2" d="M170.1,19c-0.5,0.4-0.5,1.1-0.1,1.6l2.7,3c0.4,0.5,1.1,0.5,1.6,0.1c0.5-0.4,0.5-1.1,0.1-1.6l-2.7-3
				C171.3,18.6,170.6,18.6,170.1,19z"/>
			<path class="st2" d="M175.5,25c-0.5,0.4-0.5,1.1-0.1,1.6l2.7,3c0.4,0.5,1.1,0.5,1.6,0.1c0.5-0.4,0.5-1.1,0.1-1.6l-2.7-3
				C176.7,24.6,176,24.6,175.5,25z"/>
			<path class="st2" d="M180.9,31c-0.5,0.4-0.5,1.1-0.1,1.6l2.7,3c0.4,0.5,1.1,0.5,1.6,0.1c0.5-0.4,0.5-1.1,0.1-1.6l-2.7-3
				C182.1,30.6,181.4,30.6,180.9,31z"/>
			<path class="st2" d="M165.4,24.3L137.9,49c-0.5,0.4-0.5,1.1-0.1,1.6l12.4,13.8c0.4,0.5,1.1,0.5,1.6,0.1l27.5-24.7
				c0.5-0.4,0.5-1.1,0.1-1.6L167,24.4C166.6,23.9,165.9,23.9,165.4,24.3z M177,38.9l-25.8,23.2l-10.9-12.1l25.8-23.2L177,38.9z"/>
		</g>
		<path class="st2" d="M155.3,41.9l2.2,0.9c0.1,0.1,0.3,0,0.4,0l2-1.3c0.3-0.2,0.7,0,0.6,0.4l-0.2,2.3c0,0.1,0,0.3,0.2,0.4l1.8,1.5
			c0.3,0.2,0.2,0.7-0.2,0.7l-2.3,0.5c-0.1,0-0.2,0.1-0.3,0.3l-0.8,2.2c-0.1,0.3-0.6,0.4-0.8,0.1l-1.2-2c-0.1-0.1-0.2-0.2-0.3-0.2
			l-2.3-0.1c-0.3,0-0.5-0.4-0.3-0.7l1.5-1.8c0.1-0.1,0.1-0.2,0.1-0.4l-0.6-2.3C154.6,42,154.9,41.7,155.3,41.9z"/>
	</g>
	<g>
		<defs>
			<polygon id="SVGID_1_" points="140.4,86.6 134,77.2 131,46.7 150,27 164,15 173.2,16 176.6,22.4 178.1,29.6 175.7,42.1 			"/>
		</defs>
		<clipPath id="SVGID_2_">
			<use xlink:href="#SVGID_1_"  style="overflow:visible;"/>
		</clipPath>
		<path class="st3" d="M151.4,10.1l-7.8-4.2L104,79.1l7.8,4.2c0.1-0.2,0.1-0.3,0.2-0.5c2.2-4.1,8-6.6,12.8-4
			c4.8,2.6,6.9,9.4,4.6,13.5c-0.1,0.2-0.2,0.3-0.3,0.5l6.4,3.5L175.2,23l-6.4-3.4c-2.2,4.1-8.1,6.8-12.9,4.2
			C151.1,21.1,149.2,14.2,151.4,10.1z"/>
	</g>
	<g>
		<g>
			<path class="st1" d="M144.5,12.4l-7.8-4.2L97.1,81.4l7.8,4.2c0.1-0.2,0.1-0.3,0.2-0.5c2.2-4.1,8-6.6,12.8-4
				c4.8,2.6,6.9,9.4,4.6,13.5c-0.1,0.2-0.2,0.3-0.3,0.5l6.4,3.5l39.6-73.2l-6.4-3.4c-2.2,4.1-8.1,6.8-12.9,4.2
				C144.2,23.4,142.3,16.5,144.5,12.4z"/>
			<path class="st2" d="M145.4,12.7c0.3-0.5,0.1-1.2-0.4-1.5l-7.1-3.9c-0.5-0.3-1.2-0.1-1.5,0.4L96.6,80.4c-0.3,0.5-0.1,1.2,0.4,1.5
				l7.1,3.9c0.5,0.3,1.2,0.1,1.5-0.4c2.4-4.3,7.8-5.9,12.1-3.5c4.3,2.4,5.9,7.8,3.6,12.1c-0.3,0.5-0.1,1.2,0.4,1.5l7.1,3.9
				c0.5,0.3,1.2,0.1,1.5-0.4l39.8-72.7c0.3-0.5,0.1-1.2-0.4-1.5l-7.1-3.9c-0.5-0.3-1.2-0.1-1.5,0.4c-2.4,4.3-7.8,5.9-12.1,3.5
				C144.6,22.5,143.1,17,145.4,12.7z M147.9,26.8c5.1,2.8,11.4,1.2,14.6-3.5l5.1,2.8l-6.4,11.7l-2.6-1.4c-0.5-0.3-1.2-0.1-1.5,0.4
				c-0.3,0.5-0.1,1.2,0.4,1.5l2.6,1.4l-23.5,42.8l-2.6-1.4c-0.5-0.3-1.2-0.1-1.5,0.4c-0.3,0.5-0.1,1.2,0.4,1.5l2.6,1.4l-6.7,12.3
				l-5.1-2.8c2.2-5.2,0.2-11.4-4.9-14.2c-5.1-2.8-11.4-1.2-14.6,3.5l-5.1-2.8l6.7-12.3l2.5,1.4c0.5,0.3,1.2,0.1,1.5-0.4
				c0.3-0.5,0.1-1.2-0.4-1.5l-2.5-1.4l23.5-42.8l2.5,1.4c0.5,0.3,1.2,0.1,1.5-0.4s0.1-1.2-0.4-1.5l-2.5-1.4l6.4-11.7l5.1,2.8
				C140.8,17.8,142.8,24,147.9,26.8z"/>
			<path class="st2" d="M125.6,77.8c-0.3,0.5-0.1,1.2,0.4,1.5l3.5,1.9c0.5,0.3,1.2,0.1,1.5-0.4c0.3-0.5,0.1-1.2-0.4-1.5l-3.5-1.9
				C126.6,77,125.9,77.2,125.6,77.8z"/>
			<path class="st2" d="M118.5,73.9c-0.3,0.5-0.1,1.2,0.4,1.5l3.5,1.9c0.5,0.3,1.2,0.1,1.5-0.4c0.3-0.5,0.1-1.2-0.4-1.5l-3.5-1.9
				C119.5,73.2,118.8,73.4,118.5,73.9z"/>
			<path class="st2" d="M111.5,70c-0.3,0.5-0.1,1.2,0.4,1.5l3.5,1.9c0.5,0.3,1.2,0.1,1.5-0.4c0.3-0.5,0.1-1.2-0.4-1.5l-3.5-1.9
				C112.4,69.3,111.8,69.5,111.5,70z"/>
			<path class="st2" d="M136,25.2c-0.3,0.5-0.1,1.2,0.4,1.5l3.5,1.9c0.5,0.3,1.2,0.1,1.5-0.4s0.1-1.2-0.4-1.5l-3.5-1.9
				C137,24.5,136.3,24.7,136,25.2z"/>
			<path class="st2" d="M143.1,29.1c-0.3,0.5-0.1,1.2,0.4,1.5l3.5,1.9c0.5,0.3,1.2,0.1,1.5-0.4c0.3-0.5,0.1-1.2-0.4-1.5l-3.5-1.9
				C144,28.4,143.4,28.6,143.1,29.1z"/>
			<path class="st2" d="M150.1,33c-0.3,0.5-0.1,1.2,0.4,1.5l3.5,1.9c0.5,0.3,1.2,0.1,1.5-0.4s0.1-1.2-0.4-1.5l-3.5-1.9
				C151.1,32.2,150.4,32.4,150.1,33z"/>
			<path class="st2" d="M133.3,31.8l-17.7,32.4c-0.3,0.5-0.1,1.2,0.4,1.5l16.3,8.9c0.5,0.3,1.2,0.1,1.5-0.4l17.7-32.4
				c0.3-0.5,0.1-1.2-0.4-1.5l-16.3-8.9C134.3,31.1,133.6,31.3,133.3,31.8z M149,41.7l-16.7,30.5L118,64.3l16.7-30.5L149,41.7z"/>
		</g>
		<path class="st2" d="M129.5,51.7l2.3,0.1c0.1,0,0.3-0.1,0.4-0.2l1.4-1.9c0.2-0.3,0.6-0.2,0.7,0.2l0.6,2.3c0,0.1,0.1,0.2,0.3,0.3
			l2.2,0.8c0.3,0.1,0.4,0.6,0.1,0.7l-2,1.3c-0.1,0.1-0.2,0.2-0.2,0.3l-0.1,2.3c0,0.3-0.4,0.5-0.7,0.3l-1.8-1.5
			c-0.1-0.1-0.3-0.1-0.4-0.1l-2.3,0.7c-0.3,0.1-0.6-0.2-0.5-0.6l0.9-2.2c0.1-0.1,0-0.3,0-0.4l-1.3-1.9
			C129,52.1,129.2,51.7,129.5,51.7z"/>
	</g>
	<line class="st4" x1="92.9" y1="29.5" x2="110.7" y2="39"/>
	<line class="st4" x1="93.6" y1="41.9" x2="108.3" y2="43.6"/>
	<line class="st4" x1="113.9" y1="34.7" x2="105.2" y2="22.7"/>
</g>
</svg>
