<?xml version="1.0" encoding="utf-8"?>
<!-- Generator: Adobe Illustrator 19.1.0, SVG Export Plug-In . SVG Version: 6.00 Build 0)  -->
<svg version="1.1" id="Capa_1" xmlns="http://www.w3.org/2000/svg" xmlns:xlink="http://www.w3.org/1999/xlink" x="0px" y="0px"
	 viewBox="0 0 194.9 185" style="enable-background:new 0 0 194.9 185;" xml:space="preserve">
<style type="text/css">
	.st0{fill:#A4DDED;}
	.st1{fill:#FFFFFF;stroke:#5DBFDD;stroke-width:2.5971;stroke-miterlimit:10;}
	.st2{fill:#5DBFDD;}
</style>
<g>
	<circle class="st0" cx="73" cy="92.5" r="66.9"/>
	<path class="st1" d="M34.3,98.2l114.8-1.3c0,0,6.2,0,6.9-3.9c0.8-3.9,2.3-15.2,7.2-15.9s18.2-0.5,18.2-0.5s5.4-0.3,4.6,5.4
		c-0.8,5.7-8,28.8-10,32.1c-2.1,3.3-3.1,5.9-10.8,6.4c-7.7,0.5-125.8,0-125.8,0s-19.8,0.8-23.6-2.6C11.7,114.4,5.8,105.9,34.3,98.2z
		"/>
	<path class="st1" d="M185.5,104.2h-21.7c-1.8,0-3.2-1.4-3.2-3.2v0c0-1.8,1.4-3.2,3.2-3.2h21.7c1.8,0,3.2,1.4,3.2,3.2v0
		C188.7,102.8,187.2,104.2,185.5,104.2z"/>
	<path class="st2" d="M45.6,107.4H16.3c-1.2,0,1.1-1,1.1-2.1h1.1c0-1.2,1-2.1,2.1-2.1h25c1.2,0,2.1,1,2.1,2.1l0,0
		C47.8,106.4,46.8,107.4,45.6,107.4z"/>
	<path class="st2" d="M56.2,107.2L56.2,107.2c-1,0-1.8-0.8-1.8-1.8v0c0-1,0.8-1.8,1.8-1.8l0,0c1,0,1.8,0.8,1.8,1.8v0
		C58,106.4,57.2,107.2,56.2,107.2z"/>
	<path class="st2" d="M63.1,107.2L63.1,107.2c-1,0-1.8-0.8-1.8-1.8v0c0-1,0.8-1.8,1.8-1.8h0c1,0,1.8,0.8,1.8,1.8v0
		C64.9,106.4,64.1,107.2,63.1,107.2z"/>
	<path class="st2" d="M70,107.2L70,107.2c-1,0-1.8-0.8-1.8-1.8v0c0-1,0.8-1.8,1.8-1.8l0,0c1,0,1.8,0.8,1.8,1.8v0
		C71.8,106.4,71,107.2,70,107.2z"/>
	<path class="st2" d="M76.9,107.2L76.9,107.2c-1,0-1.8-0.8-1.8-1.8v0c0-1,0.8-1.8,1.8-1.8h0c1,0,1.8,0.8,1.8,1.8v0
		C78.8,106.4,77.9,107.2,76.9,107.2z"/>
	<path class="st2" d="M83.9,107.2L83.9,107.2c-1,0-1.8-0.8-1.8-1.8v0c0-1,0.8-1.8,1.8-1.8l0,0c1,0,1.8,0.8,1.8,1.8v0
		C85.7,106.4,84.9,107.2,83.9,107.2z"/>
	<path class="st2" d="M90.8,107.2L90.8,107.2c-1,0-1.8-0.8-1.8-1.8v0c0-1,0.8-1.8,1.8-1.8l0,0c1,0,1.8,0.8,1.8,1.8v0
		C92.6,106.4,91.8,107.2,90.8,107.2z"/>
	<path class="st2" d="M97.7,107.2L97.7,107.2c-1,0-1.8-0.8-1.8-1.8v0c0-1,0.8-1.8,1.8-1.8h0c1,0,1.8,0.8,1.8,1.8v0
		C99.5,106.4,98.7,107.2,97.7,107.2z"/>
	<path class="st2" d="M104.7,107.2L104.7,107.2c-1,0-1.8-0.8-1.8-1.8v0c0-1,0.8-1.8,1.8-1.8l0,0c1,0,1.8,0.8,1.8,1.8v0
		C106.5,106.4,105.6,107.2,104.7,107.2z"/>
	<path class="st2" d="M111.6,107.2L111.6,107.2c-1,0-1.8-0.8-1.8-1.8v0c0-1,0.8-1.8,1.8-1.8l0,0c1,0,1.8,0.8,1.8,1.8v0
		C113.4,106.4,112.6,107.2,111.6,107.2z"/>
	<path class="st2" d="M118.5,107.2L118.5,107.2c-1,0-1.8-0.8-1.8-1.8v0c0-1,0.8-1.8,1.8-1.8h0c1,0,1.8,0.8,1.8,1.8v0
		C120.3,106.4,119.5,107.2,118.5,107.2z"/>
	<path class="st2" d="M125.4,107.2L125.4,107.2c-1,0-1.8-0.8-1.8-1.8v0c0-1,0.8-1.8,1.8-1.8l0,0c1,0,1.8,0.8,1.8,1.8l0,0
		C127.2,106.4,126.4,107.2,125.4,107.2z"/>
	<path class="st2" d="M132.4,107.2L132.4,107.2c-1,0-1.8-0.8-1.8-1.8v0c0-1,0.8-1.8,1.8-1.8h0c1,0,1.8,0.8,1.8,1.8l0,0
		C134.2,106.4,133.4,107.2,132.4,107.2z"/>
	<path class="st1" d="M69.4,113.4H120c0,0,27.1,11.7,26.9,14.5c-0.2,2.8-82-12.2-81.3-13C66.2,114.1,69.4,113.4,69.4,113.4z"/>
	<path class="st2" d="M95.4,79c0.2-0.8,0.3-1.5,0.3-2.3c0-5.9-4.8-10.7-10.7-10.7c-1.3,0-2.5,0.2-3.6,0.6
		c-2.4-6.4-8.6-10.9-15.8-10.9c-7.6,0-14,4.9-16.1,11.8c-1.6-1-3.5-1.5-5.5-1.5c-5,0-9.3,3.5-10.4,8.2c-2.3-0.5-3.3-4.1-10.1-4.5
		C15,69.2,10.5,75.8,8.9,79H95.4z"/>
</g>
</svg>
