<?xml version="1.0" encoding="utf-8"?>
<!-- Generator: Adobe Illustrator 19.1.0, SVG Export Plug-In . SVG Version: 6.00 Build 0)  -->
<svg version="1.1" id="Capa_1" xmlns="http://www.w3.org/2000/svg" xmlns:xlink="http://www.w3.org/1999/xlink" x="0px" y="0px"
	 viewBox="0 0 194.9 185" style="enable-background:new 0 0 194.9 185;" xml:space="preserve">
<style type="text/css">
	.st0{fill:#A4DDED;}
	.st1{fill:#5DBFDD;}
	.st2{fill:#5DBFDD;stroke:#5DBFDD;stroke-width:1.725;stroke-miterlimit:10;}
	.st3{fill:#FFFFFF;stroke:#5DBFDD;stroke-width:2.5971;stroke-miterlimit:10;}
	.st4{fill:#FFFFFF;}
</style>
<g>
	<circle class="st0" cx="97.4" cy="92.5" r="66.9"/>
	<path class="st1" d="M43.3,124.3C54.6,142.2,74.5,154,97.1,154s42.5-11.9,53.8-29.7H43.3z"/>
	<circle class="st1" cx="67.1" cy="107" r="17.2"/>
	<circle class="st1" cx="117.4" cy="107" r="17.2"/>
	<path class="st4" d="M117.4,91.6c-2.9,0-5.5,0.8-7.8,2.1l-6-8.8l2.4-7.9h4.6c0.5,0,1-0.4,1-1c0-0.5-0.4-1-1-1H99.9
		c-0.5,0-1,0.4-1,1c0,0.5,0.4,1,1,1h4l-2.2,7.1H77.1l1.2-3.8l0.2-0.7c0.1-0.3,0-0.6-0.1-0.9c-0.2-0.3-0.5-0.4-0.8-0.4H70
		c-2,0-4.4-1.6-4.4-3.5c0-0.5-0.4-1-1-1s-1,0.4-1,1c0,3.2,3.4,5.5,6.4,5.5h6.3l-3.7,12.2c-1.6-0.5-3.2-0.8-4.9-0.8
		c-8.5,0-15.5,7-15.5,15.5c0,8.5,7,15.5,15.5,15.5s15.5-7,15.5-15.5c0-6.1-3.6-11.4-8.7-13.9l0.9-2.9l15,17.1
		c-0.5,0.8-0.8,1.8-0.8,2.8c0,3,2.4,5.4,5.4,5.4c2.8,0,5.1-2.1,5.4-4.8l2.1-0.3c1.6,6.9,7.7,12,15.1,12c8.5,0,15.5-7,15.5-15.5
		C132.9,98.5,125.9,91.6,117.4,91.6z M81.1,107.1c0,7.5-6.1,13.5-13.5,13.5c-7.5,0-13.5-6.1-13.5-13.5c0-7.5,6.1-13.5,13.5-13.5
		c1.5,0,3,0.3,4.4,0.7l-3.3,10.6c-0.3-0.2-0.7-0.3-1.1-0.3c-1.4,0-2.5,1.1-2.5,2.5c0,1.4,1.1,2.5,2.5,2.5c0.8,0,1.5-0.4,2-1
		c0.1-0.1,0.2-0.2,0.2-0.4c0.1-0.2,0.2-0.5,0.2-0.8l3.8-12.3C78.1,97.3,81.1,101.9,81.1,107.1z M67.9,107.4
		c-0.1,0.1-0.2,0.2-0.4,0.2c-0.3,0-0.5-0.2-0.5-0.5c0-0.3,0.2-0.5,0.5-0.5c0.2,0,0.4,0.2,0.5,0.4L67.9,107.4z M76.5,86.1h24.6
		l-5.8,18.8c-0.2,0-0.4,0-0.6,0c-1.2,0-2.3,0.4-3.2,1.1L75.9,88.1L76.5,86.1z M98,109.2l-1.5,0.2c-0.1-0.2-0.2-0.3-0.3-0.5l0.5-1.5
		C97.3,107.9,97.8,108.5,98,109.2z M94.3,108.4c-0.2,0-0.3,0.1-0.5,0.2l-1-1.1c0.6-0.4,1.2-0.6,1.9-0.6c0,0,0,0,0,0L94.3,108.4z
		 M94.8,113.7c-1.9,0-3.4-1.5-3.4-3.4c0-0.4,0.1-0.8,0.2-1.2l1.3,1.4c0.1,1,0.9,1.7,1.9,1.7c0.6,0,1.1-0.3,1.5-0.7l1.8-0.3
		C97.6,112.7,96.3,113.7,94.8,113.7z M100,108.9c-0.4-1.5-1.4-2.7-2.7-3.4l5.5-18.1l5.1,7.4c-3.7,2.8-6,7.3-6,12.2
		c0,0.5,0,1,0.1,1.5L100,108.9z M117.8,107.1c0,0.3-0.2,0.5-0.5,0.5c-0.3,0-0.5-0.2-0.5-0.5c0-0.3,0.2-0.5,0.5-0.5
		C117.6,106.6,117.8,106.8,117.8,107.1z M115,106.5l-11.1,1.8c0-0.4-0.1-0.8-0.1-1.2c0-4.3,2-8.1,5.2-10.6l6.3,9.3
		C115.2,106,115.1,106.2,115,106.5z M117.4,120.6c-6.4,0-11.7-4.4-13.1-10.4l11.1-1.8c0.4,0.6,1.2,1.1,2,1.1c1.4,0,2.5-1.1,2.5-2.5
		c0-1.4-1.1-2.5-2.5-2.5c-0.1,0-0.3,0-0.4,0l-6.3-9.3c2-1.1,4.3-1.8,6.7-1.8c7.5,0,13.5,6.1,13.5,13.5
		C130.9,114.5,124.8,120.6,117.4,120.6z"/>
</g>
</svg>
