<?xml version="1.0" encoding="utf-8"?>
<!-- Generator: Adobe Illustrator 19.1.0, SVG Export Plug-In . SVG Version: 6.00 Build 0)  -->
<svg version="1.1" id="Capa_1" xmlns="http://www.w3.org/2000/svg" xmlns:xlink="http://www.w3.org/1999/xlink" x="0px" y="0px"
	 viewBox="0 0 194.9 185" style="enable-background:new 0 0 194.9 185;" xml:space="preserve">
<style type="text/css">
	.st0{fill:#A4DDED;}
	.st1{fill:#5DBFDD;stroke:#5DBFDD;stroke-width:1.725;stroke-miterlimit:10;}
	.st2{fill:#5DBFDD;}
	.st3{fill:#FFFFFF;stroke:#5DBFDD;stroke-width:2.5971;stroke-miterlimit:10;}
	.st4{clip-path:url(#SVGID_2_);fill:#5DBFDD;}
</style>
<g>
	<circle class="st0" cx="94.6" cy="92.5" r="66.9"/>
	<g>
		<circle class="st1" cx="133" cy="113" r="6.4"/>
		<circle class="st1" cx="117.6" cy="113" r="6.4"/>
		<circle class="st1" cx="19.5" cy="113" r="6.4"/>
	</g>
	<rect x="172.4" y="99.1" class="st2" width="3.7" height="21.1"/>
	<path class="st3" d="M20.7,73.2h122.7c11.2,0,11.7,5.2,11.7,11.7v24.4c0,1.3-1.1,2.4-2.4,2.4H8.2c-1.1,0-2.1-0.8-2.3-1.9
		C4.4,102,0.4,73.2,20.7,73.2z"/>
	<circle class="st3" cx="138.7" cy="113" r="6.4"/>
	<circle class="st3" cx="123.3" cy="113" r="6.4"/>
	<circle class="st3" cx="25.2" cy="113" r="6.4"/>
	<circle class="st2" cx="139" cy="113" r="1.9"/>
	<circle class="st2" cx="123.8" cy="113" r="1.9"/>
	<circle class="st2" cx="25.2" cy="113" r="1.9"/>
	<polygon class="st3" points="21.7,92.3 143.9,92.3 143.9,73.2 25.5,73.2 	"/>
	<rect x="113.6" y="72.8" class="st2" width="1.7" height="20"/>
	<rect x="38" y="72.8" class="st2" width="1.7" height="20"/>
	<rect x="78.6" y="72.8" class="st2" width="1.7" height="20"/>
	<path class="st3" d="M5.1,98.3h17.2c0,0,1.2-23.6,16.1-24.9c0.1,0,0.2,0,0.4,0l-14.3-0.1"/>
	<rect x="39.4" y="80" class="st2" width="104.4" height="1.5"/>
	<path class="st3" d="M40.4,72.6c0,0,1.3-6.3,16-6.3s53,0,53,0s6.8,0.2,9.3,2.7s4,4,4,4L40.4,72.6z"/>
	<rect x="39.1" y="96.7" class="st2" width="75.1" height="8.3"/>
	<polygon class="st0" points="174.1,54.4 163,82.1 169.1,82.1 160.2,103.7 189.1,103.7 181.3,82.1 187.6,82.1 	"/>
	<g>
		<defs>
			<circle id="SVGID_1_" cx="94.9" cy="92.5" r="66.9"/>
		</defs>
		<clipPath id="SVGID_2_">
			<use xlink:href="#SVGID_1_"  style="overflow:visible;"/>
		</clipPath>
		<path class="st4" d="M29.9,119.6c0.9-0.6,13.9-2.7,21.5-1.2c7.6,1.5,22.6,0.9,27,1.1s30.4-0.2,35.9-1.7c5.4-1.5,14.2,0.6,21.8,1.2
			c7.6,0.6,22.4-0.3,24.8,0.3c2.4,0.6-0.6,8.2-0.6,8.2l-27.5,27.2c0,0-38.7,15.1-55.7,9.7s-36.6-18.8-36.6-18.8L29.9,119.6z"/>
	</g>
	<path class="st2" d="M154.1,119.5l36.1,0.5c1.4-1.1-49.7,27.1-69.2,33.6c-16.7,5.6-9-4.5-9-4.5"/>
</g>
</svg>
