<?xml version="1.0" encoding="utf-8"?>
<!-- Generator: Adobe Illustrator 19.1.0, SVG Export Plug-In . SVG Version: 6.00 Build 0)  -->
<svg version="1.1" id="Capa_1" xmlns="http://www.w3.org/2000/svg" xmlns:xlink="http://www.w3.org/1999/xlink" x="0px" y="0px"
	 viewBox="0 0 194.9 185" style="enable-background:new 0 0 194.9 185;" xml:space="preserve">
<style type="text/css">
	.st0{fill:#A4DDED;}
	.st1{fill:#5DBFDD;}
	.st2{fill:#5DBFDD;stroke:#5DBFDD;stroke-width:1.725;stroke-miterlimit:10;}
	.st3{fill:#FFFFFF;stroke:#5DBFDD;stroke-width:2.5971;stroke-miterlimit:10;}
</style>
<g>
	<circle class="st0" cx="94.1" cy="92.5" r="66.9"/>
	<path class="st1" d="M40,124.3C51.3,142.2,71.2,154,93.8,154s42.5-11.9,53.8-29.7H40z"/>
	<g>
		<circle class="st2" cx="138.8" cy="119.7" r="6.4"/>
		<circle class="st2" cx="40.7" cy="119.7" r="6.4"/>
	</g>
	<path class="st3" d="M41.9,79.8h115.5c11.2,0,11.7,5.2,11.7,11.7v24.4c0,1.3-1.1,2.4-2.4,2.4H29.4c-1.1,0-2.1-0.8-2.3-1.9
		C25.7,108.6,21.6,79.8,41.9,79.8z"/>
	<circle class="st3" cx="144.5" cy="119.7" r="6.4"/>
	<circle class="st3" cx="46.4" cy="119.7" r="6.4"/>
	<circle class="st1" cx="145.1" cy="119.7" r="1.9"/>
	<circle class="st1" cx="46.4" cy="119.7" r="1.9"/>
	<polygon class="st3" points="42.9,99 157.9,99 157.9,79.8 46.7,79.8 	"/>
	<rect x="134.9" y="79.5" class="st1" width="1.7" height="20"/>
	<rect x="59.3" y="79.5" class="st1" width="1.7" height="20"/>
	<rect x="99.9" y="79.5" class="st1" width="1.7" height="20"/>
	<path class="st3" d="M26.4,104.9h17.2c0,0,1.2-23.6,16.1-24.9c0.1,0,0.2,0,0.4,0l-14.3-0.1"/>
	<rect x="60.6" y="86.7" class="st1" width="97.2" height="1.5"/>
</g>
</svg>
