<?xml version="1.0" encoding="utf-8"?>
<!-- Generator: Adobe Illustrator 19.1.0, SVG Export Plug-In . SVG Version: 6.00 Build 0)  -->
<svg version="1.1" id="Capa_1" xmlns="http://www.w3.org/2000/svg" xmlns:xlink="http://www.w3.org/1999/xlink" x="0px" y="0px"
	 viewBox="47 -42 194.9 185" style="enable-background:new 47 -42 194.9 185;" xml:space="preserve">
<style type="text/css">
	.st0{fill:#efa4c7;}
	.st1{fill:#f8c5dd;}
	.st2{fill:#FFFFFF;stroke:#f8c5dd;stroke-width:1.7579;stroke-miterlimit:10;}
	.st3{fill:#FFFFFF;stroke:#f8c5dd;stroke-width:1.6101;stroke-miterlimit:10;}
	.st4{fill:#FFFFFF;stroke:#f8c5dd;stroke-width:1.7645;stroke-miterlimit:10;}
	.st5{fill:#FFFFFF;stroke:#f8c5dd;stroke-width:1.6025;stroke-miterlimit:10;}
</style>
<g>
	<circle class="st0" cx="146.2" cy="51.4" r="66.9"/>
	<path class="st1" d="M92.5,85.4c11.3,17.8,31.1,29.7,53.8,29.7s42.5-11.9,53.8-29.7H92.5z"/>
	<rect x="153" y="-14.7" class="st2" width="42.5" height="100.5"/>
	<rect x="150.5" y="-15.3" class="st3" width="47.4" height="4.8"/>
	<rect x="84.8" y="45.6" class="st4" width="68.3" height="40.2"/>
	<rect x="78.5" y="80.7" class="st5" width="24.5" height="2.6"/>
	<rect x="75.8" y="83.4" class="st5" width="30" height="2.6"/>
	<rect x="84.2" y="65.5" class="st1" width="13.7" height="15.1"/>
	<g>
		<rect x="162.4" y="1.2" class="st1" width="4.9" height="13"/>
		<rect x="171.8" y="1.2" class="st1" width="4.9" height="13"/>
		<rect x="181.2" y="1.2" class="st1" width="4.9" height="13"/>
	</g>
	<g>
		<rect x="162.4" y="28.1" class="st1" width="4.9" height="13"/>
		<rect x="171.8" y="28.1" class="st1" width="4.9" height="13"/>
		<rect x="181.2" y="28.1" class="st1" width="4.9" height="13"/>
	</g>
	<g>
		<rect x="162.4" y="56.4" class="st1" width="4.9" height="13"/>
		<rect x="171.8" y="56.4" class="st1" width="4.9" height="13"/>
		<rect x="181.2" y="56.4" class="st1" width="4.9" height="13"/>
	</g>
	<rect x="81.7" y="43.2" class="st2" width="70.9" height="3.9"/>
	<rect x="199.6" y="-6.6" class="st1" width="9.3" height="46.4"/>
	<rect x="196.3" y="1.7" class="st1" width="3.5" height="1.1"/>
	<rect x="196.3" y="30.9" class="st1" width="3.5" height="1.1"/>
	<rect x="161" y="13.4" class="st1" width="27.1" height="2.2"/>
	<rect x="161" y="40.1" class="st1" width="27.1" height="2.2"/>
	<rect x="161" y="68.7" class="st1" width="27.1" height="2.2"/>
	<g>
		<rect x="114.1" y="56.4" class="st1" width="4.9" height="13"/>
		<rect x="123.5" y="56.4" class="st1" width="4.9" height="13"/>
		<rect x="132.9" y="56.4" class="st1" width="4.9" height="13"/>
	</g>
	<rect x="112.7" y="68.7" class="st1" width="27.1" height="2.2"/>
	<rect x="80.6" y="28.6" class="st1" width="69.9" height="9.4"/>
	<g>
		<rect x="114.7" y="35.3" class="st1" width="1.1" height="7.5"/>
		<rect x="142.8" y="35.3" class="st1" width="1.1" height="7.5"/>
	</g>
	<rect x="88.9" y="35.3" class="st1" width="1.1" height="7.5"/>
</g>
</svg>
