<?xml version="1.0" encoding="utf-8"?>
<!-- Generator: Adobe Illustrator 19.1.0, SVG Export Plug-In . SVG Version: 6.00 Build 0)  -->
<svg version="1.1" id="Capa_1" xmlns="http://www.w3.org/2000/svg" xmlns:xlink="http://www.w3.org/1999/xlink" x="0px" y="0px"
	 viewBox="0 0 194.9 185" style="enable-background:new 0 0 194.9 185;" xml:space="preserve">
<style type="text/css">
	.st0{fill:#efa4c7;}
	.st1{fill:#FFFFFF;stroke:#f8c5dd;stroke-width:2.2934;stroke-miterlimit:10;}
	.st2{fill:#f8c5dd;}
</style>
<g>
	<circle class="st0" cx="76.8" cy="92.5" r="66.9"/>
	<path class="st1" d="M50.6,86.5l99.2-20.8c0,0,5.3-1.1,5.3-4.5s-0.6-13.5,3.5-15c4.1-1.5,15.7-3.6,15.7-3.6s4.6-1.1,4.9,3.9
		c0.3,5-2,26.3-3.2,29.5c-1.2,3.2-1.7,5.6-8.2,7.4S58.9,105,58.9,105s-17,4.1-20.9,1.8C33.9,104.4,27.3,98.1,50.6,86.5z"/>
	<path class="st1" d="M182.6,65.8l-18.8,3.7c-1.5,0.3-3-0.7-3.3-2.2v0c-0.3-1.5,0.7-3,2.2-3.3l18.8-3.7c1.5-0.3,3,0.7,3.3,2.2v0
		C185.2,64,184.2,65.5,182.6,65.8z"/>
	<path class="st2" d="M62,92.5l-25.4,5c-1,0.2,0.8-1,0.6-2l1-0.2c-0.2-1,0.5-2,1.5-2.2l21.7-4.3c1-0.2,2,0.5,2.2,1.5v0
		C63.7,91.3,63,92.3,62,92.5z"/>
	<path class="st2" d="M71.1,90.6L71.1,90.6c-0.9,0.2-1.7-0.4-1.9-1.3v0c-0.2-0.9,0.4-1.7,1.3-1.9l0,0c0.9-0.2,1.7,0.4,1.9,1.3h0
		C72.5,89.5,72,90.4,71.1,90.6z"/>
	<path class="st2" d="M77.1,89.4L77.1,89.4c-0.9,0.2-1.7-0.4-1.9-1.3l0,0c-0.2-0.9,0.4-1.7,1.3-1.9l0,0c0.9-0.2,1.7,0.4,1.9,1.3v0
		C78.5,88.4,78,89.2,77.1,89.4z"/>
	<path class="st2" d="M83.1,88.2L83.1,88.2c-0.9,0.2-1.7-0.4-1.9-1.3l0,0c-0.2-0.9,0.4-1.7,1.3-1.9h0c0.9-0.2,1.7,0.4,1.9,1.3v0
		C84.5,87.2,84,88,83.1,88.2z"/>
	<path class="st2" d="M89.1,87L89.1,87c-0.9,0.2-1.7-0.4-1.9-1.3l0,0c-0.2-0.9,0.4-1.7,1.3-1.9l0,0c0.9-0.2,1.7,0.4,1.9,1.3v0
		C90.6,86,90,86.8,89.1,87z"/>
	<path class="st2" d="M95.1,85.8L95.1,85.8c-0.9,0.2-1.7-0.4-1.9-1.3v0c-0.2-0.9,0.4-1.7,1.3-1.9l0,0c0.9-0.2,1.7,0.4,1.9,1.3l0,0
		C96.6,84.8,96,85.6,95.1,85.8z"/>
	<path class="st2" d="M101.1,84.6L101.1,84.6c-0.9,0.2-1.7-0.4-1.9-1.3v0c-0.2-0.9,0.4-1.7,1.3-1.9h0c0.9-0.2,1.7,0.4,1.9,1.3l0,0
		C102.6,83.6,102,84.4,101.1,84.6z"/>
	<path class="st2" d="M107.1,83.4L107.1,83.4c-0.9,0.2-1.7-0.4-1.9-1.3v0c-0.2-0.9,0.4-1.7,1.3-1.9l0,0c0.9-0.2,1.7,0.4,1.9,1.3l0,0
		C108.6,82.4,108,83.3,107.1,83.4z"/>
	<path class="st2" d="M113.1,82.2L113.1,82.2c-0.9,0.2-1.7-0.4-1.9-1.3l0,0c-0.2-0.9,0.4-1.7,1.3-1.9l0,0c0.9-0.2,1.7,0.4,1.9,1.3
		l0,0C114.6,81.2,114,82.1,113.1,82.2z"/>
	<path class="st2" d="M119.1,81.1L119.1,81.1c-0.9,0.2-1.7-0.4-1.9-1.3l0,0c-0.2-0.9,0.4-1.7,1.3-1.9h0c0.9-0.2,1.7,0.4,1.9,1.3v0
		C120.6,80,120,80.9,119.1,81.1z"/>
	<path class="st2" d="M125.1,79.9L125.1,79.9c-0.9,0.2-1.7-0.4-1.9-1.3l0,0c-0.2-0.9,0.4-1.7,1.3-1.9l0,0c0.9-0.2,1.7,0.4,1.9,1.3v0
		C126.6,78.9,126,79.7,125.1,79.9z"/>
	<path class="st2" d="M131.1,78.7L131.1,78.7c-0.9,0.2-1.7-0.4-1.9-1.3l0,0c-0.2-0.9,0.4-1.7,1.3-1.9l0,0c0.9-0.2,1.7,0.4,1.9,1.3v0
		C132.6,77.7,132,78.5,131.1,78.7z"/>
	<path class="st2" d="M137.1,77.5L137.1,77.5c-0.9,0.2-1.7-0.4-1.9-1.3v0c-0.2-0.9,0.4-1.7,1.3-1.9l0,0c0.9-0.2,1.7,0.4,1.9,1.3l0,0
		C138.6,76.5,138,77.3,137.1,77.5z"/>
	<path class="st1" d="M83.7,93.7l43.8-8.7c0,0,25.5,5.5,25.8,8c0.3,2.4-73.1,3.5-72.7,2.7S83.7,93.7,83.7,93.7z"/>
	<circle class="st2" cx="77.9" cy="109.7" r="4.7"/>
	<polygon class="st2" points="76.5,101.3 77.1,107.1 80.5,100 	"/>
	<path class="st2" d="M22.7,124.3C34,142.2,53.8,154,76.5,154s42.5-11.9,53.8-29.7H22.7z"/>
</g>
</svg>
