<?xml version="1.0" encoding="utf-8"?>
<!-- Generator: Adobe Illustrator 19.1.0, SVG Export Plug-In . SVG Version: 6.00 Build 0)  -->
<svg version="1.1" id="Capa_1" xmlns="http://www.w3.org/2000/svg" xmlns:xlink="http://www.w3.org/1999/xlink" x="0px" y="0px"
	 viewBox="0 0 194.9 185" style="enable-background:new 0 0 194.9 185;" xml:space="preserve">
<style type="text/css">
	.st0{fill:#A4DDED;}
	.st1{fill:#FFFFFF;stroke:#5DBFDD;stroke-width:2.6894;stroke-miterlimit:10;}
	.st2{fill:#5DBFDD;}
	.st3{fill:#5DBFDD;stroke:#FFFFFF;stroke-width:2.6894;stroke-miterlimit:10;}
	.st4{clip-path:url(#SVGID_2_);}
	.st5{clip-path:url(#SVGID_4_);}
	.st6{clip-path:url(#SVGID_6_);}
	.st7{clip-path:url(#SVGID_8_);}
</style>
<g>
	<circle class="st0" cx="99.8" cy="92.3" r="66.9"/>
	<path class="st1" d="M142.2,85.5c-0.4-2.3-6.1-2-6.1-2s0-5,0-7.6s-6.8-2.1-6.8-2.1s0.1-3.1-0.2-5.5c-0.3-2.3-2.3-2-2.3-2h-6.1
		c0,0,0-1.7,0-4.3s-2.1-3-3.1-3c-0.4,0-3.2-0.1-6.2-0.2V49c0-1.1-0.9-1.9-2-1.9h-0.1c-1.1,0-2,0.9-2,1.9v9.7c-2.2,0-4.1,0.1-5,0.2
		c-2.7,0.6-1.9,6.5-1.9,6.5s-0.3,0-4.6,0c-5.2,0-4.6,4.5-4.6,4.5s0,7.4,0,8l0.8,10.4l35.1,9.5l15.3-1.5
		C142.2,96.3,142.5,87.1,142.2,85.5z"/>
	<path class="st1" d="M60.8,120.8c-0.6-1.9-16.5-39.4-16.5-39.4s12.8-11.5,14.7-13c1.9-1.5,26.5,3.3,32.5,6.7
		c5.9,3.3,16.7,11.1,22.3,14.1c5.6,3,34,7.6,34,7.6l-8.2,26.7l-48.3,3L60.8,120.8z"/>
	<path class="st2" d="M57.6,75L71.2,122c0.2,0.7,1.3,0.4,1.2-0.3L61.7,73.8l-0.8-4.7c-0.1-0.4-0.5-0.6-0.9-0.4l-3.2,1.8
		c-0.2,0.1-0.4,0.4-0.3,0.7L57.6,75z"/>
	<path class="st2" d="M93.2,100.5c0,0,11.3,6.1,25.8,6.8s24.2,2.7,24.2,2.7l-1,3.1C142.3,113.2,93,109.1,93.2,100.5z"/>
	<path class="st3" d="M123.4,75.4"/>
	<path class="st2" d="M120.8,75.7h-0.2c-1.1,0-2-0.9-2-2v-1.5c0-1.1,0.9-2,2-2h0.2c1.1,0,2,0.9,2,2v1.5
		C122.9,74.8,122,75.7,120.8,75.7z"/>
	<path class="st2" d="M112.4,75.7h-0.2c-1.1,0-2-0.9-2-2v-1.5c0-1.1,0.9-2,2-2h0.2c1.1,0,2,0.9,2,2v1.5
		C114.4,74.8,113.5,75.7,112.4,75.7z"/>
	<path class="st2" d="M104,75.7h-0.2c-1.1,0-2-0.9-2-2v-1.5c0-1.1,0.9-2,2-2h0.2c1.1,0,2,0.9,2,2v1.5C106,74.8,105.1,75.7,104,75.7z
		"/>
	<path class="st2" d="M120.8,83.7h-0.2c-1.1,0-2-0.9-2-2v-1.5c0-1.1,0.9-2,2-2h0.2c1.1,0,2,0.9,2,2v1.5
		C122.9,82.8,122,83.7,120.8,83.7z"/>
	<path class="st2" d="M120.8,91.8h-0.2c-1.1,0-2-0.9-2-2v-1.5c0-1.1,0.9-2,2-2h0.2c1.1,0,2,0.9,2,2v1.5
		C122.9,90.9,122,91.8,120.8,91.8z"/>
	<path class="st2" d="M112.4,83.7h-0.2c-1.1,0-2-0.9-2-2v-1.5c0-1.1,0.9-2,2-2h0.2c1.1,0,2,0.9,2,2v1.5
		C114.4,82.8,113.5,83.7,112.4,83.7z"/>
	<path class="st2" d="M129.4,83.7h-0.2c-1.1,0-2-0.9-2-2v-1.5c0-1.1,0.9-2,2-2h0.2c1.1,0,2,0.9,2,2v1.5
		C131.4,82.8,130.5,83.7,129.4,83.7z"/>
	<path class="st2" d="M129.4,92.2h-0.2c-1.1,0-2-0.9-2-2v-1.5c0-1.1,0.9-2,2-2h0.2c1.1,0,2,0.9,2,2v1.5
		C131.4,91.3,130.5,92.2,129.4,92.2z"/>
	<path class="st2" d="M104,83.7h-0.2c-1.1,0-2-0.9-2-2v-1.5c0-1.1,0.9-2,2-2h0.2c1.1,0,2,0.9,2,2v1.5C106,82.8,105.1,83.7,104,83.7z
		"/>
	<rect x="107.4" y="47.5" class="st2" width="3.8" height="12.5"/>
	<g>
		<defs>
			<circle id="SVGID_1_" cx="99.7" cy="92.7" r="66.9"/>
		</defs>
		<clipPath id="SVGID_2_">
			<use xlink:href="#SVGID_1_"  style="overflow:visible;"/>
		</clipPath>
		<g class="st4">
			<defs>
				<rect id="SVGID_3_" x="35.9" y="97.9" width="136.1" height="41"/>
			</defs>
			<clipPath id="SVGID_4_">
				<use xlink:href="#SVGID_3_"  style="overflow:visible;"/>
			</clipPath>
			<g class="st5">
				<path class="st2" d="M180.7,151.2c-18.6,3.7-19.8-9-38.8-9c-19,0-19,9.1-37.9,9.1c-19,0-19-9.1-37.9-9.1s-20.2,12.7-38.8,9
					c-3.7-0.7,5.4-8.2,5.4-12c0-3.8-9.1-3.8-9.1-7.5c0-3.8,9.1-3.8,9.1-7.5s-9.1-11.3-5.4-12c18.6-3.7,19.8,9,38.8,9
					c19,0,19-9.1,37.9-9.1c19,0,19,9.1,37.9,9.1s20.2-12.7,38.8-9c3.7,0.7-5.4,8.2-5.4,12c0,3.8,9.1,3.8,9.1,7.5c0,3.8-9.9,5-9,8.6
					C176.9,146.6,184.4,150.4,180.7,151.2z"/>
			</g>
		</g>
		<g class="st4">
			<defs>
				<rect id="SVGID_5_" x="28.1" y="107.2" width="136.1" height="41"/>
			</defs>
			<clipPath id="SVGID_6_">
				<use xlink:href="#SVGID_5_"  style="overflow:visible;"/>
			</clipPath>
			<g class="st6">
				<path class="st0" d="M152.6,167.9c-18.6,3.7-19.8-9-38.8-9c-19,0-19,9.1-37.9,9.1c-19,0-19-9.1-37.9-9.1s-20.2,12.7-38.8,9
					c-3.7-0.7,5.4-8.2,5.4-12c0-3.8-9.1-3.8-9.1-7.5c0-3.8,9.1-3.8,9.1-7.5c0-3.8-9.1-11.3-5.4-12c18.6-3.7,19.8,9,38.8,9
					c19,0,19-9.1,37.9-9.1c19,0,19,9.1,37.9,9.1s20.2-12.7,38.8-9c3.7,0.7-5.4,8.2-5.4,12c0,3.8,9.1,3.8,9.1,7.5c0,3.8-9.9,5-9,8.6
					C148.8,163.2,156.3,167.1,152.6,167.9z"/>
			</g>
		</g>
		<g class="st4">
			<defs>
				<rect id="SVGID_7_" x="20.9" y="118.1" width="136.1" height="41"/>
			</defs>
			<clipPath id="SVGID_8_">
				<use xlink:href="#SVGID_7_"  style="overflow:visible;"/>
			</clipPath>
			<g class="st7">
				<path class="st2" d="M163.3,182.8c-18.6,3.7-19.8-9-38.8-9c-19,0-19,9.1-37.9,9.1c-19,0-19-9.1-37.9-9.1s-20.2,12.7-38.8,9
					c-3.7-0.7,5.4-8.2,5.4-12c0-3.8-9.1-3.8-9.1-7.5c0-3.8,9.1-3.8,9.1-7.5c0-3.8-9.1-11.3-5.4-12c18.6-3.7,19.8,9,38.8,9
					c19,0,19-9.1,37.9-9.1c19,0,19,9.1,37.9,9.1s20.2-12.7,38.8-9c3.7,0.7-5.4,8.2-5.4,12c0,3.8,9.1,3.8,9.1,7.5c0,3.8-9.9,5-9,8.6
					C159.5,178.1,167,182,163.3,182.8z"/>
			</g>
		</g>
	</g>
	<path class="st2" d="M28.2,121.1c0,0-1-10.3,18-9s36.3,13,49.7,11.7c13.3-1.3,41.3-6.7,48.7-6.3c7.3,0.3,13.3,4.3,13.3,4.3
		s-14.3,2.7-25.7,4c-11.3,1.3-29,8.3-49.7,2.7c-20.7-5.7-32.7-9-41-2.7C33.2,132.1,28.2,121.1,28.2,121.1z"/>
</g>
</svg>
