<?xml version="1.0" encoding="utf-8"?>
<!-- Generator: Adobe Illustrator 19.1.0, SVG Export Plug-In . SVG Version: 6.00 Build 0)  -->
<svg version="1.1" id="Capa_1" xmlns="http://www.w3.org/2000/svg" xmlns:xlink="http://www.w3.org/1999/xlink" x="0px" y="0px"
	 viewBox="0 0 194.9 185" style="enable-background:new 0 0 194.9 185;" xml:space="preserve">
<style type="text/css">
	.st0{fill:#efa4c7;}
	.st1{fill:#f8c5dd;}
	.st2{fill:#f8c5dd;stroke:#f8c5dd;stroke-width:1.725;stroke-miterlimit:10;}
	.st3{fill:#FFFFFF;stroke:#f8c5dd;stroke-width:2.5971;stroke-miterlimit:10;}
	.st4{fill:none;}
	.st5{fill:#FFFFFF;stroke:#f8c5dd;stroke-width:2.3229;stroke-miterlimit:10;}
</style>
<g>
	<circle class="st0" cx="97.4" cy="92.5" r="66.9"/>
	<path class="st1" d="M43.3,124.3C54.6,142.2,74.5,154,97.1,154s42.5-11.9,53.8-29.7H43.3z"/>
	<path class="st4" d="M40.2,106.3h-0.6c0,0-1.7,0.9-2.1,2c-0.3,1.1,0.6,0.9,2.1,0.2C41,107.7,41.8,106.3,40.2,106.3z"/>
	<circle class="st4" cx="128.6" cy="116.6" r="4.7"/>
	<path class="st4" d="M95.5,102.9c0,0-2.7,0-3.5,0c-0.8,0-2.1,1.4,1.4,1.3C96.9,104,96.8,102.9,95.5,102.9z"/>
	<circle class="st4" cx="58" cy="116.3" r="4.7"/>
	<path class="st4" d="M112,88.2c-1.4,0-9,0-9,0s-0.9,9.5-0.9,10.1c0,0.6,16.9,0,16.9,0s0.5-5.5-1-7.6
		C116.6,88.7,113.4,88.2,112,88.2z"/>
	<path class="st4" d="M149,97.9c0,0-2.4,4.4-1.9,6c0.5,1.6,2.9,1,3,0C150.2,102.9,150.2,97.9,149,97.9z"/>
	<path class="st4" d="M87.1,89.6c-3.5,1-9,5.5-9,5.5v4.1c0,0,19.2,0,19-0.6c-0.2-0.6,1.7-10.5,1.7-10.5
		C97.1,88.2,90.6,88.7,87.1,89.6z"/>
	<path class="st5" d="M152.5,107.2c-0.6-0.6-1.3-1.3-1.3-2.1c0-0.8,0-7.9-1.3-9c-1.3-1.1-10.1,0-13.3-0.8
		c-3.2-0.8-12.5-7.1-17.1-8.8c-9.9-3.6-31.2-0.5-35.6,0.4c-4.4,0.9-20,11-22.3,11.4c-14.7,2.2-23.9,6.5-24.5,7.9
		c-0.6,1.4-1.1,2.2-2.4,2.7c-1.3,0.5,0,3.5-0.2,4.4c-0.2,1,1.1,0,1.1,0.8c0,0.8,0,3.2,0,3.2h12.2c0,0,0.8-10.5,9.8-10.5
		c10,0,10.3,10.3,10.3,10.3v1.9h50.7v-2.4c0,0,1.1-9.3,10.4-9.4c9.3-0.1,9.4,9.4,9.9,9.4c0.5,0,11.7-1.7,12.7-2.9
		C152.5,112.8,153.1,107.8,152.5,107.2z"/>
	<path class="st5" d="M39.6,108.4c-1.4,0.7-2.4,1-2.1-0.2c0.3-1.2,2.1-2,2.1-2h0.6C41.8,106.3,41,107.7,39.6,108.4z"/>
	<path class="st5" d="M93.4,104.2c-3.5,0.2-2.2-1.3-1.4-1.3c0.8,0,3.5,0,3.5,0C96.8,102.9,96.9,104,93.4,104.2z"/>
	<path class="st5" d="M97.1,98.7c0.2,0.6-24.6,0.6-24.6,0.6l5.6-4.1c0,0,5.5-4.6,9-5.5c3.5-1,10-1.4,11.7-1.4
		C98.8,88.2,96.9,98,97.1,98.7z"/>
	<path class="st5" d="M118.9,98.3c0,0-16.9,0.6-16.9,0s0.9-10.1,0.9-10.1s7.6,0,9,0c1.4,0,4.6,0.5,6,2.5
		C119.4,92.8,118.9,98.3,118.9,98.3z"/>
	<path class="st5" d="M150.1,103.9c-0.1,1-2.5,1.6-3,0c-0.5-1.6,1.9-6,1.9-6C150.2,97.9,150.2,102.9,150.1,103.9z"/>
	<circle class="st1" cx="57.7" cy="117.7" r="7.2"/>
	<circle class="st1" cx="129.8" cy="117.7" r="7.2"/>
	<path class="st5" d="M92.4,85c0.3-0.5,5.7-7.2,5.7-7.2h7.8l3.8,6.9L92.4,85z"/>
	<rect x="79.7" y="107.8" class="st1" width="4.1" height="4.1"/>
	<rect x="88.2" y="107.8" class="st1" width="4.1" height="4.1"/>
	<rect x="96.7" y="107.8" class="st1" width="4.1" height="4.1"/>
	<rect x="105.2" y="107.8" class="st1" width="4.1" height="4.1"/>
	<rect x="75.4" y="111.8" class="st1" width="4.1" height="4.1"/>
	<rect x="83.9" y="111.8" class="st1" width="4.1" height="4.1"/>
	<rect x="92.4" y="111.8" class="st1" width="4.1" height="4.1"/>
	<rect x="100.9" y="111.8" class="st1" width="4.1" height="4.1"/>
</g>
</svg>
