<?xml version="1.0" encoding="utf-8"?>
<!-- Generator: Adobe Illustrator 19.1.0, SVG Export Plug-In . SVG Version: 6.00 Build 0)  -->
<svg version="1.1" id="Capa_1" xmlns="http://www.w3.org/2000/svg" xmlns:xlink="http://www.w3.org/1999/xlink" x="0px" y="0px"
	 viewBox="47 -42 194.9 185" style="enable-background:new 47 -42 194.9 185;" xml:space="preserve">
<style type="text/css">
	.st0{fill:#efa4c7;}
	.st1{opacity:0.75;clip-path:url(#SVGID_2_);fill:#f8c5dd;}
	.st2{fill:#f8c5dd;}
	.st3{fill:#FFFFFF;stroke:#f8c5dd;stroke-width:2.4514;stroke-miterlimit:10;}
	.st4{fill:none;stroke:#f8c5dd;stroke-width:2.4514;stroke-linecap:round;stroke-linejoin:round;stroke-miterlimit:10;}
</style>
<g>
	<circle class="st0" cx="143.1" cy="48.6" r="66.9"/>
	<g>
		<defs>
			<circle id="SVGID_1_" cx="143.6" cy="48.6" r="66.4"/>
		</defs>
		<clipPath id="SVGID_2_">
			<use xlink:href="#SVGID_1_"  style="overflow:visible;"/>
		</clipPath>
		<path class="st1" d="M228.3,6.9c0,0-9.6,16.8-42.2,9.9s-44.3-5.4-56.6-2.1s-31.5,10.5-38.6,9c-7.2-1.5-20.7-10.5-20.7-10.5
			l15.6-33.8l57.8-8.7l46.4,1.5"/>
	</g>
	<circle class="st2" cx="138.7" cy="54.9" r="26.5"/>
	<path class="st3" d="M220.8,56.9c0.2-0.9,0.3-1.7,0.3-2.6c0-6.7-5.4-12.2-12.2-12.2c-1.4,0-2.8,0.3-4.1,0.7
		c-2.8-7.2-9.7-12.4-17.9-12.4c-8.6,0-15.8,5.6-18.3,13.4c-1.8-1.1-3.9-1.7-6.2-1.7c-5.7,0-10.5,4-11.8,9.3
		c-2.6-0.5-3.7-4.7-11.5-5.1c-9.5-0.4-14.5,7-16.4,10.6H220.8z"/>
	<path class="st3" d="M68.1,73.7c-0.2-0.9-0.3-1.7-0.3-2.6c0-6.7,5.4-12.2,12.2-12.2c1.4,0,2.8,0.3,4.1,0.7
		c2.8-7.2,9.7-12.4,17.9-12.4c8.6,0,15.8,5.6,18.3,13.4c1.8-1.1,3.9-1.7,6.2-1.7c8.3,0,10.5,9.1,11.8,14.5
		C141,72.8,68.1,73.7,68.1,73.7z"/>
	<line class="st4" x1="159.6" y1="83.2" x2="157.5" y2="89.1"/>
	<line class="st4" x1="142.9" y1="98.9" x2="140.8" y2="104.8"/>
	<line class="st4" x1="162.5" y1="97.7" x2="160.3" y2="103.6"/>
	<line class="st4" x1="150.9" y1="113.4" x2="148.7" y2="119.2"/>
	<line class="st4" x1="132.2" y1="73" x2="130" y2="78.9"/>
	<line class="st4" x1="115.5" y1="88.8" x2="113.3" y2="94.7"/>
	<line class="st4" x1="135.1" y1="87.6" x2="132.9" y2="93.5"/>
	<line class="st4" x1="123.4" y1="103.2" x2="121.3" y2="109.1"/>
	<line class="st4" x1="172.1" y1="109.7" x2="169.9" y2="115.6"/>
	<line class="st4" x1="193.2" y1="64.5" x2="191" y2="70.4"/>
	<line class="st4" x1="172.3" y1="63.6" x2="170.1" y2="69.5"/>
	<line class="st4" x1="180.5" y1="78.1" x2="178.4" y2="83.9"/>
	<line class="st4" x1="182.5" y1="95.1" x2="180.3" y2="101"/>
	<line class="st4" x1="96.3" y1="83.1" x2="94.1" y2="89"/>
	<line class="st4" x1="153.1" y1="67.9" x2="150.9" y2="73.8"/>
</g>
</svg>
