<?xml version="1.0" encoding="utf-8"?>
<!-- Generator: Adobe Illustrator 19.1.0, SVG Export Plug-In . SVG Version: 6.00 Build 0)  -->
<svg version="1.1" xmlns="http://www.w3.org/2000/svg" xmlns:xlink="http://www.w3.org/1999/xlink" x="0px" y="0px"
	 viewBox="0 0 40 40" style="enable-background:new 0 0 40 40;" xml:space="preserve">
<style type="text/css">
	.st0{display:none;}
	.st1{display:inline;}
	.st2{fill:#5DBFDD;}
	.st3{fill:none;stroke:#5DBFDD;stroke-width:1.8064;stroke-miterlimit:10;}
</style>
<g id="Capa_1" class="st0">
	<g class="st1">
		<path class="st2" d="M3.2,8.4H1.6c0-1.7,1-3.2,2.5-3.5l17.3-3.8c0.6-0.2,1.3,0,1.8,0.4c0.6,0.5,1,1.3,1,2.3v2.7h-1.6V3.9
			c0-0.5-0.2-0.9-0.4-1c-0.1-0.1-0.2-0.2-0.5-0.1L4.4,6.5C3.8,6.7,3.2,7.6,3.2,8.4z"/>
		<path class="st2" d="M24.7,39.2H5c-1.9,0-3.3-1.4-3.3-3.3V8.9C1.6,7,3.1,5.6,5,5.6h19.7C26.6,5.6,28,7,28,8.9v26.9
			C28,37.7,26.5,39.2,24.7,39.2z M5,7.2c-1,0-1.7,0.7-1.7,1.7v26.9c0,1,0.7,1.7,1.7,1.7h19.7c1,0,1.7-0.8,1.7-1.7V8.9
			c0-1-0.7-1.7-1.7-1.7L5,7.2z"/>
		<path class="st2" d="M39.6,35.6H26.4v-26h13.2V35.6z M28,34h10.1V11.1H28V34z"/>
		<path class="st2" d="M14.3,30.1c-4.7,0-8.5-3.8-8.5-8.5s3.8-8.5,8.5-8.5s8.5,3.8,8.5,8.5S19,30.1,14.3,30.1z M14.3,14.7
			c-3.8,0-6.9,3.1-6.9,6.9s3.1,6.9,6.9,6.9s6.9-3.1,6.9-6.9S18.1,14.7,14.3,14.7z"/>
		<path class="st2" d="M14.3,30.1c-2.6,0-4.6-3.7-4.6-8.5s2-8.5,4.6-8.5s4.6,3.7,4.6,8.5S16.9,30.1,14.3,30.1z M14.3,14.7
			c-1.4,0-3,2.9-3,6.9s1.6,6.9,3,6.9s3-2.9,3-6.9S15.7,14.7,14.3,14.7z"/>
		<rect x="13.5" y="13.9" class="st2" width="1.6" height="15.4"/>
		<rect x="6.7" y="20.8" class="st2" width="15.3" height="1.6"/>
		<rect x="27.2" y="14.2" class="st2" width="7.4" height="1.6"/>
		<rect x="27.2" y="17.9" class="st2" width="7.4" height="1.6"/>
		<rect x="27.2" y="29.4" class="st2" width="7.4" height="1.6"/>
	</g>
</g>
<g id="Capa_2">
	<g>
		<g>
			<path class="st2" d="M23.8,26.7c0,0,0,0.1,0,0.1c0,4.8-3.9,8.7-8.7,8.7c-4.8,0-8.7-3.9-8.7-8.7c0-2.9,1.4-5.5,3.6-7.1l-0.3-2.6
				C6.3,19,4,22.7,4,26.8c0,6.1,5,11.1,11.1,11.1c5.2,0,9.5-3.6,10.7-8.4L23.8,26.7z"/>
		</g>
		<circle class="st3" cx="16.3" cy="5.2" r="3"/>
		<path class="st3" d="M35.7,28.5L28.9,19c-0.4-0.5-0.9-0.7-1.5-0.7c0,0-0.1,0-0.1,0h-7.7l-0.2-1.7h5.7c0.7,0,1.2-0.5,1.2-1.2
			c0-0.7-0.5-1.2-1.2-1.2h-6l-0.3-2.8c-0.2-1.6-1.6-2.8-3.3-2.6c-1.6,0.2-2.8,1.6-2.6,3.3l0.9,7.8c0.2,1.5,1.5,2.6,2.9,2.6
			c0,0,0,0,0,0h10.1l5.8,8.1c0.6,0.8,1.7,0.9,2.5,0.3C36,30.4,36.2,29.3,35.7,28.5z"/>
	</g>
</g>
</svg>
